<svg xmlns="http://www.w3.org/2000/svg" xmlns:xlink="http://www.w3.org/1999/xlink" width="1080" zoomAndPan="magnify" viewBox="0 0 810 809.999993" height="1080" preserveAspectRatio="xMidYMid meet" version="1.0"><defs><filter x="0%" y="0%" width="100%" height="100%" id="503feb12c4"><feColorMatrix values="0 0 0 0 1 0 0 0 0 1 0 0 0 0 1 0 0 0 1 0" color-interpolation-filters="sRGB"/></filter><mask id="f7161952dc"><g filter="url(#503feb12c4)"><rect x="-81" width="972" fill="#000000" y="-80.999999" height="971.999992" fill-opacity="0.18"/></g></mask><clipPath id="a69f25687b"><path d="M 16 20 L 810 20 L 810 742 L 16 742 Z M 16 20 " clip-rule="nonzero"/></clipPath><clipPath id="4eadf5a0b0"><path d="M -265.996094 235.613281 L 481.980469 -423.207031 L 1148.730469 333.777344 L 400.753906 992.59375 Z M -265.996094 235.613281 " clip-rule="nonzero"/></clipPath><clipPath id="ac2e9118da"><path d="M -265.996094 235.613281 L 481.980469 -423.207031 L 1148.730469 333.777344 L 400.753906 992.59375 Z M -265.996094 235.613281 " clip-rule="nonzero"/></clipPath><clipPath id="fe0229a3d7"><rect x="0" width="810" y="0" height="810"/></clipPath><mask id="daf0e50dfa"><g filter="url(#503feb12c4)"><rect x="-81" width="972" fill="#000000" y="-80.999999" height="971.999992" fill-opacity="0.82"/></g></mask><clipPath id="f7fb455d0e"><path d="M 24 51 L 685 51 L 685 717 L 24 717 Z M 24 51 " clip-rule="nonzero"/></clipPath><clipPath id="cf47d4e8b7"><path d="M 70.347656 -4 L 734.160156 66.050781 L 659.941406 769.394531 L -3.875 699.34375 Z M 70.347656 -4 " clip-rule="nonzero"/></clipPath><clipPath id="7fad8b7601"><path d="M 70.347656 -4 L 734.160156 66.050781 L 659.941406 769.394531 L -3.875 699.34375 Z M 70.347656 -4 " clip-rule="nonzero"/></clipPath><clipPath id="0f457a6d34"><rect x="0" width="724" y="0" height="765"/></clipPath></defs><g mask="url(#f7161952dc)"><g transform="matrix(1, 0, 0, 1, 0, 0.000000000000039746)"><g clip-path="url(#fe0229a3d7)"><g clip-path="url(#a69f25687b)"><g clip-path="url(#4eadf5a0b0)"><g clip-path="url(#ac2e9118da)"><path fill="#f3f0f0" d="M 759.761719 491.140625 C 759.761719 491.140625 1005.527344 172.164062 553.148438 42.34375 C 100.777344 -87.480469 -114.695312 406.902344 100.527344 538.773438 C 315.75 670.632812 454.753906 944.488281 759.761719 491.140625 " fill-opacity="1" fill-rule="nonzero"/></g></g></g></g></g></g><g mask="url(#daf0e50dfa)"><g transform="matrix(1, 0, 0, 1, 55, 4)"><g clip-path="url(#0f457a6d34)"><g clip-path="url(#f7fb455d0e)"><g clip-path="url(#cf47d4e8b7)"><g clip-path="url(#7fad8b7601)"><path fill="#ed4557" d="M 677.640625 297.691406 C 672.660156 257.140625 665.96875 216.8125 661.5625 176.199219 C 658.203125 145.261719 657.5 111.394531 636.636719 86.089844 C 609.492188 53.175781 563.117188 47.925781 523.4375 54.089844 C 481.289062 60.632812 438.5 73.386719 398.457031 87.84375 C 304.589844 121.785156 228.136719 183.210938 158.507812 253.171875 C 138.921875 272.863281 117.492188 295.492188 99.117188 320.230469 C 61.09375 348.160156 41.203125 398.71875 30.898438 443.816406 C 16.871094 505.242188 26.726562 569.691406 57.386719 624.972656 C 73.859375 654.6875 95.757812 681.753906 126.175781 698.054688 C 161.574219 717.03125 206.371094 717.761719 245.550781 716.1875 C 291.230469 714.339844 336.125 705.089844 380.546875 694.640625 C 415.046875 686.53125 449.972656 680.179688 484.3125 671.457031 C 519.34375 662.566406 553.902344 651.195312 584.277344 631.300781 C 616.796875 609.992188 639.714844 576.8125 656.078125 542.152344 C 691.902344 466.101562 687.675781 378.96875 677.640625 297.691406 Z M 677.640625 297.691406 " fill-opacity="1" fill-rule="nonzero"/></g></g></g></g></g></g></svg>