<svg xmlns="http://www.w3.org/2000/svg" xmlns:xlink="http://www.w3.org/1999/xlink" width="1920" zoomAndPan="magnify" viewBox="0 0 1440 809.999993" height="1080" preserveAspectRatio="xMidYMid meet" version="1.0"><defs><g/><clipPath id="de78f0c0dd"><path d="M 0 0 L 202.609375 0 L 202.609375 332.785156 L 0 332.785156 Z M 0 0 " clip-rule="nonzero"/></clipPath><clipPath id="4d4c73bb68"><path d="M 37 578 L 194 578 L 194 750 L 37 750 Z M 37 578 " clip-rule="nonzero"/></clipPath><clipPath id="2c87e1258c"><path d="M 210.542969 625.628906 L 157.050781 752.839844 L 15.320312 693.246094 L 68.8125 566.035156 Z M 210.542969 625.628906 " clip-rule="nonzero"/></clipPath><clipPath id="15d15319e2"><path d="M 210.542969 625.628906 L 157.050781 752.839844 L 15.320312 693.246094 L 68.8125 566.035156 Z M 210.542969 625.628906 " clip-rule="nonzero"/></clipPath><clipPath id="50111c3b7b"><path d="M 1282.953125 81 L 1440 81 L 1440 461.25 L 1282.953125 461.25 Z M 1282.953125 81 " clip-rule="nonzero"/></clipPath><clipPath id="1e2bbef71c"><path d="M 811 433 L 968 433 L 968 604 L 811 604 Z M 811 433 " clip-rule="nonzero"/></clipPath><clipPath id="2787df0a11"><path d="M 984.570312 480.019531 L 931.078125 607.230469 L 789.347656 547.632812 L 842.839844 420.421875 Z M 984.570312 480.019531 " clip-rule="nonzero"/></clipPath><clipPath id="c5299f3382"><path d="M 984.570312 480.019531 L 931.078125 607.230469 L 789.347656 547.632812 L 842.839844 420.421875 Z M 984.570312 480.019531 " clip-rule="nonzero"/></clipPath><clipPath id="b7c2a684b0"><path d="M 1259 712 L 1417 712 L 1417 810 L 1259 810 Z M 1259 712 " clip-rule="nonzero"/></clipPath><clipPath id="8783605ef1"><path d="M 1432.816406 759.894531 L 1379.328125 887.105469 L 1237.597656 827.511719 L 1291.089844 700.300781 Z M 1432.816406 759.894531 " clip-rule="nonzero"/></clipPath><clipPath id="452383545e"><path d="M 1432.816406 759.894531 L 1379.328125 887.105469 L 1237.597656 827.511719 L 1291.089844 700.300781 Z M 1432.816406 759.894531 " clip-rule="nonzero"/></clipPath><clipPath id="540a367886"><path d="M 210.554688 97.707031 L 270.554688 97.707031 L 270.554688 157.707031 L 210.554688 157.707031 Z M 210.554688 97.707031 " clip-rule="nonzero"/></clipPath></defs><g fill="#ffffff" fill-opacity="1"><g transform="translate(873.465501, 334.60263)"><g><path d="M 15.75 0 L 1.953125 -128.84375 L 27.140625 -128.84375 L 34.34375 -47.546875 L 41.546875 -128.84375 L 65.546875 -128.84375 L 72.4375 -47.546875 L 79.34375 -128.84375 L 104.84375 -128.84375 L 90.734375 0 L 59.84375 0 L 53.390625 -62.09375 L 47.25 0 Z M 15.75 0 "/></g></g></g><g fill="#ffffff" fill-opacity="1"><g transform="translate(980.248839, 334.60263)"><g><path d="M 36.453125 1.203125 C 26.046875 1.203125 18.144531 -1.96875 12.75 -8.3125 C 7.351562 -14.664062 4.65625 -23.59375 4.65625 -35.09375 L 4.65625 -96.4375 C 4.65625 -107.539062 7.351562 -115.914062 12.75 -121.5625 C 18.144531 -127.207031 26.046875 -130.03125 36.453125 -130.03125 C 46.847656 -130.03125 54.742188 -127.207031 60.140625 -121.5625 C 65.546875 -115.914062 68.25 -107.539062 68.25 -96.4375 L 68.25 -35.09375 C 68.25 -23.5 65.546875 -14.550781 60.140625 -8.25 C 54.742188 -1.945312 46.847656 1.203125 36.453125 1.203125 Z M 36.453125 -22.5 C 38.742188 -22.5 40.289062 -23.5 41.09375 -25.5 C 41.894531 -27.5 42.296875 -30.296875 42.296875 -33.890625 L 42.296875 -96.890625 C 42.296875 -99.691406 41.921875 -101.96875 41.171875 -103.71875 C 40.421875 -105.46875 38.894531 -106.34375 36.59375 -106.34375 C 32.289062 -106.34375 30.140625 -103.09375 30.140625 -96.59375 L 30.140625 -33.75 C 30.140625 -30.050781 30.585938 -27.25 31.484375 -25.34375 C 32.390625 -23.445312 34.046875 -22.5 36.453125 -22.5 Z M 36.453125 -22.5 "/></g></g></g><g fill="#ffffff" fill-opacity="1"><g transform="translate(1053.137469, 334.60263)"><g><path d="M 5.703125 -128.84375 L 45.296875 -128.84375 C 51.597656 -128.84375 56.472656 -127.414062 59.921875 -124.5625 C 63.367188 -121.707031 65.691406 -117.707031 66.890625 -112.5625 C 68.085938 -107.414062 68.6875 -100.84375 68.6875 -92.84375 C 68.6875 -85.539062 67.738281 -79.835938 65.84375 -75.734375 C 63.945312 -71.640625 60.644531 -68.789062 55.9375 -67.1875 C 59.84375 -66.394531 62.671875 -64.445312 64.421875 -61.34375 C 66.171875 -58.238281 67.046875 -54.039062 67.046875 -48.75 L 66.75 0 L 41.546875 0 L 41.546875 -50.390625 C 41.546875 -53.992188 40.84375 -56.296875 39.4375 -57.296875 C 38.039062 -58.296875 35.492188 -58.796875 31.796875 -58.796875 L 31.796875 0 L 5.703125 0 Z M 38.09375 -81.140625 C 41.695312 -81.140625 43.5 -85.039062 43.5 -92.84375 C 43.5 -96.238281 43.347656 -98.785156 43.046875 -100.484375 C 42.742188 -102.191406 42.191406 -103.367188 41.390625 -104.015625 C 40.597656 -104.660156 39.453125 -104.984375 37.953125 -104.984375 L 31.953125 -104.984375 L 31.953125 -81.140625 Z M 38.09375 -81.140625 "/></g></g></g><g fill="#ffffff" fill-opacity="1"><g transform="translate(1124.676304, 334.60263)"><g><path d="M 5.703125 0 L 5.703125 -128.84375 L 31.5 -128.84375 L 31.5 -21.890625 L 58.046875 -21.890625 L 58.046875 0 Z M 5.703125 0 "/></g></g></g><g fill="#ffffff" fill-opacity="1"><g transform="translate(1184.217026, 334.60263)"><g><path d="M 5.703125 -128.84375 L 41.25 -128.84375 C 50.445312 -128.84375 57.34375 -126.289062 61.9375 -121.1875 C 66.539062 -116.082031 68.894531 -108.535156 69 -98.546875 L 69.296875 -38.25 C 69.390625 -25.550781 67.1875 -16 62.6875 -9.59375 C 58.1875 -3.195312 50.738281 0 40.34375 0 L 5.703125 0 Z M 36.140625 -22.796875 C 40.847656 -22.796875 43.203125 -25.097656 43.203125 -29.703125 L 43.203125 -96.140625 C 43.203125 -99.035156 42.972656 -101.207031 42.515625 -102.65625 C 42.066406 -104.113281 41.242188 -105.09375 40.046875 -105.59375 C 38.847656 -106.09375 37 -106.34375 34.5 -106.34375 L 31.640625 -106.34375 L 31.640625 -22.796875 Z M 36.140625 -22.796875 "/></g></g></g><g fill="#ffffff" fill-opacity="1"><g transform="translate(872.921331, 186.452046)"><g><path d="M 0.984375 -22.328125 L 7.046875 -22.328125 C 8.671875 -22.328125 9.851562 -21.925781 10.59375 -21.125 C 11.332031 -20.332031 11.703125 -19.035156 11.703125 -17.234375 L 11.703125 -16.25 C 11.703125 -14.113281 10.9375 -12.835938 9.40625 -12.421875 C 10.34375 -12.179688 11 -11.617188 11.375 -10.734375 C 11.757812 -9.847656 11.953125 -8.679688 11.953125 -7.234375 C 11.953125 -4.859375 11.597656 -3.054688 10.890625 -1.828125 C 10.179688 -0.609375 8.898438 0 7.046875 0 L 0.984375 0 Z M 6.265625 -13.9375 C 6.648438 -13.9375 6.910156 -14.078125 7.046875 -14.359375 C 7.179688 -14.648438 7.25 -15.054688 7.25 -15.578125 L 7.25 -17.8125 C 7.25 -18.539062 6.929688 -18.90625 6.296875 -18.90625 L 5.359375 -18.90625 L 5.359375 -13.9375 Z M 5.796875 -3.921875 C 6.960938 -3.921875 7.546875 -4.476562 7.546875 -5.59375 L 7.546875 -8.375 C 7.546875 -9.050781 7.441406 -9.5625 7.234375 -9.90625 C 7.035156 -10.25 6.6875 -10.421875 6.1875 -10.421875 L 5.359375 -10.421875 L 5.359375 -3.953125 Z M 5.796875 -3.921875 "/></g></g></g><g fill="#ffffff" fill-opacity="1"><g transform="translate(891.55955, 186.452046)"><g><path d="M 6.15625 0.203125 C 4.320312 0.203125 2.957031 -0.3125 2.0625 -1.34375 C 1.175781 -2.382812 0.734375 -3.929688 0.734375 -5.984375 L 0.734375 -22.328125 L 5.0625 -22.328125 L 5.0625 -6.15625 C 5.0625 -5.445312 5.128906 -4.894531 5.265625 -4.5 C 5.410156 -4.101562 5.707031 -3.90625 6.15625 -3.90625 C 6.613281 -3.90625 6.910156 -4.097656 7.046875 -4.484375 C 7.179688 -4.867188 7.25 -5.425781 7.25 -6.15625 L 7.25 -22.328125 L 11.59375 -22.328125 L 11.59375 -5.984375 C 11.59375 -3.929688 11.144531 -2.382812 10.25 -1.34375 C 9.363281 -0.3125 8 0.203125 6.15625 0.203125 Z M 6.15625 0.203125 "/></g></g></g><g fill="#ffffff" fill-opacity="1"><g transform="translate(910.06781, 186.452046)"><g><path d="M 0.78125 0 L 0.78125 -22.328125 L 5.09375 -22.328125 L 5.09375 0 Z M 0.78125 0 "/></g></g></g><g fill="#ffffff" fill-opacity="1"><g transform="translate(922.155992, 186.452046)"><g><path d="M 0.984375 0 L 0.984375 -22.328125 L 5.453125 -22.328125 L 5.453125 -3.796875 L 10.0625 -3.796875 L 10.0625 0 Z M 0.984375 0 "/></g></g></g><g fill="#ffffff" fill-opacity="1"><g transform="translate(938.662852, 186.452046)"><g><path d="M 0.984375 -22.328125 L 7.15625 -22.328125 C 8.75 -22.328125 9.941406 -21.882812 10.734375 -21 C 11.535156 -20.125 11.941406 -18.816406 11.953125 -17.078125 L 12.015625 -6.625 C 12.023438 -4.425781 11.640625 -2.769531 10.859375 -1.65625 C 10.085938 -0.550781 8.800781 0 7 0 L 0.984375 0 Z M 6.265625 -3.953125 C 7.078125 -3.953125 7.484375 -4.347656 7.484375 -5.140625 L 7.484375 -16.671875 C 7.484375 -17.171875 7.441406 -17.546875 7.359375 -17.796875 C 7.285156 -18.046875 7.144531 -18.210938 6.9375 -18.296875 C 6.726562 -18.390625 6.410156 -18.4375 5.984375 -18.4375 L 5.484375 -18.4375 L 5.484375 -3.953125 Z M 6.265625 -3.953125 "/></g></g></g><g fill="#ffffff" fill-opacity="1"><g transform="translate(957.66497, 186.452046)"><g><path d="M 0.78125 0 L 0.78125 -22.328125 L 5.09375 -22.328125 L 5.09375 0 Z M 0.78125 0 "/></g></g></g><g fill="#ffffff" fill-opacity="1"><g transform="translate(969.753152, 186.452046)"><g><path d="M 0.984375 0 L 0.984375 -22.328125 L 5.59375 -22.328125 L 7.640625 -11.640625 L 7.640625 -22.328125 L 11.953125 -22.328125 L 11.953125 0 L 7.59375 0 L 5.359375 -11.1875 L 5.359375 0 Z M 0.984375 0 "/></g></g></g><g fill="#ffffff" fill-opacity="1"><g transform="translate(988.885223, 186.452046)"><g><path d="M 5.59375 0.203125 C 3.976562 0.203125 2.773438 -0.363281 1.984375 -1.5 C 1.203125 -2.632812 0.8125 -4.351562 0.8125 -6.65625 L 0.8125 -16.28125 C 0.8125 -18.34375 1.269531 -19.898438 2.1875 -20.953125 C 3.101562 -22.015625 4.472656 -22.546875 6.296875 -22.546875 C 7.765625 -22.546875 8.90625 -22.25 9.71875 -21.65625 C 10.539062 -21.070312 11.101562 -20.210938 11.40625 -19.078125 C 11.71875 -17.953125 11.875 -16.503906 11.875 -14.734375 L 7.515625 -14.734375 L 7.515625 -16.75 C 7.515625 -17.28125 7.441406 -17.691406 7.296875 -17.984375 C 7.148438 -18.285156 6.882812 -18.4375 6.5 -18.4375 C 5.644531 -18.4375 5.21875 -17.878906 5.21875 -16.765625 L 5.21875 -5.953125 C 5.21875 -5.273438 5.304688 -4.765625 5.484375 -4.421875 C 5.660156 -4.078125 5.960938 -3.90625 6.390625 -3.90625 C 6.828125 -3.90625 7.128906 -4.078125 7.296875 -4.421875 C 7.472656 -4.765625 7.5625 -5.273438 7.5625 -5.953125 L 7.5625 -9.15625 L 6.375 -9.15625 L 6.375 -13 L 11.828125 -13 L 11.828125 0 L 10.03125 0 L 9.28125 -1.875 C 8.488281 -0.488281 7.257812 0.203125 5.59375 0.203125 Z M 5.59375 0.203125 "/></g></g></g><g fill="#ffffff" fill-opacity="1"><g transform="translate(1007.679397, 186.452046)"><g/></g></g><g fill="#ffffff" fill-opacity="1"><g transform="translate(1019.949522, 186.452046)"><g><path d="M 0.390625 0 L 2.546875 -22.328125 L 10.109375 -22.328125 L 12.25 0 L 8.015625 0 L 7.703125 -3.609375 L 4.984375 -3.609375 L 4.734375 0 Z M 5.328125 -7.171875 L 7.359375 -7.171875 L 6.375 -18.53125 L 6.15625 -18.53125 Z M 5.328125 -7.171875 "/></g></g></g><g fill="#ffffff" fill-opacity="1"><g transform="translate(1038.743696, 186.452046)"><g/></g></g><g fill="#ffffff" fill-opacity="1"><g transform="translate(1051.013821, 186.452046)"><g><path d="M 0.984375 -22.328125 L 7.046875 -22.328125 C 8.671875 -22.328125 9.851562 -21.925781 10.59375 -21.125 C 11.332031 -20.332031 11.703125 -19.035156 11.703125 -17.234375 L 11.703125 -16.25 C 11.703125 -14.113281 10.9375 -12.835938 9.40625 -12.421875 C 10.34375 -12.179688 11 -11.617188 11.375 -10.734375 C 11.757812 -9.847656 11.953125 -8.679688 11.953125 -7.234375 C 11.953125 -4.859375 11.597656 -3.054688 10.890625 -1.828125 C 10.179688 -0.609375 8.898438 0 7.046875 0 L 0.984375 0 Z M 6.265625 -13.9375 C 6.648438 -13.9375 6.910156 -14.078125 7.046875 -14.359375 C 7.179688 -14.648438 7.25 -15.054688 7.25 -15.578125 L 7.25 -17.8125 C 7.25 -18.539062 6.929688 -18.90625 6.296875 -18.90625 L 5.359375 -18.90625 L 5.359375 -13.9375 Z M 5.796875 -3.921875 C 6.960938 -3.921875 7.546875 -4.476562 7.546875 -5.59375 L 7.546875 -8.375 C 7.546875 -9.050781 7.441406 -9.5625 7.234375 -9.90625 C 7.035156 -10.25 6.6875 -10.421875 6.1875 -10.421875 L 5.359375 -10.421875 L 5.359375 -3.953125 Z M 5.796875 -3.921875 "/></g></g></g><g fill="#ffffff" fill-opacity="1"><g transform="translate(1069.652035, 186.452046)"><g><path d="M 0.984375 0 L 0.984375 -22.328125 L 9.9375 -22.328125 L 9.9375 -18.015625 L 5.53125 -18.015625 L 5.53125 -13.671875 L 9.75 -13.671875 L 9.75 -9.46875 L 5.53125 -9.46875 L 5.53125 -4.34375 L 10.21875 -4.34375 L 10.21875 0 Z M 0.984375 0 "/></g></g></g><g fill="#ffffff" fill-opacity="1"><g transform="translate(1086.548778, 186.452046)"><g><path d="M 2.90625 0 L 2.90625 -18.046875 L 0.265625 -18.046875 L 0.265625 -22.328125 L 10.03125 -22.328125 L 10.03125 -18.046875 L 7.390625 -18.046875 L 7.390625 0 Z M 2.90625 0 "/></g></g></g><g fill="#ffffff" fill-opacity="1"><g transform="translate(1103.029642, 186.452046)"><g><path d="M 2.90625 0 L 2.90625 -18.046875 L 0.265625 -18.046875 L 0.265625 -22.328125 L 10.03125 -22.328125 L 10.03125 -18.046875 L 7.390625 -18.046875 L 7.390625 0 Z M 2.90625 0 "/></g></g></g><g fill="#ffffff" fill-opacity="1"><g transform="translate(1119.510507, 186.452046)"><g><path d="M 0.984375 0 L 0.984375 -22.328125 L 9.9375 -22.328125 L 9.9375 -18.015625 L 5.53125 -18.015625 L 5.53125 -13.671875 L 9.75 -13.671875 L 9.75 -9.46875 L 5.53125 -9.46875 L 5.53125 -4.34375 L 10.21875 -4.34375 L 10.21875 0 Z M 0.984375 0 "/></g></g></g><g fill="#ffffff" fill-opacity="1"><g transform="translate(1136.40725, 186.452046)"><g><path d="M 0.984375 -22.328125 L 7.859375 -22.328125 C 8.941406 -22.328125 9.78125 -22.082031 10.375 -21.59375 C 10.976562 -21.101562 11.382812 -20.410156 11.59375 -19.515625 C 11.800781 -18.617188 11.90625 -17.476562 11.90625 -16.09375 C 11.90625 -14.832031 11.738281 -13.84375 11.40625 -13.125 C 11.082031 -12.414062 10.515625 -11.921875 9.703125 -11.640625 C 10.378906 -11.503906 10.867188 -11.164062 11.171875 -10.625 C 11.472656 -10.09375 11.625 -9.367188 11.625 -8.453125 L 11.5625 0 L 7.203125 0 L 7.203125 -8.734375 C 7.203125 -9.359375 7.078125 -9.753906 6.828125 -9.921875 C 6.585938 -10.097656 6.148438 -10.1875 5.515625 -10.1875 L 5.515625 0 L 0.984375 0 Z M 6.609375 -14.0625 C 7.234375 -14.0625 7.546875 -14.738281 7.546875 -16.09375 C 7.546875 -16.6875 7.519531 -17.128906 7.46875 -17.421875 C 7.414062 -17.710938 7.316406 -17.914062 7.171875 -18.03125 C 7.035156 -18.144531 6.835938 -18.203125 6.578125 -18.203125 L 5.53125 -18.203125 L 5.53125 -14.0625 Z M 6.609375 -14.0625 "/></g></g></g><g fill="#ffffff" fill-opacity="1"><g transform="translate(1154.993484, 186.452046)"><g/></g></g><g fill="#ffffff" fill-opacity="1"><g transform="translate(1167.26361, 186.452046)"><g><path d="M 2.734375 0 L 0.34375 -22.328125 L 4.703125 -22.328125 L 5.953125 -8.234375 L 7.203125 -22.328125 L 11.359375 -22.328125 L 12.5625 -8.234375 L 13.75 -22.328125 L 18.171875 -22.328125 L 15.734375 0 L 10.375 0 L 9.25 -10.765625 L 8.1875 0 Z M 2.734375 0 "/></g></g></g><g fill="#ffffff" fill-opacity="1"><g transform="translate(1191.958013, 186.452046)"><g><path d="M 6.3125 0.203125 C 4.507812 0.203125 3.140625 -0.34375 2.203125 -1.4375 C 1.273438 -2.539062 0.8125 -4.085938 0.8125 -6.078125 L 0.8125 -16.71875 C 0.8125 -18.644531 1.273438 -20.097656 2.203125 -21.078125 C 3.140625 -22.054688 4.507812 -22.546875 6.3125 -22.546875 C 8.113281 -22.546875 9.484375 -22.054688 10.421875 -21.078125 C 11.359375 -20.097656 11.828125 -18.644531 11.828125 -16.71875 L 11.828125 -6.078125 C 11.828125 -4.066406 11.359375 -2.515625 10.421875 -1.421875 C 9.484375 -0.335938 8.113281 0.203125 6.3125 0.203125 Z M 6.3125 -3.90625 C 6.71875 -3.90625 6.988281 -4.078125 7.125 -4.421875 C 7.257812 -4.765625 7.328125 -5.25 7.328125 -5.875 L 7.328125 -16.796875 C 7.328125 -17.285156 7.257812 -17.679688 7.125 -17.984375 C 7 -18.285156 6.738281 -18.4375 6.34375 -18.4375 C 5.59375 -18.4375 5.21875 -17.875 5.21875 -16.75 L 5.21875 -5.84375 C 5.21875 -5.207031 5.296875 -4.722656 5.453125 -4.390625 C 5.609375 -4.066406 5.894531 -3.90625 6.3125 -3.90625 Z M 6.3125 -3.90625 "/></g></g></g><g fill="#ffffff" fill-opacity="1"><g transform="translate(1210.778188, 186.452046)"><g><path d="M 0.984375 -22.328125 L 7.859375 -22.328125 C 8.941406 -22.328125 9.78125 -22.082031 10.375 -21.59375 C 10.976562 -21.101562 11.382812 -20.410156 11.59375 -19.515625 C 11.800781 -18.617188 11.90625 -17.476562 11.90625 -16.09375 C 11.90625 -14.832031 11.738281 -13.84375 11.40625 -13.125 C 11.082031 -12.414062 10.515625 -11.921875 9.703125 -11.640625 C 10.378906 -11.503906 10.867188 -11.164062 11.171875 -10.625 C 11.472656 -10.09375 11.625 -9.367188 11.625 -8.453125 L 11.5625 0 L 7.203125 0 L 7.203125 -8.734375 C 7.203125 -9.359375 7.078125 -9.753906 6.828125 -9.921875 C 6.585938 -10.097656 6.148438 -10.1875 5.515625 -10.1875 L 5.515625 0 L 0.984375 0 Z M 6.609375 -14.0625 C 7.234375 -14.0625 7.546875 -14.738281 7.546875 -16.09375 C 7.546875 -16.6875 7.519531 -17.128906 7.46875 -17.421875 C 7.414062 -17.710938 7.316406 -17.914062 7.171875 -18.03125 C 7.035156 -18.144531 6.835938 -18.203125 6.578125 -18.203125 L 5.53125 -18.203125 L 5.53125 -14.0625 Z M 6.609375 -14.0625 "/></g></g></g><g fill="#ffffff" fill-opacity="1"><g transform="translate(1229.364422, 186.452046)"><g><path d="M 0.984375 0 L 0.984375 -22.328125 L 5.453125 -22.328125 L 5.453125 -3.796875 L 10.0625 -3.796875 L 10.0625 0 Z M 0.984375 0 "/></g></g></g><g fill="#ffffff" fill-opacity="1"><g transform="translate(1245.871287, 186.452046)"><g><path d="M 0.984375 -22.328125 L 7.15625 -22.328125 C 8.75 -22.328125 9.941406 -21.882812 10.734375 -21 C 11.535156 -20.125 11.941406 -18.816406 11.953125 -17.078125 L 12.015625 -6.625 C 12.023438 -4.425781 11.640625 -2.769531 10.859375 -1.65625 C 10.085938 -0.550781 8.800781 0 7 0 L 0.984375 0 Z M 6.265625 -3.953125 C 7.078125 -3.953125 7.484375 -4.347656 7.484375 -5.140625 L 7.484375 -16.671875 C 7.484375 -17.171875 7.441406 -17.546875 7.359375 -17.796875 C 7.285156 -18.046875 7.144531 -18.210938 6.9375 -18.296875 C 6.726562 -18.390625 6.410156 -18.4375 5.984375 -18.4375 L 5.484375 -18.4375 L 5.484375 -3.953125 Z M 6.265625 -3.953125 "/></g></g></g><g fill="#ffffff" fill-opacity="1"><g transform="translate(876.969864, 526.007346)"><g><path d="M 8.199219 0.199219 C 10.117188 0.199219 12.117188 -0.558594 13.195312 -2.179688 L 13.195312 0 L 14.875 0 L 14.875 -7.976562 L 9.417969 -7.976562 L 9.417969 -6.339844 L 13.078125 -6.339844 C 13.078125 -3.300781 11.15625 -1.441406 8.179688 -1.441406 C 4.597656 -1.441406 2.839844 -4.339844 2.839844 -7.679688 C 2.839844 -10.816406 4.417969 -13.816406 8.136719 -13.816406 C 10.355469 -13.816406 11.878906 -12.71875 12.558594 -11.058594 L 14.617188 -11.058594 C 13.777344 -13.65625 11.578125 -15.457031 8.179688 -15.457031 C 3.21875 -15.457031 1 -11.636719 1 -7.617188 C 1 -3.617188 3.199219 0.199219 8.199219 0.199219 Z M 8.199219 0.199219 "/></g></g></g><g fill="#ffffff" fill-opacity="1"><g transform="translate(895.103505, 526.007346)"><g><path d="M 3.417969 0 L 3.417969 -15.257812 L 1.578125 -15.257812 L 1.578125 0 Z M 3.417969 0 "/></g></g></g><g fill="#ffffff" fill-opacity="1"><g transform="translate(902.121524, 526.007346)"><g><path d="M 7.976562 0 L 13.597656 -15.257812 L 11.738281 -15.257812 L 6.9375 -1.878906 L 2.140625 -15.257812 L 0.28125 -15.257812 L 5.898438 0 Z M 7.976562 0 "/></g></g></g><g fill="#ffffff" fill-opacity="1"><g transform="translate(917.996055, 526.007346)"><g><path d="M 11.4375 0 L 11.4375 -1.660156 L 3.417969 -1.660156 L 3.417969 -6.839844 L 10.496094 -6.839844 L 10.496094 -8.476562 L 3.417969 -8.476562 L 3.417969 -13.597656 L 11.4375 -13.597656 L 11.4375 -15.257812 L 1.578125 -15.257812 L 1.578125 0 Z M 11.4375 0 "/></g></g></g><g fill="#ffffff" fill-opacity="1"><g transform="translate(932.311205, 526.007346)"><g/></g></g><g fill="#ffffff" fill-opacity="1"><g transform="translate(939.909006, 526.007346)"><g><path d="M 7.558594 0 C 8.835938 0 10.558594 -0.28125 11.65625 -1.339844 C 12.316406 -2 12.777344 -2.9375 12.777344 -4.300781 C 12.777344 -6.4375 11.578125 -7.839844 9.417969 -7.996094 C 11.039062 -8.15625 12.015625 -9.617188 12.015625 -11.4375 C 12.015625 -12.535156 11.695312 -13.476562 10.996094 -14.136719 C 10.238281 -14.855469 9.058594 -15.257812 7.316406 -15.257812 L 1.578125 -15.257812 L 1.578125 0 Z M 3.417969 -13.597656 L 6.917969 -13.597656 C 8.019531 -13.597656 8.9375 -13.375 9.519531 -12.816406 C 9.917969 -12.4375 10.15625 -11.898438 10.15625 -11.136719 C 10.15625 -9.558594 9.117188 -8.636719 7.316406 -8.636719 L 3.417969 -8.636719 Z M 3.417969 -7 L 7.757812 -7 C 8.597656 -7 10.9375 -7 10.9375 -4.417969 C 10.9375 -3.480469 10.636719 -2.859375 10.199219 -2.460938 C 9.335938 -1.660156 7.957031 -1.660156 7.359375 -1.660156 L 3.417969 -1.660156 Z M 3.417969 -7 "/></g></g></g><g fill="#ffffff" fill-opacity="1"><g transform="translate(955.703569, 526.007346)"><g><path d="M 10.257812 0 L 10.257812 -1.660156 L 3.417969 -1.660156 L 3.417969 -15.257812 L 1.578125 -15.257812 L 1.578125 0 Z M 10.257812 0 "/></g></g></g><g fill="#ffffff" fill-opacity="1"><g transform="translate(968.259407, 526.007346)"><g><path d="M 8.078125 0.199219 C 12.917969 0.199219 15.195312 -3.480469 15.195312 -7.636719 C 15.195312 -11.796875 12.917969 -15.457031 8.078125 -15.457031 C 3.277344 -15.457031 1 -11.796875 1 -7.636719 C 1 -3.480469 3.277344 0.199219 8.078125 0.199219 Z M 8.078125 -1.460938 C 4.699219 -1.460938 2.839844 -4.058594 2.839844 -7.636719 C 2.839844 -11.195312 4.699219 -13.796875 8.078125 -13.796875 C 11.515625 -13.796875 13.355469 -11.195312 13.355469 -7.636719 C 13.355469 -4.058594 11.515625 -1.460938 8.078125 -1.460938 Z M 8.078125 -1.460938 "/></g></g></g><g fill="#ffffff" fill-opacity="1"><g transform="translate(986.473005, 526.007346)"><g><path d="M 8.078125 0.199219 C 12.917969 0.199219 15.195312 -3.480469 15.195312 -7.636719 C 15.195312 -11.796875 12.917969 -15.457031 8.078125 -15.457031 C 3.277344 -15.457031 1 -11.796875 1 -7.636719 C 1 -3.480469 3.277344 0.199219 8.078125 0.199219 Z M 8.078125 -1.460938 C 4.699219 -1.460938 2.839844 -4.058594 2.839844 -7.636719 C 2.839844 -11.195312 4.699219 -13.796875 8.078125 -13.796875 C 11.515625 -13.796875 13.355469 -11.195312 13.355469 -7.636719 C 13.355469 -4.058594 11.515625 -1.460938 8.078125 -1.460938 Z M 8.078125 -1.460938 "/></g></g></g><g fill="#ffffff" fill-opacity="1"><g transform="translate(1004.686608, 526.007346)"><g><path d="M 5.757812 0 C 10.835938 0 13.617188 -2.757812 13.617188 -7.578125 C 13.617188 -12.476562 10.855469 -15.257812 5.777344 -15.257812 L 1.578125 -15.257812 L 1.578125 0 Z M 3.417969 -13.597656 L 5.757812 -13.597656 C 9.296875 -13.597656 11.777344 -12.035156 11.777344 -7.578125 C 11.777344 -2.757812 8.9375 -1.660156 5.738281 -1.660156 L 3.417969 -1.660156 Z M 3.417969 -13.597656 "/></g></g></g><g fill="#ffffff" fill-opacity="1"><g transform="translate(1021.320835, 526.007346)"><g><path d="M 1.28125 3.417969 C 3.378906 3.199219 4.199219 1.597656 4.199219 0.160156 C 4.199219 -1.21875 3.539062 -2.160156 2.480469 -2.160156 C 1.699219 -2.160156 1.199219 -1.640625 1.199219 -0.941406 C 1.199219 -0.238281 1.679688 0.199219 2.238281 0.199219 C 2.660156 0.199219 2.960938 0.0585938 3.140625 -0.238281 C 3.179688 -0.0390625 3.199219 0.160156 3.199219 0.359375 C 3.199219 1.5 2.519531 2.339844 1.28125 2.519531 Z M 1.28125 3.417969 "/></g></g></g><g fill="#ffffff" fill-opacity="1"><g transform="translate(1028.718707, 526.007346)"><g/></g></g><g fill="#ffffff" fill-opacity="1"><g transform="translate(1036.316508, 526.007346)"><g><path d="M 7.097656 0.199219 C 10.578125 0.199219 12.4375 -1.558594 12.4375 -4.257812 C 12.4375 -7.597656 9.699219 -8.179688 7.199219 -8.71875 C 5.160156 -9.15625 3.300781 -9.558594 3.300781 -11.417969 C 3.300781 -12.875 4.378906 -13.816406 6.4375 -13.816406 C 8.117188 -13.816406 9.777344 -13.136719 10.21875 -11.058594 L 11.996094 -11.058594 C 11.496094 -14.195312 9.039062 -15.457031 6.457031 -15.457031 C 3.480469 -15.457031 1.460938 -13.855469 1.460938 -11.257812 C 1.460938 -8.257812 4 -7.71875 6.378906 -7.21875 C 8.539062 -6.757812 10.597656 -6.320312 10.597656 -4.140625 C 10.597656 -2.320312 9.316406 -1.441406 7.179688 -1.441406 C 5.277344 -1.441406 3.179688 -2.179688 2.699219 -4.617188 L 0.839844 -4.617188 C 1.359375 -1.199219 4.078125 0.199219 7.097656 0.199219 Z M 7.097656 0.199219 "/></g></g></g><g fill="#ffffff" fill-opacity="1"><g transform="translate(1051.771204, 526.007346)"><g><path d="M 2.140625 0 L 3.480469 -3.738281 L 10.398438 -3.738281 L 11.738281 0 L 13.597656 0 L 7.976562 -15.257812 L 5.898438 -15.257812 L 0.28125 0 Z M 6.9375 -13.375 L 9.777344 -5.378906 L 4.097656 -5.378906 Z M 6.9375 -13.375 "/></g></g></g><g fill="#ffffff" fill-opacity="1"><g transform="translate(1067.645737, 526.007346)"><g><path d="M 7.976562 0 L 13.597656 -15.257812 L 11.738281 -15.257812 L 6.9375 -1.878906 L 2.140625 -15.257812 L 0.28125 -15.257812 L 5.898438 0 Z M 7.976562 0 "/></g></g></g><g fill="#ffffff" fill-opacity="1"><g transform="translate(1083.52026, 526.007346)"><g><path d="M 11.4375 0 L 11.4375 -1.660156 L 3.417969 -1.660156 L 3.417969 -6.839844 L 10.496094 -6.839844 L 10.496094 -8.476562 L 3.417969 -8.476562 L 3.417969 -13.597656 L 11.4375 -13.597656 L 11.4375 -15.257812 L 1.578125 -15.257812 L 1.578125 0 Z M 11.4375 0 "/></g></g></g><g fill="#ffffff" fill-opacity="1"><g transform="translate(1097.835399, 526.007346)"><g/></g></g><g fill="#ffffff" fill-opacity="1"><g transform="translate(1105.4332, 526.007346)"><g><path d="M 10.257812 0 L 10.257812 -1.660156 L 3.417969 -1.660156 L 3.417969 -15.257812 L 1.578125 -15.257812 L 1.578125 0 Z M 10.257812 0 "/></g></g></g><g fill="#ffffff" fill-opacity="1"><g transform="translate(1117.989039, 526.007346)"><g><path d="M 3.417969 0 L 3.417969 -15.257812 L 1.578125 -15.257812 L 1.578125 0 Z M 3.417969 0 "/></g></g></g><g fill="#ffffff" fill-opacity="1"><g transform="translate(1125.007059, 526.007346)"><g><path d="M 7.976562 0 L 13.597656 -15.257812 L 11.738281 -15.257812 L 6.9375 -1.878906 L 2.140625 -15.257812 L 0.28125 -15.257812 L 5.898438 0 Z M 7.976562 0 "/></g></g></g><g fill="#ffffff" fill-opacity="1"><g transform="translate(1140.881593, 526.007346)"><g><path d="M 11.4375 0 L 11.4375 -1.660156 L 3.417969 -1.660156 L 3.417969 -6.839844 L 10.496094 -6.839844 L 10.496094 -8.476562 L 3.417969 -8.476562 L 3.417969 -13.597656 L 11.4375 -13.597656 L 11.4375 -15.257812 L 1.578125 -15.257812 L 1.578125 0 Z M 11.4375 0 "/></g></g></g><g fill="#ffffff" fill-opacity="1"><g transform="translate(1155.196732, 526.007346)"><g><path d="M 7.097656 0.199219 C 10.578125 0.199219 12.4375 -1.558594 12.4375 -4.257812 C 12.4375 -7.597656 9.699219 -8.179688 7.199219 -8.71875 C 5.160156 -9.15625 3.300781 -9.558594 3.300781 -11.417969 C 3.300781 -12.875 4.378906 -13.816406 6.4375 -13.816406 C 8.117188 -13.816406 9.777344 -13.136719 10.21875 -11.058594 L 11.996094 -11.058594 C 11.496094 -14.195312 9.039062 -15.457031 6.457031 -15.457031 C 3.480469 -15.457031 1.460938 -13.855469 1.460938 -11.257812 C 1.460938 -8.257812 4 -7.71875 6.378906 -7.21875 C 8.539062 -6.757812 10.597656 -6.320312 10.597656 -4.140625 C 10.597656 -2.320312 9.316406 -1.441406 7.179688 -1.441406 C 5.277344 -1.441406 3.179688 -2.179688 2.699219 -4.617188 L 0.839844 -4.617188 C 1.359375 -1.199219 4.078125 0.199219 7.097656 0.199219 Z M 7.097656 0.199219 "/></g></g></g><g fill="#ffffff" fill-opacity="1"><g transform="translate(1170.651427, 526.007346)"><g><path d="M 2.417969 0.199219 C 3.039062 0.199219 3.558594 -0.339844 3.558594 -1 C 3.558594 -1.621094 3.039062 -2.160156 2.417969 -2.160156 C 1.757812 -2.160156 1.199219 -1.640625 1.199219 -1 C 1.199219 -0.339844 1.738281 0.199219 2.417969 0.199219 Z M 2.417969 0.199219 "/></g></g></g><g fill="#ffffff" fill-opacity="1"><g transform="translate(1177.409552, 526.007346)"><g/></g></g><g fill="#ffffff" fill-opacity="1"><g transform="translate(1185.007353, 526.007346)"><g><path d="M 7.71875 0 L 7.71875 -5.839844 L 13.375 -15.257812 L 11.277344 -15.257812 L 6.71875 -7.65625 L 2.21875 -15.257812 L 0.078125 -15.257812 L 5.796875 -5.839844 L 5.796875 0 Z M 7.71875 0 "/></g></g></g><g fill="#ffffff" fill-opacity="1"><g transform="translate(1200.48203, 526.007346)"><g><path d="M 8.078125 0.199219 C 12.917969 0.199219 15.195312 -3.480469 15.195312 -7.636719 C 15.195312 -11.796875 12.917969 -15.457031 8.078125 -15.457031 C 3.277344 -15.457031 1 -11.796875 1 -7.636719 C 1 -3.480469 3.277344 0.199219 8.078125 0.199219 Z M 8.078125 -1.460938 C 4.699219 -1.460938 2.839844 -4.058594 2.839844 -7.636719 C 2.839844 -11.195312 4.699219 -13.796875 8.078125 -13.796875 C 11.515625 -13.796875 13.355469 -11.195312 13.355469 -7.636719 C 13.355469 -4.058594 11.515625 -1.460938 8.078125 -1.460938 Z M 8.078125 -1.460938 "/></g></g></g><g fill="#ffffff" fill-opacity="1"><g transform="translate(1218.695622, 526.007346)"><g><path d="M 7.097656 0.199219 C 10.957031 0.199219 12.757812 -1.898438 12.757812 -5.277344 L 12.757812 -15.257812 L 10.917969 -15.257812 L 10.917969 -5.277344 C 10.917969 -2.898438 9.757812 -1.441406 7.097656 -1.441406 C 4.4375 -1.441406 3.277344 -2.898438 3.277344 -5.277344 L 3.277344 -15.257812 L 1.441406 -15.257812 L 1.441406 -5.277344 C 1.441406 -1.898438 3.238281 0.199219 7.097656 0.199219 Z M 7.097656 0.199219 "/></g></g></g><g fill="#ffffff" fill-opacity="1"><g transform="translate(1234.910022, 526.007346)"><g><path d="M 9.359375 -6.777344 C 11.078125 -7.398438 12.097656 -8.835938 12.097656 -10.898438 C 12.097656 -13.835938 10.175781 -15.257812 7.257812 -15.257812 L 1.578125 -15.257812 L 1.578125 0 L 3.417969 0 L 3.417969 -6.4375 L 7.578125 -6.4375 L 10.277344 0 L 12.296875 0 Z M 3.417969 -8.078125 L 3.417969 -13.597656 L 7.019531 -13.597656 C 9.078125 -13.597656 10.277344 -12.597656 10.277344 -10.835938 C 10.277344 -9.058594 9.117188 -8.078125 7.019531 -8.078125 Z M 3.417969 -8.078125 "/></g></g></g><g fill="#ffffff" fill-opacity="1"><g transform="translate(881.329238, 553.757344)"><g><path d="M 2.140625 0 L 3.480469 -3.738281 L 10.398438 -3.738281 L 11.738281 0 L 13.597656 0 L 7.976562 -15.257812 L 5.898438 -15.257812 L 0.28125 0 Z M 6.9375 -13.375 L 9.777344 -5.378906 L 4.097656 -5.378906 Z M 6.9375 -13.375 "/></g></g></g><g fill="#ffffff" fill-opacity="1"><g transform="translate(897.203771, 553.757344)"><g><path d="M 8.039062 0.199219 C 11.4375 0.199219 13.65625 -1.660156 14.136719 -4.617188 L 12.136719 -4.617188 C 11.757812 -2.519531 10.199219 -1.441406 7.996094 -1.441406 C 4.597656 -1.441406 2.839844 -4.058594 2.839844 -7.636719 C 2.839844 -11.195312 4.597656 -13.816406 7.996094 -13.816406 C 10.199219 -13.816406 11.757812 -12.738281 12.136719 -11.039062 L 14.136719 -11.039062 C 13.675781 -13.636719 11.4375 -15.457031 8.039062 -15.457031 C 3.21875 -15.457031 1 -11.777344 1 -7.636719 C 1 -3.5 3.21875 0.199219 8.039062 0.199219 Z M 8.039062 0.199219 "/></g></g></g><g fill="#ffffff" fill-opacity="1"><g transform="translate(914.15787, 553.757344)"><g><path d="M 7.277344 0 L 7.277344 -13.597656 L 12.457031 -13.597656 L 12.457031 -15.257812 L 0.28125 -15.257812 L 0.28125 -13.597656 L 5.4375 -13.597656 L 5.4375 0 Z M 7.277344 0 "/></g></g></g><g fill="#ffffff" fill-opacity="1"><g transform="translate(928.892844, 553.757344)"><g/></g></g><g fill="#ffffff" fill-opacity="1"><g transform="translate(936.490645, 553.757344)"><g><path d="M 8.078125 0.199219 C 12.917969 0.199219 15.195312 -3.480469 15.195312 -7.636719 C 15.195312 -11.796875 12.917969 -15.457031 8.078125 -15.457031 C 3.277344 -15.457031 1 -11.796875 1 -7.636719 C 1 -3.480469 3.277344 0.199219 8.078125 0.199219 Z M 8.078125 -1.460938 C 4.699219 -1.460938 2.839844 -4.058594 2.839844 -7.636719 C 2.839844 -11.195312 4.699219 -13.796875 8.078125 -13.796875 C 11.515625 -13.796875 13.355469 -11.195312 13.355469 -7.636719 C 13.355469 -4.058594 11.515625 -1.460938 8.078125 -1.460938 Z M 8.078125 -1.460938 "/></g></g></g><g fill="#ffffff" fill-opacity="1"><g transform="translate(954.704248, 553.757344)"><g><path d="M 3.417969 0 L 3.417969 -6.839844 L 10.496094 -6.839844 L 10.496094 -8.476562 L 3.417969 -8.476562 L 3.417969 -13.597656 L 11.4375 -13.597656 L 11.4375 -15.257812 L 1.578125 -15.257812 L 1.578125 0 Z M 3.417969 0 "/></g></g></g><g fill="#ffffff" fill-opacity="1"><g transform="translate(968.719506, 553.757344)"><g/></g></g><g fill="#ffffff" fill-opacity="1"><g transform="translate(976.317307, 553.757344)"><g><path d="M 3.417969 0 L 3.417969 -7.417969 L 10.039062 0 L 12.476562 0 L 5.339844 -7.9375 L 12.117188 -15.257812 L 9.757812 -15.257812 L 3.417969 -8.257812 L 3.417969 -15.257812 L 1.578125 -15.257812 L 1.578125 0 Z M 3.417969 0 "/></g></g></g><g fill="#ffffff" fill-opacity="1"><g transform="translate(990.952325, 553.757344)"><g><path d="M 3.417969 0 L 3.417969 -15.257812 L 1.578125 -15.257812 L 1.578125 0 Z M 3.417969 0 "/></g></g></g><g fill="#ffffff" fill-opacity="1"><g transform="translate(997.970346, 553.757344)"><g><path d="M 3.417969 0 L 3.417969 -13.375 L 10.257812 0 L 12.9375 0 L 12.9375 -15.257812 L 11.117188 -15.257812 L 11.117188 -1.839844 L 4.257812 -15.257812 L 1.578125 -15.257812 L 1.578125 0 Z M 3.417969 0 "/></g></g></g><g fill="#ffffff" fill-opacity="1"><g transform="translate(1014.50462, 553.757344)"><g><path d="M 5.757812 0 C 10.835938 0 13.617188 -2.757812 13.617188 -7.578125 C 13.617188 -12.476562 10.855469 -15.257812 5.777344 -15.257812 L 1.578125 -15.257812 L 1.578125 0 Z M 3.417969 -13.597656 L 5.757812 -13.597656 C 9.296875 -13.597656 11.777344 -12.035156 11.777344 -7.578125 C 11.777344 -2.757812 8.9375 -1.660156 5.738281 -1.660156 L 3.417969 -1.660156 Z M 3.417969 -13.597656 "/></g></g></g><g fill="#ffffff" fill-opacity="1"><g transform="translate(1031.138846, 553.757344)"><g><path d="M 3.417969 0 L 3.417969 -13.375 L 10.257812 0 L 12.9375 0 L 12.9375 -15.257812 L 11.117188 -15.257812 L 11.117188 -1.839844 L 4.257812 -15.257812 L 1.578125 -15.257812 L 1.578125 0 Z M 3.417969 0 "/></g></g></g><g fill="#ffffff" fill-opacity="1"><g transform="translate(1047.673121, 553.757344)"><g><path d="M 11.4375 0 L 11.4375 -1.660156 L 3.417969 -1.660156 L 3.417969 -6.839844 L 10.496094 -6.839844 L 10.496094 -8.476562 L 3.417969 -8.476562 L 3.417969 -13.597656 L 11.4375 -13.597656 L 11.4375 -15.257812 L 1.578125 -15.257812 L 1.578125 0 Z M 11.4375 0 "/></g></g></g><g fill="#ffffff" fill-opacity="1"><g transform="translate(1061.988271, 553.757344)"><g><path d="M 7.097656 0.199219 C 10.578125 0.199219 12.4375 -1.558594 12.4375 -4.257812 C 12.4375 -7.597656 9.699219 -8.179688 7.199219 -8.71875 C 5.160156 -9.15625 3.300781 -9.558594 3.300781 -11.417969 C 3.300781 -12.875 4.378906 -13.816406 6.4375 -13.816406 C 8.117188 -13.816406 9.777344 -13.136719 10.21875 -11.058594 L 11.996094 -11.058594 C 11.496094 -14.195312 9.039062 -15.457031 6.457031 -15.457031 C 3.480469 -15.457031 1.460938 -13.855469 1.460938 -11.257812 C 1.460938 -8.257812 4 -7.71875 6.378906 -7.21875 C 8.539062 -6.757812 10.597656 -6.320312 10.597656 -4.140625 C 10.597656 -2.320312 9.316406 -1.441406 7.179688 -1.441406 C 5.277344 -1.441406 3.179688 -2.179688 2.699219 -4.617188 L 0.839844 -4.617188 C 1.359375 -1.199219 4.078125 0.199219 7.097656 0.199219 Z M 7.097656 0.199219 "/></g></g></g><g fill="#ffffff" fill-opacity="1"><g transform="translate(1077.442967, 553.757344)"><g><path d="M 7.097656 0.199219 C 10.578125 0.199219 12.4375 -1.558594 12.4375 -4.257812 C 12.4375 -7.597656 9.699219 -8.179688 7.199219 -8.71875 C 5.160156 -9.15625 3.300781 -9.558594 3.300781 -11.417969 C 3.300781 -12.875 4.378906 -13.816406 6.4375 -13.816406 C 8.117188 -13.816406 9.777344 -13.136719 10.21875 -11.058594 L 11.996094 -11.058594 C 11.496094 -14.195312 9.039062 -15.457031 6.457031 -15.457031 C 3.480469 -15.457031 1.460938 -13.855469 1.460938 -11.257812 C 1.460938 -8.257812 4 -7.71875 6.378906 -7.21875 C 8.539062 -6.757812 10.597656 -6.320312 10.597656 -4.140625 C 10.597656 -2.320312 9.316406 -1.441406 7.179688 -1.441406 C 5.277344 -1.441406 3.179688 -2.179688 2.699219 -4.617188 L 0.839844 -4.617188 C 1.359375 -1.199219 4.078125 0.199219 7.097656 0.199219 Z M 7.097656 0.199219 "/></g></g></g><g fill="#ffffff" fill-opacity="1"><g transform="translate(1092.897662, 553.757344)"><g/></g></g><g fill="#ffffff" fill-opacity="1"><g transform="translate(1100.495463, 553.757344)"><g><path d="M 8.039062 0.199219 C 11.4375 0.199219 13.65625 -1.660156 14.136719 -4.617188 L 12.136719 -4.617188 C 11.757812 -2.519531 10.199219 -1.441406 7.996094 -1.441406 C 4.597656 -1.441406 2.839844 -4.058594 2.839844 -7.636719 C 2.839844 -11.195312 4.597656 -13.816406 7.996094 -13.816406 C 10.199219 -13.816406 11.757812 -12.738281 12.136719 -11.039062 L 14.136719 -11.039062 C 13.675781 -13.636719 11.4375 -15.457031 8.039062 -15.457031 C 3.21875 -15.457031 1 -11.777344 1 -7.636719 C 1 -3.5 3.21875 0.199219 8.039062 0.199219 Z M 8.039062 0.199219 "/></g></g></g><g fill="#ffffff" fill-opacity="1"><g transform="translate(1117.449564, 553.757344)"><g><path d="M 2.140625 0 L 3.480469 -3.738281 L 10.398438 -3.738281 L 11.738281 0 L 13.597656 0 L 7.976562 -15.257812 L 5.898438 -15.257812 L 0.28125 0 Z M 6.9375 -13.375 L 9.777344 -5.378906 L 4.097656 -5.378906 Z M 6.9375 -13.375 "/></g></g></g><g fill="#ffffff" fill-opacity="1"><g transform="translate(1133.324098, 553.757344)"><g><path d="M 3.417969 0 L 3.417969 -13.375 L 10.257812 0 L 12.9375 0 L 12.9375 -15.257812 L 11.117188 -15.257812 L 11.117188 -1.839844 L 4.257812 -15.257812 L 1.578125 -15.257812 L 1.578125 0 Z M 3.417969 0 "/></g></g></g><g fill="#ffffff" fill-opacity="1"><g transform="translate(1149.858361, 553.757344)"><g/></g></g><g fill="#ffffff" fill-opacity="1"><g transform="translate(1157.456161, 553.757344)"><g><path d="M 3.417969 0 L 3.417969 -14.054688 L 8.078125 0 L 9.898438 0 L 14.554688 -14.15625 L 14.554688 0 L 16.394531 0 L 16.394531 -15.257812 L 13.078125 -15.257812 L 8.976562 -2.28125 L 4.878906 -15.257812 L 1.578125 -15.257812 L 1.578125 0 Z M 3.417969 0 "/></g></g></g><g fill="#ffffff" fill-opacity="1"><g transform="translate(1177.429076, 553.757344)"><g><path d="M 2.140625 0 L 3.480469 -3.738281 L 10.398438 -3.738281 L 11.738281 0 L 13.597656 0 L 7.976562 -15.257812 L 5.898438 -15.257812 L 0.28125 0 Z M 6.9375 -13.375 L 9.777344 -5.378906 L 4.097656 -5.378906 Z M 6.9375 -13.375 "/></g></g></g><g fill="#ffffff" fill-opacity="1"><g transform="translate(1193.30361, 553.757344)"><g><path d="M 3.417969 0 L 3.417969 -7.417969 L 10.039062 0 L 12.476562 0 L 5.339844 -7.9375 L 12.117188 -15.257812 L 9.757812 -15.257812 L 3.417969 -8.257812 L 3.417969 -15.257812 L 1.578125 -15.257812 L 1.578125 0 Z M 3.417969 0 "/></g></g></g><g fill="#ffffff" fill-opacity="1"><g transform="translate(1207.938634, 553.757344)"><g><path d="M 11.4375 0 L 11.4375 -1.660156 L 3.417969 -1.660156 L 3.417969 -6.839844 L 10.496094 -6.839844 L 10.496094 -8.476562 L 3.417969 -8.476562 L 3.417969 -13.597656 L 11.4375 -13.597656 L 11.4375 -15.257812 L 1.578125 -15.257812 L 1.578125 0 Z M 11.4375 0 "/></g></g></g><g fill="#ffffff" fill-opacity="1"><g transform="translate(1222.253773, 553.757344)"><g/></g></g><g fill="#ffffff" fill-opacity="1"><g transform="translate(1229.851574, 553.757344)"><g><path d="M 2.140625 0 L 3.480469 -3.738281 L 10.398438 -3.738281 L 11.738281 0 L 13.597656 0 L 7.976562 -15.257812 L 5.898438 -15.257812 L 0.28125 0 Z M 6.9375 -13.375 L 9.777344 -5.378906 L 4.097656 -5.378906 Z M 6.9375 -13.375 "/></g></g></g><g fill="#ffffff" fill-opacity="1"><g transform="translate(921.747209, 581.507343)"><g><path d="M 7 0 L 10.738281 -12.257812 L 14.476562 0 L 16.554688 0 L 21.074219 -15.257812 L 19.15625 -15.257812 L 15.394531 -2.621094 L 11.617188 -15.257812 L 9.859375 -15.257812 L 6.097656 -2.640625 L 2.320312 -15.257812 L 0.398438 -15.257812 L 4.917969 0 Z M 7 0 "/></g></g></g><g fill="#ffffff" fill-opacity="1"><g transform="translate(945.218741, 581.507343)"><g><path d="M 8.078125 0.199219 C 12.917969 0.199219 15.195312 -3.480469 15.195312 -7.636719 C 15.195312 -11.796875 12.917969 -15.457031 8.078125 -15.457031 C 3.277344 -15.457031 1 -11.796875 1 -7.636719 C 1 -3.480469 3.277344 0.199219 8.078125 0.199219 Z M 8.078125 -1.460938 C 4.699219 -1.460938 2.839844 -4.058594 2.839844 -7.636719 C 2.839844 -11.195312 4.699219 -13.796875 8.078125 -13.796875 C 11.515625 -13.796875 13.355469 -11.195312 13.355469 -7.636719 C 13.355469 -4.058594 11.515625 -1.460938 8.078125 -1.460938 Z M 8.078125 -1.460938 "/></g></g></g><g fill="#ffffff" fill-opacity="1"><g transform="translate(963.432343, 581.507343)"><g><path d="M 9.359375 -6.777344 C 11.078125 -7.398438 12.097656 -8.835938 12.097656 -10.898438 C 12.097656 -13.835938 10.175781 -15.257812 7.257812 -15.257812 L 1.578125 -15.257812 L 1.578125 0 L 3.417969 0 L 3.417969 -6.4375 L 7.578125 -6.4375 L 10.277344 0 L 12.296875 0 Z M 3.417969 -8.078125 L 3.417969 -13.597656 L 7.019531 -13.597656 C 9.078125 -13.597656 10.277344 -12.597656 10.277344 -10.835938 C 10.277344 -9.058594 9.117188 -8.078125 7.019531 -8.078125 Z M 3.417969 -8.078125 "/></g></g></g><g fill="#ffffff" fill-opacity="1"><g transform="translate(978.62714, 581.507343)"><g><path d="M 10.257812 0 L 10.257812 -1.660156 L 3.417969 -1.660156 L 3.417969 -15.257812 L 1.578125 -15.257812 L 1.578125 0 Z M 10.257812 0 "/></g></g></g><g fill="#ffffff" fill-opacity="1"><g transform="translate(991.182979, 581.507343)"><g><path d="M 5.757812 0 C 10.835938 0 13.617188 -2.757812 13.617188 -7.578125 C 13.617188 -12.476562 10.855469 -15.257812 5.777344 -15.257812 L 1.578125 -15.257812 L 1.578125 0 Z M 3.417969 -13.597656 L 5.757812 -13.597656 C 9.296875 -13.597656 11.777344 -12.035156 11.777344 -7.578125 C 11.777344 -2.757812 8.9375 -1.660156 5.738281 -1.660156 L 3.417969 -1.660156 Z M 3.417969 -13.597656 "/></g></g></g><g fill="#ffffff" fill-opacity="1"><g transform="translate(1007.817206, 581.507343)"><g/></g></g><g fill="#ffffff" fill-opacity="1"><g transform="translate(1015.415006, 581.507343)"><g><path d="M 8.078125 0.199219 C 12.917969 0.199219 15.195312 -3.480469 15.195312 -7.636719 C 15.195312 -11.796875 12.917969 -15.457031 8.078125 -15.457031 C 3.277344 -15.457031 1 -11.796875 1 -7.636719 C 1 -3.480469 3.277344 0.199219 8.078125 0.199219 Z M 8.078125 -1.460938 C 4.699219 -1.460938 2.839844 -4.058594 2.839844 -7.636719 C 2.839844 -11.195312 4.699219 -13.796875 8.078125 -13.796875 C 11.515625 -13.796875 13.355469 -11.195312 13.355469 -7.636719 C 13.355469 -4.058594 11.515625 -1.460938 8.078125 -1.460938 Z M 8.078125 -1.460938 "/></g></g></g><g fill="#ffffff" fill-opacity="1"><g transform="translate(1033.628604, 581.507343)"><g><path d="M 3.417969 0 L 3.417969 -6.839844 L 10.496094 -6.839844 L 10.496094 -8.476562 L 3.417969 -8.476562 L 3.417969 -13.597656 L 11.4375 -13.597656 L 11.4375 -15.257812 L 1.578125 -15.257812 L 1.578125 0 Z M 3.417969 0 "/></g></g></g><g fill="#ffffff" fill-opacity="1"><g transform="translate(1047.643862, 581.507343)"><g/></g></g><g fill="#ffffff" fill-opacity="1"><g transform="translate(1055.241663, 581.507343)"><g><path d="M 5.757812 0 C 10.835938 0 13.617188 -2.757812 13.617188 -7.578125 C 13.617188 -12.476562 10.855469 -15.257812 5.777344 -15.257812 L 1.578125 -15.257812 L 1.578125 0 Z M 3.417969 -13.597656 L 5.757812 -13.597656 C 9.296875 -13.597656 11.777344 -12.035156 11.777344 -7.578125 C 11.777344 -2.757812 8.9375 -1.660156 5.738281 -1.660156 L 3.417969 -1.660156 Z M 3.417969 -13.597656 "/></g></g></g><g fill="#ffffff" fill-opacity="1"><g transform="translate(1071.87589, 581.507343)"><g><path d="M 3.417969 0 L 3.417969 -15.257812 L 1.578125 -15.257812 L 1.578125 0 Z M 3.417969 0 "/></g></g></g><g fill="#ffffff" fill-opacity="1"><g transform="translate(1078.89391, 581.507343)"><g><path d="M 3.417969 0 L 3.417969 -6.839844 L 10.496094 -6.839844 L 10.496094 -8.476562 L 3.417969 -8.476562 L 3.417969 -13.597656 L 11.4375 -13.597656 L 11.4375 -15.257812 L 1.578125 -15.257812 L 1.578125 0 Z M 3.417969 0 "/></g></g></g><g fill="#ffffff" fill-opacity="1"><g transform="translate(1092.909168, 581.507343)"><g><path d="M 3.417969 0 L 3.417969 -6.839844 L 10.496094 -6.839844 L 10.496094 -8.476562 L 3.417969 -8.476562 L 3.417969 -13.597656 L 11.4375 -13.597656 L 11.4375 -15.257812 L 1.578125 -15.257812 L 1.578125 0 Z M 3.417969 0 "/></g></g></g><g fill="#ffffff" fill-opacity="1"><g transform="translate(1106.924427, 581.507343)"><g><path d="M 11.4375 0 L 11.4375 -1.660156 L 3.417969 -1.660156 L 3.417969 -6.839844 L 10.496094 -6.839844 L 10.496094 -8.476562 L 3.417969 -8.476562 L 3.417969 -13.597656 L 11.4375 -13.597656 L 11.4375 -15.257812 L 1.578125 -15.257812 L 1.578125 0 Z M 11.4375 0 "/></g></g></g><g fill="#ffffff" fill-opacity="1"><g transform="translate(1121.239577, 581.507343)"><g><path d="M 9.359375 -6.777344 C 11.078125 -7.398438 12.097656 -8.835938 12.097656 -10.898438 C 12.097656 -13.835938 10.175781 -15.257812 7.257812 -15.257812 L 1.578125 -15.257812 L 1.578125 0 L 3.417969 0 L 3.417969 -6.4375 L 7.578125 -6.4375 L 10.277344 0 L 12.296875 0 Z M 3.417969 -8.078125 L 3.417969 -13.597656 L 7.019531 -13.597656 C 9.078125 -13.597656 10.277344 -12.597656 10.277344 -10.835938 C 10.277344 -9.058594 9.117188 -8.078125 7.019531 -8.078125 Z M 3.417969 -8.078125 "/></g></g></g><g fill="#ffffff" fill-opacity="1"><g transform="translate(1136.434377, 581.507343)"><g><path d="M 11.4375 0 L 11.4375 -1.660156 L 3.417969 -1.660156 L 3.417969 -6.839844 L 10.496094 -6.839844 L 10.496094 -8.476562 L 3.417969 -8.476562 L 3.417969 -13.597656 L 11.4375 -13.597656 L 11.4375 -15.257812 L 1.578125 -15.257812 L 1.578125 0 Z M 11.4375 0 "/></g></g></g><g fill="#ffffff" fill-opacity="1"><g transform="translate(1150.749516, 581.507343)"><g><path d="M 3.417969 0 L 3.417969 -13.375 L 10.257812 0 L 12.9375 0 L 12.9375 -15.257812 L 11.117188 -15.257812 L 11.117188 -1.839844 L 4.257812 -15.257812 L 1.578125 -15.257812 L 1.578125 0 Z M 3.417969 0 "/></g></g></g><g fill="#ffffff" fill-opacity="1"><g transform="translate(1167.283779, 581.507343)"><g><path d="M 8.039062 0.199219 C 11.4375 0.199219 13.65625 -1.660156 14.136719 -4.617188 L 12.136719 -4.617188 C 11.757812 -2.519531 10.199219 -1.441406 7.996094 -1.441406 C 4.597656 -1.441406 2.839844 -4.058594 2.839844 -7.636719 C 2.839844 -11.195312 4.597656 -13.816406 7.996094 -13.816406 C 10.199219 -13.816406 11.757812 -12.738281 12.136719 -11.039062 L 14.136719 -11.039062 C 13.675781 -13.636719 11.4375 -15.457031 8.039062 -15.457031 C 3.21875 -15.457031 1 -11.777344 1 -7.636719 C 1 -3.5 3.21875 0.199219 8.039062 0.199219 Z M 8.039062 0.199219 "/></g></g></g><g fill="#ffffff" fill-opacity="1"><g transform="translate(1184.23788, 581.507343)"><g><path d="M 11.4375 0 L 11.4375 -1.660156 L 3.417969 -1.660156 L 3.417969 -6.839844 L 10.496094 -6.839844 L 10.496094 -8.476562 L 3.417969 -8.476562 L 3.417969 -13.597656 L 11.4375 -13.597656 L 11.4375 -15.257812 L 1.578125 -15.257812 L 1.578125 0 Z M 11.4375 0 "/></g></g></g><g fill="#ffffff" fill-opacity="1"><g transform="translate(1198.553019, 581.507343)"><g><path d="M 2.417969 0.199219 C 3.039062 0.199219 3.558594 -0.339844 3.558594 -1 C 3.558594 -1.621094 3.039062 -2.160156 2.417969 -2.160156 C 1.757812 -2.160156 1.199219 -1.640625 1.199219 -1 C 1.199219 -0.339844 1.738281 0.199219 2.417969 0.199219 Z M 2.417969 0.199219 "/></g></g></g><g fill="#ffffff" fill-opacity="1"><g transform="translate(866.435012, 676.40101)"><g><path d="M 7.738281 0 L 10.007812 -10.636719 L 12.292969 0 L 16.164062 0 L 19.765625 -13.734375 L 17.046875 -13.734375 L 14.21875 -2.320312 L 11.664062 -13.734375 L 8.371094 -13.734375 L 5.8125 -2.339844 L 2.988281 -13.734375 L 0.269531 -13.734375 L 3.851562 0 Z M 7.738281 0 "/></g></g></g><g fill="#ffffff" fill-opacity="1"><g transform="translate(891.310976, 676.40101)"><g><path d="M 7.738281 0 L 10.007812 -10.636719 L 12.292969 0 L 16.164062 0 L 19.765625 -13.734375 L 17.046875 -13.734375 L 14.21875 -2.320312 L 11.664062 -13.734375 L 8.371094 -13.734375 L 5.8125 -2.339844 L 2.988281 -13.734375 L 0.269531 -13.734375 L 3.851562 0 Z M 7.738281 0 "/></g></g></g><g fill="#ffffff" fill-opacity="1"><g transform="translate(916.186939, 676.40101)"><g><path d="M 7.738281 0 L 10.007812 -10.636719 L 12.292969 0 L 16.164062 0 L 19.765625 -13.734375 L 17.046875 -13.734375 L 14.21875 -2.320312 L 11.664062 -13.734375 L 8.371094 -13.734375 L 5.8125 -2.339844 L 2.988281 -13.734375 L 0.269531 -13.734375 L 3.851562 0 Z M 7.738281 0 "/></g></g></g><g fill="#ffffff" fill-opacity="1"><g transform="translate(941.062903, 676.40101)"><g><path d="M 2.230469 0.199219 C 2.988281 0.199219 3.636719 -0.449219 3.636719 -1.261719 C 3.636719 -2.015625 2.988281 -2.683594 2.230469 -2.683594 C 1.441406 -2.683594 0.757812 -2.035156 0.757812 -1.261719 C 0.757812 -0.449219 1.421875 0.199219 2.230469 0.199219 Z M 2.230469 0.199219 "/></g></g></g><g fill="#ffffff" fill-opacity="1"><g transform="translate(950.314913, 676.40101)"><g><path d="M 9.34375 -5.957031 C 10.675781 -6.589844 11.503906 -7.882812 11.503906 -9.683594 C 11.503906 -12.527344 9.71875 -13.734375 7.144531 -13.734375 L 1.222656 -13.734375 L 1.222656 0 L 3.816406 0 L 3.816406 -5.488281 L 6.875 -5.488281 L 9.054688 0 L 11.808594 0 Z M 6.785156 -11.410156 C 8.152344 -11.410156 8.929688 -10.765625 8.929688 -9.59375 C 8.929688 -8.386719 8.171875 -7.757812 6.785156 -7.757812 L 3.816406 -7.757812 L 3.816406 -11.410156 Z M 6.785156 -11.410156 "/></g></g></g><g fill="#ffffff" fill-opacity="1"><g transform="translate(967.576894, 676.40101)"><g><path d="M 10.386719 0 L 10.386719 -2.320312 L 3.816406 -2.320312 L 3.816406 -5.722656 L 9.703125 -5.722656 L 9.703125 -8.027344 L 3.816406 -8.027344 L 3.816406 -11.410156 L 10.386719 -11.410156 L 10.386719 -13.734375 L 1.222656 -13.734375 L 1.222656 0 Z M 10.386719 0 "/></g></g></g><g fill="#ffffff" fill-opacity="1"><g transform="translate(983.614883, 676.40101)"><g><path d="M 2.84375 0 L 3.761719 -2.824219 L 9 -2.824219 L 9.9375 0 L 12.652344 0 L 7.8125 -13.734375 L 4.96875 -13.734375 L 0.125 0 Z M 6.390625 -10.90625 L 8.28125 -5.09375 L 4.5 -5.09375 Z M 6.390625 -10.90625 "/></g></g></g><g fill="#ffffff" fill-opacity="1"><g transform="translate(1001.254863, 676.40101)"><g><path d="M 9.628906 0 L 9.628906 -2.320312 L 3.816406 -2.320312 L 3.816406 -13.734375 L 1.222656 -13.734375 L 1.222656 0 Z M 9.628906 0 "/></g></g></g><g fill="#ffffff" fill-opacity="1"><g transform="translate(1015.94285, 676.40101)"><g><path d="M 9.628906 0 L 9.628906 -2.320312 L 3.816406 -2.320312 L 3.816406 -13.734375 L 1.222656 -13.734375 L 1.222656 0 Z M 9.628906 0 "/></g></g></g><g fill="#ffffff" fill-opacity="1"><g transform="translate(1030.630837, 676.40101)"><g><path d="M 7.667969 0 L 7.667969 -5.382812 L 12.652344 -13.734375 L 9.648438 -13.734375 L 6.300781 -7.902344 L 2.96875 -13.734375 L -0.0546875 -13.734375 L 4.949219 -5.382812 L 4.949219 0 Z M 7.667969 0 "/></g></g></g><g fill="#ffffff" fill-opacity="1"><g transform="translate(1048.090825, 676.40101)"><g><path d="M 7.398438 0.253906 C 8.855469 0.253906 10.441406 -0.179688 11.394531 -1.546875 L 11.394531 0 L 13.753906 0 L 13.753906 -7.46875 L 8.136719 -7.46875 L 8.136719 -5.328125 L 11.179688 -5.328125 C 11.125 -3.167969 9.773438 -2.070312 7.613281 -2.070312 C 4.804688 -2.070312 3.402344 -4.121094 3.402344 -6.894531 C 3.402344 -9.574219 4.753906 -11.664062 7.378906 -11.664062 C 9.199219 -11.664062 10.332031 -10.855469 10.78125 -9.433594 L 13.625 -9.433594 C 13.066406 -12.148438 10.945312 -13.984375 7.398438 -13.984375 C 2.789062 -13.984375 0.703125 -10.621094 0.703125 -6.875 C 0.703125 -3.132812 2.789062 0.253906 7.398438 0.253906 Z M 7.398438 0.253906 "/></g></g></g><g fill="#ffffff" fill-opacity="1"><g transform="translate(1067.692813, 676.40101)"><g><path d="M 9.34375 -5.957031 C 10.675781 -6.589844 11.503906 -7.882812 11.503906 -9.683594 C 11.503906 -12.527344 9.71875 -13.734375 7.144531 -13.734375 L 1.222656 -13.734375 L 1.222656 0 L 3.816406 0 L 3.816406 -5.488281 L 6.875 -5.488281 L 9.054688 0 L 11.808594 0 Z M 6.785156 -11.410156 C 8.152344 -11.410156 8.929688 -10.765625 8.929688 -9.59375 C 8.929688 -8.386719 8.171875 -7.757812 6.785156 -7.757812 L 3.816406 -7.757812 L 3.816406 -11.410156 Z M 6.785156 -11.410156 "/></g></g></g><g fill="#ffffff" fill-opacity="1"><g transform="translate(1084.954805, 676.40101)"><g><path d="M 10.386719 0 L 10.386719 -2.320312 L 3.816406 -2.320312 L 3.816406 -5.722656 L 9.703125 -5.722656 L 9.703125 -8.027344 L 3.816406 -8.027344 L 3.816406 -11.410156 L 10.386719 -11.410156 L 10.386719 -13.734375 L 1.222656 -13.734375 L 1.222656 0 Z M 10.386719 0 "/></g></g></g><g fill="#ffffff" fill-opacity="1"><g transform="translate(1100.992784, 676.40101)"><g><path d="M 2.84375 0 L 3.761719 -2.824219 L 9 -2.824219 L 9.9375 0 L 12.652344 0 L 7.8125 -13.734375 L 4.96875 -13.734375 L 0.125 0 Z M 6.390625 -10.90625 L 8.28125 -5.09375 L 4.5 -5.09375 Z M 6.390625 -10.90625 "/></g></g></g><g fill="#ffffff" fill-opacity="1"><g transform="translate(1118.632751, 676.40101)"><g><path d="M 6.964844 0 L 6.964844 -11.410156 L 11.140625 -11.410156 L 11.140625 -13.734375 L 0.179688 -13.734375 L 0.179688 -11.410156 L 4.375 -11.410156 L 4.375 0 Z M 6.964844 0 "/></g></g></g><g fill="#ffffff" fill-opacity="1"><g transform="translate(1134.832732, 676.40101)"><g><path d="M 6.679688 0.253906 C 9.917969 0.253906 11.808594 -1.386719 11.808594 -3.976562 C 11.808594 -7.09375 9.089844 -7.703125 6.804688 -8.207031 C 5.128906 -8.585938 3.652344 -8.910156 3.652344 -10.171875 C 3.652344 -11.214844 4.589844 -11.773438 5.886719 -11.773438 C 7.289062 -11.773438 8.460938 -11.105469 8.800781 -9.648438 L 11.449219 -9.648438 C 11.015625 -12.617188 8.585938 -13.984375 5.941406 -13.984375 C 3.167969 -13.984375 1.078125 -12.601562 1.078125 -9.953125 C 1.078125 -7.054688 3.636719 -6.496094 5.886719 -5.992188 C 7.632812 -5.617188 9.199219 -5.273438 9.199219 -3.851562 C 9.199219 -2.539062 8.117188 -1.960938 6.695312 -1.960938 C 5.257812 -1.960938 3.761719 -2.503906 3.3125 -4.464844 L 0.628906 -4.464844 C 0.972656 -0.917969 4.03125 0.253906 6.679688 0.253906 Z M 6.679688 0.253906 "/></g></g></g><g fill="#ffffff" fill-opacity="1"><g transform="translate(1152.220702, 676.40101)"><g><path d="M 3.816406 0 L 3.816406 -13.734375 L 1.222656 -13.734375 L 1.222656 0 Z M 3.816406 0 "/></g></g></g><g fill="#ffffff" fill-opacity="1"><g transform="translate(1162.12071, 676.40101)"><g><path d="M 6.964844 0 L 6.964844 -11.410156 L 11.140625 -11.410156 L 11.140625 -13.734375 L 0.179688 -13.734375 L 0.179688 -11.410156 L 4.375 -11.410156 L 4.375 0 Z M 6.964844 0 "/></g></g></g><g fill="#ffffff" fill-opacity="1"><g transform="translate(1178.320691, 676.40101)"><g><path d="M 10.386719 0 L 10.386719 -2.320312 L 3.816406 -2.320312 L 3.816406 -5.722656 L 9.703125 -5.722656 L 9.703125 -8.027344 L 3.816406 -8.027344 L 3.816406 -11.410156 L 10.386719 -11.410156 L 10.386719 -13.734375 L 1.222656 -13.734375 L 1.222656 0 Z M 10.386719 0 "/></g></g></g><g fill="#ffffff" fill-opacity="1"><g transform="translate(1194.35867, 676.40101)"><g><path d="M 2.230469 0.199219 C 2.988281 0.199219 3.636719 -0.449219 3.636719 -1.261719 C 3.636719 -2.015625 2.988281 -2.683594 2.230469 -2.683594 C 1.441406 -2.683594 0.757812 -2.035156 0.757812 -1.261719 C 0.757812 -0.449219 1.421875 0.199219 2.230469 0.199219 Z M 2.230469 0.199219 "/></g></g></g><g fill="#ffffff" fill-opacity="1"><g transform="translate(1203.610668, 676.40101)"><g><path d="M 7.363281 0.253906 C 10.746094 0.253906 12.816406 -1.621094 13.195312 -4.464844 L 10.367188 -4.464844 C 10.097656 -2.84375 8.910156 -2.070312 7.289062 -2.070312 C 4.769531 -2.070312 3.402344 -4.015625 3.402344 -6.875 C 3.402344 -9.71875 4.769531 -11.664062 7.289062 -11.664062 C 8.910156 -11.664062 10.117188 -10.890625 10.367188 -9.433594 L 13.195312 -9.433594 C 12.816406 -12.132812 10.746094 -13.984375 7.363281 -13.984375 C 2.808594 -13.984375 0.703125 -10.675781 0.703125 -6.875 C 0.703125 -3.078125 2.808594 0.253906 7.363281 0.253906 Z M 7.363281 0.253906 "/></g></g></g><g fill="#ffffff" fill-opacity="1"><g transform="translate(1222.276645, 676.40101)"><g><path d="M 7.363281 0.253906 C 11.914062 0.253906 14.039062 -3.078125 14.039062 -6.875 C 14.039062 -10.675781 11.914062 -13.984375 7.363281 -13.984375 C 2.824219 -13.984375 0.703125 -10.675781 0.703125 -6.875 C 0.703125 -3.078125 2.824219 0.253906 7.363281 0.253906 Z M 7.363281 -2.070312 C 4.859375 -2.070312 3.402344 -4.015625 3.402344 -6.875 C 3.402344 -9.71875 4.859375 -11.644531 7.363281 -11.644531 C 9.898438 -11.644531 11.339844 -9.71875 11.339844 -6.875 C 11.339844 -4.015625 9.898438 -2.070312 7.363281 -2.070312 Z M 7.363281 -2.070312 "/></g></g></g><g fill="#ffffff" fill-opacity="1"><g transform="translate(1241.896623, 676.40101)"><g><path d="M 3.816406 0 L 3.816406 -11.71875 L 7.09375 0 L 9.628906 0 L 12.90625 -11.789062 L 12.90625 0 L 15.496094 0 L 15.496094 -13.734375 L 11.179688 -13.734375 L 8.351562 -3.132812 L 5.507812 -13.734375 L 1.222656 -13.734375 L 1.222656 0 Z M 3.816406 0 "/></g></g></g><g clip-path="url(#de78f0c0dd)"><path fill="#ed4557" d="M -12.535156 83.59375 L 19.230469 83.59375 L 19.230469 51.664062 L 46.015625 51.664062 L 46.015625 83.59375 L 77.941406 83.59375 L 77.941406 110.378906 L 46.015625 110.378906 L 46.015625 142.144531 L 19.230469 142.144531 L 19.230469 110.378906 L -12.535156 110.378906 Z M 103.238281 190.976562 L 123.363281 190.976562 L 123.363281 170.742188 L 140.339844 170.742188 L 140.339844 190.976562 L 160.570312 190.976562 L 160.570312 207.945312 L 140.339844 207.945312 L 140.339844 228.078125 L 123.363281 228.078125 L 123.363281 207.945312 L 103.238281 207.945312 Z M 145.011719 2.796875 L 165.136719 2.796875 L 165.136719 -17.4375 L 182.113281 -17.4375 L 182.113281 2.796875 L 202.34375 2.796875 L 202.34375 19.769531 L 182.113281 19.769531 L 182.113281 39.898438 L 165.136719 39.898438 L 165.136719 19.769531 L 145.011719 19.769531 Z M -112.390625 241.898438 L -92.265625 241.898438 L -92.265625 221.664062 L -75.289062 221.664062 L -75.289062 241.898438 L -55.058594 241.898438 L -55.058594 258.871094 L -75.289062 258.871094 L -75.289062 279 L -92.265625 279 L -92.265625 258.871094 L -112.390625 258.871094 Z M -78.972656 17.515625 L -65.96875 17.515625 L -65.96875 4.445312 L -55 4.445312 L -55 17.515625 L -41.929688 17.515625 L -41.929688 28.484375 L -55 28.484375 L -55 41.492188 L -65.96875 41.492188 L -65.96875 28.484375 L -78.972656 28.484375 Z M 50.722656 308.734375 L 63.726562 308.734375 L 63.726562 295.664062 L 74.695312 295.664062 L 74.695312 308.734375 L 87.765625 308.734375 L 87.765625 319.703125 L 74.695312 319.703125 L 74.695312 332.710938 L 63.726562 332.710938 L 63.726562 319.703125 L 50.722656 319.703125 Z M 50.722656 308.734375 " fill-opacity="1" fill-rule="nonzero"/></g><g clip-path="url(#4d4c73bb68)"><g clip-path="url(#2c87e1258c)"><g clip-path="url(#15d15319e2)"><path fill="#556069" d="M 152.769531 648.796875 L 147.378906 661.625 L 160.273438 667.046875 L 155.722656 677.863281 L 142.828125 672.441406 L 137.40625 685.335938 L 126.589844 680.785156 L 132.011719 667.890625 L 119.183594 662.5 L 123.730469 651.679688 L 136.558594 657.074219 L 141.953125 644.246094 Z M 89.746094 677.316406 L 86.328125 685.445312 L 94.5 688.878906 L 91.617188 695.734375 L 83.445312 692.300781 L 80.011719 700.46875 L 73.15625 697.585938 L 76.589844 689.417969 L 68.460938 686 L 71.34375 679.144531 L 79.472656 682.5625 L 82.890625 674.433594 Z M 158.648438 726.140625 L 155.230469 734.269531 L 163.402344 737.703125 L 160.519531 744.558594 L 152.347656 741.125 L 148.910156 749.292969 L 142.058594 746.410156 L 145.492188 738.242188 L 137.363281 734.824219 L 140.246094 727.96875 L 148.375 731.386719 L 151.792969 723.257812 Z M 105.796875 581.585938 L 102.378906 589.714844 L 110.550781 593.152344 L 107.667969 600.007812 L 99.496094 596.570312 L 96.0625 604.738281 L 89.207031 601.859375 L 92.644531 593.6875 L 84.511719 590.269531 L 87.394531 583.414062 L 95.523438 586.832031 L 98.941406 578.703125 Z M 190.738281 633.183594 L 188.53125 638.4375 L 193.808594 640.65625 L 191.945312 645.085938 L 186.667969 642.867188 L 184.449219 648.144531 L 180.019531 646.28125 L 182.238281 641.003906 L 176.984375 638.796875 L 178.847656 634.367188 L 184.101562 636.574219 L 186.308594 631.324219 Z M 51.105469 636.109375 L 48.898438 641.363281 L 54.175781 643.582031 L 52.316406 648.011719 L 47.035156 645.792969 L 44.816406 651.070312 L 40.386719 649.207031 L 42.605469 643.929688 L 37.351562 641.722656 L 39.214844 637.292969 L 44.46875 639.5 L 46.675781 634.246094 Z M 51.105469 636.109375 " fill-opacity="1" fill-rule="nonzero"/></g></g></g><g clip-path="url(#50111c3b7b)"><path fill="#ed4557" d="M 1391.4375 190.785156 L 1425.945312 190.785156 L 1425.945312 156.097656 L 1455.042969 156.097656 L 1455.042969 190.785156 L 1489.730469 190.785156 L 1489.730469 219.886719 L 1455.042969 219.886719 L 1455.042969 254.394531 L 1425.945312 254.394531 L 1425.945312 219.886719 L 1391.4375 219.886719 Z M 1517.207031 307.441406 L 1539.074219 307.441406 L 1539.074219 285.460938 L 1557.515625 285.460938 L 1557.515625 307.441406 L 1579.492188 307.441406 L 1579.492188 325.878906 L 1557.515625 325.878906 L 1557.515625 347.75 L 1539.074219 347.75 L 1539.074219 325.878906 L 1517.207031 325.878906 Z M 1562.589844 103.007812 L 1584.457031 103.007812 L 1584.457031 81.027344 L 1602.898438 81.027344 L 1602.898438 103.007812 L 1624.875 103.007812 L 1624.875 121.445312 L 1602.898438 121.445312 L 1602.898438 143.316406 L 1584.457031 143.316406 L 1584.457031 121.445312 L 1562.589844 121.445312 Z M 1282.953125 362.765625 L 1304.820312 362.765625 L 1304.820312 340.78125 L 1323.261719 340.78125 L 1323.261719 362.765625 L 1345.238281 362.765625 L 1345.238281 381.203125 L 1323.261719 381.203125 L 1323.261719 403.070312 L 1304.820312 403.070312 L 1304.820312 381.203125 L 1282.953125 381.203125 Z M 1319.257812 119 L 1333.386719 119 L 1333.386719 104.796875 L 1345.304688 104.796875 L 1345.304688 119 L 1359.5 119 L 1359.5 130.917969 L 1345.304688 130.917969 L 1345.304688 145.046875 L 1333.386719 145.046875 L 1333.386719 130.917969 L 1319.257812 130.917969 Z M 1460.15625 435.375 L 1474.285156 435.375 L 1474.285156 421.171875 L 1486.203125 421.171875 L 1486.203125 435.375 L 1500.398438 435.375 L 1500.398438 447.289062 L 1486.203125 447.289062 L 1486.203125 461.417969 L 1474.285156 461.417969 L 1474.285156 447.289062 L 1460.15625 447.289062 Z M 1460.15625 435.375 " fill-opacity="1" fill-rule="nonzero"/></g><g clip-path="url(#1e2bbef71c)"><g clip-path="url(#2787df0a11)"><g clip-path="url(#c5299f3382)"><path fill="#556069" d="M 926.796875 503.183594 L 921.402344 516.011719 L 934.300781 521.433594 L 929.75 532.25 L 916.855469 526.828125 L 911.433594 539.722656 L 900.617188 535.175781 L 906.039062 522.28125 L 893.210938 516.886719 L 897.757812 506.070312 L 910.585938 511.464844 L 915.980469 498.636719 Z M 863.773438 531.703125 L 860.355469 539.832031 L 868.527344 543.269531 L 865.644531 550.125 L 857.472656 546.6875 L 854.039062 554.859375 L 847.183594 551.976562 L 850.617188 543.804688 L 842.488281 540.386719 L 845.371094 533.53125 L 853.5 536.949219 L 856.917969 528.820312 Z M 932.675781 580.527344 L 929.257812 588.65625 L 937.429688 592.09375 L 934.546875 598.949219 L 926.375 595.511719 L 922.9375 603.683594 L 916.085938 600.800781 L 919.519531 592.628906 L 911.390625 589.210938 L 914.273438 582.355469 L 922.402344 585.773438 L 925.820312 577.648438 Z M 879.824219 435.976562 L 876.40625 444.101562 L 884.578125 447.539062 L 881.695312 454.394531 L 873.523438 450.957031 L 870.089844 459.128906 L 863.234375 456.246094 L 866.667969 448.078125 L 858.539062 444.660156 L 861.421875 437.800781 L 869.550781 441.222656 L 872.96875 433.09375 Z M 964.765625 487.574219 L 962.558594 492.824219 L 967.835938 495.046875 L 965.972656 499.476562 L 960.695312 497.253906 L 958.476562 502.535156 L 954.046875 500.671875 L 956.265625 495.394531 L 951.011719 493.183594 L 952.875 488.753906 L 958.128906 490.964844 L 960.335938 485.710938 Z M 825.132812 490.5 L 822.925781 495.75 L 828.203125 497.972656 L 826.34375 502.398438 L 821.0625 500.179688 L 818.84375 505.457031 L 814.414062 503.597656 L 816.632812 498.316406 L 811.378906 496.109375 L 813.242188 491.679688 L 818.496094 493.886719 L 820.703125 488.636719 Z M 825.132812 490.5 " fill-opacity="1" fill-rule="nonzero"/></g></g></g><g clip-path="url(#b7c2a684b0)"><g clip-path="url(#8783605ef1)"><g clip-path="url(#452383545e)"><path fill="#556069" d="M 1375.046875 783.0625 L 1369.652344 795.890625 L 1382.546875 801.3125 L 1378 812.128906 L 1365.105469 806.707031 L 1359.683594 819.601562 L 1348.867188 815.050781 L 1354.289062 802.15625 L 1341.460938 796.765625 L 1346.007812 785.945312 L 1358.835938 791.339844 L 1364.230469 778.511719 Z M 1312.023438 811.582031 L 1308.605469 819.710938 L 1316.777344 823.144531 L 1313.894531 830 L 1305.722656 826.566406 L 1302.285156 834.734375 L 1295.433594 831.851562 L 1298.867188 823.683594 L 1290.738281 820.265625 L 1293.621094 813.410156 L 1301.75 816.828125 L 1305.167969 808.699219 Z M 1380.925781 860.40625 L 1377.507812 868.535156 L 1385.679688 871.96875 L 1382.796875 878.824219 L 1374.625 875.390625 L 1371.1875 883.558594 L 1364.335938 880.675781 L 1367.769531 872.507812 L 1359.640625 869.089844 L 1362.523438 862.234375 L 1370.652344 865.652344 L 1374.070312 857.523438 Z M 1328.074219 715.851562 L 1324.65625 723.980469 L 1332.828125 727.417969 L 1329.945312 734.273438 L 1321.773438 730.835938 L 1318.335938 739.003906 L 1311.484375 736.125 L 1314.917969 727.953125 L 1306.789062 724.535156 L 1309.671875 717.679688 L 1317.800781 721.097656 L 1321.21875 712.96875 Z M 1413.015625 767.449219 L 1410.804688 772.703125 L 1416.085938 774.921875 L 1414.222656 779.351562 L 1408.945312 777.132812 L 1406.722656 782.410156 L 1402.292969 780.546875 L 1404.515625 775.269531 L 1399.261719 773.0625 L 1401.125 768.632812 L 1406.375 770.839844 L 1408.585938 765.589844 Z M 1273.382812 770.375 L 1271.175781 775.628906 L 1276.453125 777.847656 L 1274.589844 782.277344 L 1269.3125 780.058594 L 1267.09375 785.335938 L 1262.664062 783.472656 L 1264.882812 778.195312 L 1259.628906 775.988281 L 1261.492188 771.558594 L 1266.746094 773.765625 L 1268.953125 768.511719 Z M 1273.382812 770.375 " fill-opacity="1" fill-rule="nonzero"/></g></g></g><g clip-path="url(#540a367886)"><path fill="#de0000" d="M 249.5 157.625 L 231.523438 157.625 C 231.125 157.625 230.746094 157.546875 230.378906 157.398438 C 230.011719 157.246094 229.6875 157.027344 229.40625 156.746094 C 229.125 156.464844 228.910156 156.140625 228.757812 155.773438 C 228.605469 155.410156 228.527344 155.027344 228.527344 154.628906 L 228.527344 139.648438 L 213.546875 139.648438 C 213.152344 139.648438 212.769531 139.574219 212.402344 139.421875 C 212.035156 139.269531 211.710938 139.054688 211.429688 138.773438 C 211.148438 138.492188 210.933594 138.167969 210.78125 137.800781 C 210.628906 137.433594 210.554688 137.050781 210.554688 136.652344 L 210.554688 118.679688 C 210.554688 118.28125 210.628906 117.898438 210.78125 117.53125 C 210.933594 117.164062 211.148438 116.839844 211.429688 116.558594 C 211.710938 116.277344 212.035156 116.0625 212.402344 115.910156 C 212.769531 115.757812 213.152344 115.683594 213.546875 115.683594 L 228.527344 115.683594 L 228.527344 100.703125 C 228.527344 100.304688 228.605469 99.921875 228.757812 99.554688 C 228.910156 99.1875 229.125 98.863281 229.40625 98.585938 C 229.6875 98.304688 230.011719 98.085938 230.378906 97.933594 C 230.746094 97.78125 231.125 97.707031 231.523438 97.707031 L 249.5 97.707031 C 249.898438 97.707031 250.277344 97.78125 250.644531 97.933594 C 251.011719 98.085938 251.335938 98.304688 251.617188 98.585938 C 251.898438 98.863281 252.113281 99.1875 252.265625 99.554688 C 252.417969 99.921875 252.496094 100.304688 252.496094 100.703125 L 252.496094 115.683594 L 267.476562 115.683594 C 267.871094 115.683594 268.253906 115.757812 268.621094 115.910156 C 268.988281 116.0625 269.3125 116.277344 269.59375 116.558594 C 269.875 116.839844 270.089844 117.164062 270.242188 117.53125 C 270.394531 117.898438 270.46875 118.28125 270.472656 118.679688 L 270.472656 136.652344 C 270.46875 137.050781 270.394531 137.433594 270.242188 137.800781 C 270.089844 138.167969 269.875 138.492188 269.59375 138.773438 C 269.3125 139.054688 268.988281 139.269531 268.621094 139.421875 C 268.253906 139.574219 267.871094 139.648438 267.476562 139.648438 L 252.496094 139.648438 L 252.496094 154.628906 C 252.496094 155.027344 252.417969 155.410156 252.265625 155.773438 C 252.113281 156.140625 251.898438 156.464844 251.617188 156.746094 C 251.335938 157.027344 251.011719 157.246094 250.644531 157.398438 C 250.277344 157.546875 249.898438 157.625 249.5 157.625 Z M 234.519531 151.632812 L 246.503906 151.632812 L 246.503906 136.652344 C 246.503906 136.257812 246.578125 135.875 246.730469 135.507812 C 246.882812 135.140625 247.101562 134.816406 247.382812 134.535156 C 247.660156 134.253906 247.984375 134.039062 248.351562 133.886719 C 248.71875 133.734375 249.101562 133.65625 249.5 133.65625 L 264.480469 133.65625 L 264.480469 121.675781 L 249.5 121.675781 C 249.101562 121.675781 248.71875 121.597656 248.351562 121.445312 C 247.984375 121.292969 247.660156 121.078125 247.382812 120.796875 C 247.101562 120.515625 246.882812 120.191406 246.730469 119.824219 C 246.578125 119.457031 246.503906 119.074219 246.503906 118.679688 L 246.503906 103.699219 L 234.519531 103.699219 L 234.519531 118.679688 C 234.519531 119.074219 234.445312 119.457031 234.292969 119.824219 C 234.140625 120.191406 233.921875 120.515625 233.640625 120.796875 C 233.363281 121.078125 233.039062 121.292969 232.671875 121.445312 C 232.304688 121.597656 231.921875 121.675781 231.523438 121.675781 L 216.542969 121.675781 L 216.542969 133.65625 L 231.523438 133.65625 C 231.921875 133.65625 232.304688 133.734375 232.671875 133.886719 C 233.039062 134.039062 233.363281 134.253906 233.640625 134.535156 C 233.921875 134.816406 234.140625 135.140625 234.292969 135.507812 C 234.445312 135.875 234.519531 136.257812 234.519531 136.652344 Z M 234.519531 151.632812 " fill-opacity="1" fill-rule="nonzero"/></g></svg>