<svg xmlns="http://www.w3.org/2000/svg" xmlns:xlink="http://www.w3.org/1999/xlink" width="500" zoomAndPan="magnify" viewBox="0 0 375 374.999991" height="500" preserveAspectRatio="xMidYMid meet" version="1.0"><defs><clipPath id="765fac739b"><path d="M 21 47 L 354 47 L 354 329.117188 L 21 329.117188 Z M 21 47 " clip-rule="nonzero"/></clipPath></defs><g clip-path="url(#765fac739b)"><path fill="#ffffff" d="M 347.152344 99 C 306.40625 -11.898438 187.359375 90.179688 187.359375 90.179688 C 187.359375 90.179688 68.308594 -11.898438 27.5625 99 C -17.363281 221.257812 187.359375 329.28125 187.359375 329.28125 C 187.359375 329.28125 392.078125 221.257812 347.152344 99 Z M 347.152344 99 " fill-opacity="1" fill-rule="nonzero"/></g><path fill="#ffffff" d="M 319.800781 95.003906 C 309.175781 80.300781 289.730469 75.324219 272.371094 77.855469 C 255.015625 80.386719 239.125 89.304688 223.707031 98.035156 C 232.785156 96.679688 241.042969 95.84375 250.121094 94.46875 C 261.847656 92.675781 273.917969 90.90625 285.40625 93.863281 C 299.480469 97.480469 311.679688 108.453125 317.296875 122.546875 C 321.445312 132.976562 324.292969 146.621094 322.496094 158.339844 C 325.210938 149.761719 327.476562 141.070312 328.285156 132.097656 C 329.449219 119.140625 327.285156 105.363281 319.800781 95.003906 Z M 319.800781 95.003906 " fill-opacity="1" fill-rule="nonzero"/></svg>