<svg xmlns="http://www.w3.org/2000/svg" xmlns:xlink="http://www.w3.org/1999/xlink" width="1080" zoomAndPan="magnify" viewBox="0 0 810 809.999993" height="1080" preserveAspectRatio="xMidYMid meet" version="1.0"><defs><g/></defs><g fill="#de1516" fill-opacity="1"><g transform="translate(80.999999, 451.88742)"><g><path d="M 108.539062 -65.4375 C 108.078125 -68.390625 106.878906 -70.238281 104.9375 -70.882812 C 102.816406 -71.714844 100.140625 -70.699219 97.003906 -67.835938 C 96.265625 -67.097656 96.171875 -65.992188 96.816406 -65.253906 C 97.464844 -64.515625 98.570312 -64.515625 99.308594 -65.160156 C 102.355469 -67.835938 103.554688 -67.652344 103.832031 -67.558594 C 104.386719 -67.375 104.847656 -66.359375 105.125 -64.792969 C 107.617188 -49.929688 89.710938 4.0625 68.019531 21.320312 C 65.898438 23.074219 62.851562 24.917969 60.824219 23.90625 C 55.46875 21.226562 55.746094 1.9375 55.929688 -10.890625 C 56.117188 -25.472656 56.023438 -31.933594 52.515625 -32.855469 C 50.300781 -33.503906 48.085938 -31.472656 44.761719 -25.65625 C 32.304688 -3.414062 22.242188 13.289062 14.953125 24.089844 C 7.292969 35.441406 4.246094 37.933594 3.230469 38.394531 C 2.585938 36.085938 3.046875 22.519531 32.488281 -54.269531 C 39.59375 -72.726562 43.839844 -80.480469 45.777344 -82.882812 C 45.871094 -81.957031 45.871094 -80.480469 45.777344 -77.898438 C 45.6875 -76.972656 46.425781 -76.144531 47.347656 -76.050781 C 48.363281 -75.957031 49.191406 -76.695312 49.285156 -77.710938 C 49.65625 -82.882812 49.378906 -86.480469 46.792969 -87.035156 C 45.039062 -87.496094 41.71875 -88.234375 29.164062 -55.46875 C 22.519531 -38.117188 13.199219 -13.289062 6.921875 6.460938 C -2.769531 36.824219 -1.015625 40.609375 1.570312 41.808594 C 2.03125 41.996094 2.398438 42.179688 2.859375 42.179688 C 5.351562 42.179688 8.953125 39.039062 16.613281 27.964844 C 24.089844 17.167969 34.609375 -0.277344 47.902344 -23.90625 C 49.839844 -27.410156 51.039062 -28.703125 51.59375 -29.164062 C 52.609375 -26.859375 52.421875 -17.71875 52.332031 -10.890625 C 52.054688 8.582031 52.421875 23.71875 59.253906 27.042969 C 62.207031 28.519531 65.898438 27.503906 70.238281 24.089844 C 93.21875 5.816406 111.308594 -49.5625 108.539062 -65.4375 Z M 108.539062 -65.4375 "/></g></g></g><g fill="#de1516" fill-opacity="1"><g transform="translate(187.95849, 451.88742)"><g><path d="M 43.65625 -21.042969 C 42.824219 -21.597656 41.71875 -21.320312 41.257812 -20.488281 C 28.148438 0.644531 23.535156 0.183594 23.074219 0.09375 C 22.152344 -0.183594 21.136719 -2.03125 20.859375 -6.554688 C 20.765625 -8.582031 20.304688 -14.675781 16.242188 -15.230469 C 11.535156 -15.875 5.90625 -7.660156 0.832031 2.953125 C 3.96875 -11.074219 8.492188 -30.363281 11.8125 -44.023438 C 24.179688 -66.269531 30.457031 -82.972656 27.875 -86.574219 C 27.320312 -87.402344 26.394531 -87.679688 25.472656 -87.496094 C 21.503906 -86.757812 15.320312 -73.28125 11.167969 -56.207031 C 10.984375 -55.5625 -5.539062 11.90625 -6.089844 20.210938 C -6.089844 21.136719 -5.539062 21.875 -4.613281 22.058594 C -4.523438 22.058594 -4.429688 22.058594 -4.335938 22.058594 C -3.597656 22.058594 -2.859375 21.597656 -2.585938 20.949219 C 5.445312 -2.121094 13.289062 -11.722656 15.597656 -11.722656 C 15.691406 -11.722656 15.691406 -11.722656 15.691406 -11.722656 C 16.058594 -11.722656 17.074219 -10.613281 17.351562 -6.367188 C 17.445312 -4.152344 17.90625 2.398438 22.152344 3.507812 C 23.996094 3.96875 29.441406 5.351562 44.210938 -18.644531 C 44.761719 -19.472656 44.484375 -20.582031 43.65625 -21.042969 Z M 24.828125 -82.417969 C 24.089844 -78.726562 21.503906 -70.789062 15.320312 -58.332031 C 18.828125 -71.621094 22.613281 -79.28125 24.828125 -82.417969 Z M 24.828125 -82.417969 "/></g></g></g><g fill="#de1516" fill-opacity="1"><g transform="translate(227.73339, 451.88742)"><g><path d="M 45.132812 -20.304688 C 44.578125 -21.136719 43.472656 -21.320312 42.640625 -20.765625 C 34.703125 -15.597656 26.582031 -9.875 18.828125 -2.675781 C 19.9375 -9.507812 21.042969 -16.796875 22.058594 -24.457031 C 22.242188 -25.289062 21.6875 -26.121094 20.859375 -26.394531 C 20.121094 -26.671875 19.199219 -26.304688 18.828125 -25.566406 C 16.980469 -22.425781 12.921875 -15.96875 9.320312 -11.628906 C 8.03125 -10.058594 6.738281 -9.230469 6.089844 -9.691406 C 4.523438 -10.613281 3.414062 -16.980469 7.015625 -25.75 C 7.382812 -26.671875 6.921875 -27.6875 6.089844 -28.058594 C 5.167969 -28.425781 4.152344 -27.964844 3.785156 -27.042969 C 0 -17.8125 0.183594 -9.042969 4.335938 -6.644531 C 5.351562 -5.90625 8.304688 -4.890625 12 -9.320312 C 13.9375 -11.628906 15.78125 -14.214844 17.445312 -16.707031 C 16.519531 -10.335938 15.597656 -4.246094 14.582031 1.570312 C 6.828125 9.507812 -0.460938 19.105469 -6.738281 31.289062 C -17.257812 51.5 -19.199219 73.929688 -13.9375 80.390625 C -12.921875 81.679688 -11.628906 82.328125 -10.246094 82.328125 C -9.785156 82.328125 -9.414062 82.234375 -8.953125 82.140625 C -2.953125 80.390625 2.398438 67.097656 5.90625 56.207031 C 10.246094 42.640625 14.214844 24.917969 17.90625 3.230469 C 26.488281 -5.351562 35.625 -12 44.578125 -17.8125 C 45.410156 -18.367188 45.6875 -19.472656 45.132812 -20.304688 Z M 2.492188 55.101562 C -4.152344 76.144531 -8.953125 78.449219 -9.875 78.726562 C -10.246094 78.820312 -10.613281 78.820312 -11.167969 78.175781 C -14.492188 74.113281 -14.765625 54.453125 -3.597656 32.855469 C 1.570312 22.980469 7.292969 14.859375 13.476562 7.9375 C 10.152344 27.042969 6.460938 42.824219 2.492188 55.101562 Z M 2.492188 55.101562 "/></g></g></g><g fill="#de1516" fill-opacity="1"><g transform="translate(268.615713, 451.88742)"><g/></g></g><g fill="#de1516" fill-opacity="1"><g transform="translate(296.947255, 451.88742)"><g><path d="M 39.410156 -77.066406 C 38.765625 -77.621094 37.933594 -77.804688 37.101562 -77.621094 C 33.132812 -76.328125 26.027344 -57.039062 19.199219 -25.289062 C 19.011719 -24.734375 18.734375 -24.273438 18.460938 -23.71875 C 17.996094 -27.320312 15.597656 -28.335938 14.765625 -28.613281 C 10.796875 -29.8125 4.523438 -26.210938 0.183594 -16.980469 C -3.136719 -10.058594 -3.785156 -1.015625 0.371094 1.382812 C 2.398438 2.585938 5.90625 2.398438 10.984375 -4.984375 C 13.199219 -8.121094 15.136719 -11.167969 16.980469 -14.121094 C 15.96875 -8.859375 14.953125 -3.324219 14.027344 2.492188 C 12.273438 12.828125 10.984375 21.503906 10.246094 27.78125 C 8.769531 40.054688 9.507812 41.71875 11.351562 42.269531 C 11.535156 42.363281 11.8125 42.363281 12 42.363281 C 13.660156 42.363281 14.765625 40.242188 15.320312 38.855469 C 15.78125 38.027344 15.414062 36.917969 14.492188 36.546875 C 14.027344 36.273438 13.476562 36.273438 13.011719 36.457031 C 13.199219 32.488281 14.121094 23.441406 17.535156 3.136719 C 19.199219 -7.015625 20.949219 -16.058594 22.613281 -23.996094 C 29.535156 -37.101562 33.042969 -48.179688 35.902344 -56.945312 C 36.273438 -58.054688 36.640625 -59.070312 36.917969 -59.992188 C 41.808594 -74.667969 39.964844 -76.421875 39.410156 -77.066406 Z M 8.03125 -7.015625 C 4.523438 -1.9375 2.585938 -1.476562 2.121094 -1.660156 C 0.738281 -2.492188 0.277344 -8.859375 3.414062 -15.503906 C 6.554688 -22.152344 10.796875 -25.289062 13.105469 -25.289062 C 13.382812 -25.289062 13.566406 -25.289062 13.753906 -25.195312 C 15.230469 -24.828125 14.953125 -22.152344 14.859375 -21.414062 C 14.765625 -20.582031 15.230469 -19.75 16.058594 -19.472656 C 13.753906 -15.503906 11.074219 -11.351562 8.03125 -7.015625 Z M 33.59375 -61.097656 C 33.226562 -60.175781 32.855469 -59.160156 32.582031 -58.054688 C 30.917969 -53.070312 29.074219 -47.441406 26.582031 -41.070312 C 30.457031 -56.390625 33.964844 -65.992188 36.179688 -70.789062 C 35.808594 -68.574219 34.980469 -65.4375 33.59375 -61.097656 Z M 33.59375 -61.097656 "/></g></g></g><g fill="#de1516" fill-opacity="1"><g transform="translate(325.832507, 451.88742)"><g><path d="M 33.410156 -20.027344 C 32.582031 -20.675781 31.472656 -20.488281 30.917969 -19.75 C 27.042969 -14.765625 20.675781 -10.613281 15.78125 -11.535156 C 15.875 -12.183594 15.96875 -12.828125 15.96875 -13.476562 C 16.613281 -23.90625 13.382812 -26.027344 11.445312 -26.394531 C 9.230469 -26.859375 6.921875 -25.195312 5.816406 -22.425781 C 5.351562 -22.613281 4.800781 -22.613281 4.335938 -22.242188 C 0.644531 -19.9375 -2.398438 -14.027344 -0.738281 -7.660156 C 0.371094 -3.875 2.953125 -1.476562 6.367188 -1.476562 C 9.597656 -1.476562 13.011719 -3.875 14.765625 -8.121094 C 21.226562 -6.738281 28.980469 -11.535156 33.6875 -17.535156 C 34.332031 -18.367188 34.148438 -19.472656 33.410156 -20.027344 Z M 6.460938 -4.984375 C 6.367188 -4.984375 6.367188 -4.984375 6.367188 -4.984375 C 4.0625 -5.078125 3.046875 -7.292969 2.769531 -8.582031 C 1.847656 -11.722656 2.585938 -16.058594 5.167969 -18.460938 C 5.351562 -15.320312 7.105469 -11.90625 11.535156 -9.507812 C 10.246094 -6.554688 8.03125 -4.984375 6.460938 -4.984375 Z M 12.460938 -13.660156 C 12.367188 -13.476562 12.367188 -13.289062 12.367188 -13.105469 C 8.859375 -15.414062 8.304688 -18.367188 8.953125 -20.675781 C 9.414062 -22.152344 10.335938 -22.890625 10.796875 -22.890625 C 11.261719 -22.796875 12.828125 -21.042969 12.460938 -13.660156 Z M 12.460938 -13.660156 "/></g></g></g><g fill="#de1516" fill-opacity="1"><g transform="translate(355.363756, 451.88742)"><g><path d="M 37.101562 -20.582031 C 36.273438 -21.042969 35.164062 -20.765625 34.703125 -19.84375 C 32.488281 -16.058594 26.671875 -5.816406 23.351562 -6.183594 C 22.703125 -6.277344 20.859375 -7.199219 19.011719 -13.660156 C 17.71875 -18.183594 15.96875 -22.425781 12.550781 -22.613281 C 10.058594 -22.796875 7.292969 -20.859375 3.046875 -12.921875 C 4.152344 -16.890625 5.351562 -20.859375 6.277344 -24.089844 C 6.644531 -25.289062 6.921875 -26.304688 7.199219 -27.320312 C 7.476562 -28.242188 6.921875 -29.257812 6 -29.535156 C 5.078125 -29.8125 4.0625 -29.257812 3.785156 -28.242188 C 3.507812 -27.320312 3.230469 -26.210938 2.859375 -25.105469 C 0.460938 -16.890625 -3.136719 -4.429688 -4.0625 3.136719 C -4.152344 3.96875 -3.597656 4.800781 -2.769531 4.984375 C -2.585938 5.078125 -2.492188 5.078125 -2.308594 5.078125 C -1.570312 5.078125 -0.921875 4.613281 -0.644531 3.96875 C 8.03125 -17.628906 11.535156 -19.105469 12.367188 -19.105469 C 12.550781 -19.105469 13.84375 -18.734375 15.597656 -12.644531 C 17.445312 -6.277344 19.84375 -3.046875 22.980469 -2.675781 C 27.6875 -2.121094 31.933594 -7.9375 37.75 -18.089844 C 38.300781 -19.011719 37.933594 -20.027344 37.101562 -20.582031 Z M 37.101562 -20.582031 "/></g></g></g><g fill="#de1516" fill-opacity="1"><g transform="translate(388.309554, 451.88742)"><g><path d="M 38.578125 -20.488281 C 37.75 -20.859375 36.640625 -20.488281 36.273438 -19.660156 C 29.257812 -5.351562 23.996094 -0.832031 21.503906 -1.292969 C 20.488281 -1.476562 17.167969 -3.414062 16.335938 -19.566406 C 16.335938 -20.304688 15.78125 -20.949219 15.136719 -21.136719 C 14.398438 -21.320312 13.566406 -21.136719 13.199219 -20.488281 C 12.644531 -19.84375 12.089844 -19.105469 11.535156 -18.273438 C 9.230469 -15.136719 6.183594 -10.890625 2.492188 -6.921875 C 1.9375 -6.277344 1.476562 -5.90625 1.199219 -5.722656 C 0.554688 -8.953125 3.96875 -21.320312 9.414062 -25.195312 C 10.984375 -26.304688 13.105469 -27.132812 15.96875 -23.8125 C 16.613281 -23.074219 17.71875 -22.980469 18.460938 -23.628906 C 19.199219 -24.179688 19.289062 -25.382812 18.734375 -26.121094 C 15.230469 -30.179688 11.90625 -30.089844 9.691406 -29.351562 C 2.585938 -26.859375 -2.214844 -13.199219 -2.398438 -6.921875 C -2.492188 -4.335938 -1.753906 -2.675781 -0.277344 -2.121094 C 2.03125 -1.199219 4.335938 -3.691406 5.078125 -4.523438 C 8.214844 -7.9375 11.074219 -11.628906 13.105469 -14.492188 C 14.121094 -3.96875 16.613281 1.292969 20.765625 2.214844 C 21.136719 2.214844 21.503906 2.308594 21.875 2.308594 C 28.148438 2.308594 34.886719 -8.675781 39.410156 -18.089844 C 39.871094 -19.011719 39.503906 -20.027344 38.578125 -20.488281 Z M 38.578125 -20.488281 "/></g></g></g><g fill="#de1516" fill-opacity="1"><g transform="translate(422.639631, 451.88742)"><g><path d="M 77.898438 -54.453125 C 76.695312 -56.117188 71.34375 -57.128906 14.027344 -55.839844 C 15.875 -63.3125 17.535156 -70.050781 19.011719 -75.496094 C 19.289062 -76.511719 18.734375 -77.433594 17.8125 -77.710938 C 16.890625 -77.988281 15.875 -77.433594 15.597656 -76.511719 C 14.027344 -70.699219 12.273438 -63.683594 10.335938 -55.746094 C 5.261719 -55.652344 -0.277344 -55.5625 -6.277344 -55.378906 C -14.492188 -55.191406 -20.949219 -55.007812 -23.441406 -55.007812 C -24.457031 -55.007812 -25.289062 -54.175781 -25.289062 -53.253906 C -25.289062 -52.238281 -24.457031 -51.410156 -23.441406 -51.410156 C -20.859375 -51.5 -14.398438 -51.59375 -6.183594 -51.871094 C -1.847656 -51.960938 3.507812 -52.054688 9.507812 -52.238281 C 5.539062 -35.441406 1.015625 -15.320312 -3.046875 4.335938 C -6 18.734375 -8.398438 31.195312 -9.96875 40.332031 C -10.796875 45.132812 -11.351562 48.917969 -11.628906 51.5 C -12 55.007812 -12.183594 57.039062 -10.429688 57.683594 C -10.152344 57.683594 -9.96875 57.777344 -9.691406 57.777344 C -8.121094 57.777344 -7.292969 55.5625 -6.554688 53.53125 C -6.183594 52.609375 -6.644531 51.59375 -7.566406 51.222656 C -7.753906 51.222656 -7.84375 51.132812 -8.03125 51.132812 C -7.105469 43.933594 -4.335938 27.78125 1.015625 2.308594 C 4.984375 -16.980469 9.320312 -36.273438 13.199219 -52.332031 C 38.578125 -52.886719 71.527344 -53.347656 75.3125 -52.054688 C 75.957031 -51.5 76.789062 -51.5 77.527344 -51.960938 C 78.265625 -52.515625 78.449219 -53.625 77.898438 -54.453125 Z M 77.898438 -54.453125 "/></g></g></g><g fill="#de1516" fill-opacity="1"><g transform="translate(434.913556, 451.88742)"><g><path d="M 31.195312 -20.582031 C 30.363281 -21.136719 29.257812 -20.949219 28.703125 -20.121094 C 21.78125 -10.429688 16.152344 -4.335938 10.613281 -0.371094 C 7.84375 1.570312 5.167969 1.9375 3.414062 0.644531 C 2.308594 -0.183594 -1.109375 -3.875 2.859375 -16.796875 C 11.8125 -24.179688 16.707031 -31.195312 15.414062 -34.886719 C 14.953125 -35.996094 13.84375 -36.734375 12.644531 -36.734375 C 8.953125 -36.640625 3.324219 -30.273438 -0.371094 -18.367188 C -4.890625 -3.691406 -1.199219 1.660156 1.382812 3.507812 C 2.675781 4.523438 4.152344 4.984375 5.816406 4.984375 C 7.9375 4.984375 10.335938 4.152344 12.644531 2.492188 C 18.550781 -1.753906 24.367188 -8.03125 31.566406 -18.089844 C 32.117188 -18.921875 31.933594 -20.027344 31.195312 -20.582031 Z M 11.90625 -32.855469 C 11.535156 -31.378906 9.96875 -28.425781 5.628906 -23.996094 C 8.03125 -29.351562 10.613281 -31.933594 11.90625 -32.855469 Z M 11.90625 -32.855469 "/></g></g></g><g fill="#de1516" fill-opacity="1"><g transform="translate(461.768536, 451.88742)"><g/></g></g><g fill="#de1516" fill-opacity="1"><g transform="translate(490.100078, 451.88742)"><g><path d="M 38.949219 -20.675781 C 38.117188 -21.136719 37.011719 -20.859375 36.457031 -20.027344 C 31.566406 -12.089844 23.90625 -4.984375 14.675781 0.460938 C 18.644531 -4.984375 20.582031 -11.167969 20.488281 -14.953125 C 20.398438 -18.460938 18.734375 -19.472656 17.71875 -19.75 C 14.859375 -20.675781 11.074219 -17.8125 6.277344 -10.984375 C 4.613281 -8.769531 2.953125 -5.816406 1.199219 -2.308594 C 3.96875 -14.953125 7.753906 -31.472656 10.613281 -43.839844 C 22.890625 -65.898438 29.164062 -82.511719 26.582031 -86.109375 C 26.027344 -86.941406 25.105469 -87.21875 24.179688 -87.035156 C 20.210938 -86.296875 14.027344 -72.820312 9.875 -55.746094 C 9.136719 -53.160156 8.304688 -49.378906 7.292969 -45.039062 C 7.199219 -44.855469 7.199219 -44.671875 7.105469 -44.484375 C 2.121094 -23.074219 -6 13.105469 -6.089844 16.152344 C -6.183594 17.074219 -5.539062 17.8125 -4.613281 17.996094 C -4.523438 17.996094 -4.429688 17.996094 -4.335938 17.996094 C -3.597656 17.996094 -2.859375 17.535156 -2.675781 16.707031 C -1.847656 14.304688 -1.015625 11.90625 -0.09375 9.507812 C 0.371094 10.152344 1.199219 10.523438 2.03125 10.246094 C 11.535156 6.828125 29.074219 -1.292969 39.503906 -18.183594 C 39.964844 -19.011719 39.777344 -20.121094 38.949219 -20.675781 Z M 23.535156 -81.957031 C 22.796875 -78.265625 20.210938 -70.328125 14.027344 -57.867188 C 17.535156 -71.25 21.320312 -78.820312 23.535156 -81.957031 Z M 0.921875 6.828125 C 3.597656 0.460938 6.554688 -5.351562 9.136719 -8.953125 C 14.121094 -15.96875 16.335938 -16.335938 16.613281 -16.335938 C 16.796875 -16.152344 17.257812 -14.953125 16.707031 -12.183594 C 15.503906 -6.460938 10.429688 3.324219 0.921875 6.828125 Z M 0.921875 6.828125 "/></g></g></g><g fill="#de1516" fill-opacity="1"><g transform="translate(524.799295, 451.88742)"><g><path d="M 27.132812 -86.480469 C 26.488281 -87.3125 25.566406 -87.679688 24.644531 -87.589844 C 19.382812 -86.664062 13.753906 -67.007812 12.183594 -61.007812 C 7.566406 -43.378906 1.753906 -18.367188 -2.953125 4.0625 C -5.167969 14.675781 -6.921875 23.628906 -8.03125 30.089844 C -9.875 40.980469 -9.597656 42.363281 -7.84375 42.824219 C -7.660156 42.917969 -7.476562 42.917969 -7.292969 42.917969 C -5.628906 42.917969 -4.800781 40.703125 -3.96875 38.300781 C -3.691406 37.378906 -4.152344 36.363281 -5.078125 36.085938 C -5.167969 35.996094 -5.261719 35.996094 -5.351562 35.996094 C -3.414062 22.703125 4.523438 -15.96875 12.644531 -48.363281 C 12.644531 -48.453125 12.738281 -48.546875 12.828125 -48.640625 C 24.828125 -67.652344 29.535156 -82.789062 27.132812 -86.480469 Z M 15.78125 -60.824219 C 19.289062 -73.835938 22.425781 -80.113281 24.089844 -82.695312 C 23.71875 -79.28125 21.6875 -71.898438 15.78125 -60.824219 Z M 15.78125 -60.824219 "/></g></g></g><g fill="#de1516" fill-opacity="1"><g transform="translate(538.826638, 451.88742)"><g><path d="M 33.410156 -20.027344 C 32.582031 -20.675781 31.472656 -20.488281 30.917969 -19.75 C 27.042969 -14.765625 20.675781 -10.613281 15.78125 -11.535156 C 15.875 -12.183594 15.96875 -12.828125 15.96875 -13.476562 C 16.613281 -23.90625 13.382812 -26.027344 11.445312 -26.394531 C 9.230469 -26.859375 6.921875 -25.195312 5.816406 -22.425781 C 5.351562 -22.613281 4.800781 -22.613281 4.335938 -22.242188 C 0.644531 -19.9375 -2.398438 -14.027344 -0.738281 -7.660156 C 0.371094 -3.875 2.953125 -1.476562 6.367188 -1.476562 C 9.597656 -1.476562 13.011719 -3.875 14.765625 -8.121094 C 21.226562 -6.738281 28.980469 -11.535156 33.6875 -17.535156 C 34.332031 -18.367188 34.148438 -19.472656 33.410156 -20.027344 Z M 6.460938 -4.984375 C 6.367188 -4.984375 6.367188 -4.984375 6.367188 -4.984375 C 4.0625 -5.078125 3.046875 -7.292969 2.769531 -8.582031 C 1.847656 -11.722656 2.585938 -16.058594 5.167969 -18.460938 C 5.351562 -15.320312 7.105469 -11.90625 11.535156 -9.507812 C 10.246094 -6.554688 8.03125 -4.984375 6.460938 -4.984375 Z M 12.460938 -13.660156 C 12.367188 -13.476562 12.367188 -13.289062 12.367188 -13.105469 C 8.859375 -15.414062 8.304688 -18.367188 8.953125 -20.675781 C 9.414062 -22.152344 10.335938 -22.890625 10.796875 -22.890625 C 11.261719 -22.796875 12.828125 -21.042969 12.460938 -13.660156 Z M 12.460938 -13.660156 "/></g></g></g><g fill="#de1516" fill-opacity="1"><g transform="translate(568.357886, 451.88742)"><g><path d="M 33.410156 -20.027344 C 32.582031 -20.675781 31.472656 -20.488281 30.917969 -19.75 C 27.042969 -14.765625 20.675781 -10.613281 15.78125 -11.535156 C 15.875 -12.183594 15.96875 -12.828125 15.96875 -13.476562 C 16.613281 -23.90625 13.382812 -26.027344 11.445312 -26.394531 C 9.230469 -26.859375 6.921875 -25.195312 5.816406 -22.425781 C 5.351562 -22.613281 4.800781 -22.613281 4.335938 -22.242188 C 0.644531 -19.9375 -2.398438 -14.027344 -0.738281 -7.660156 C 0.371094 -3.875 2.953125 -1.476562 6.367188 -1.476562 C 9.597656 -1.476562 13.011719 -3.875 14.765625 -8.121094 C 21.226562 -6.738281 28.980469 -11.535156 33.6875 -17.535156 C 34.332031 -18.367188 34.148438 -19.472656 33.410156 -20.027344 Z M 6.460938 -4.984375 C 6.367188 -4.984375 6.367188 -4.984375 6.367188 -4.984375 C 4.0625 -5.078125 3.046875 -7.292969 2.769531 -8.582031 C 1.847656 -11.722656 2.585938 -16.058594 5.167969 -18.460938 C 5.351562 -15.320312 7.105469 -11.90625 11.535156 -9.507812 C 10.246094 -6.554688 8.03125 -4.984375 6.460938 -4.984375 Z M 12.460938 -13.660156 C 12.367188 -13.476562 12.367188 -13.289062 12.367188 -13.105469 C 8.859375 -15.414062 8.304688 -18.367188 8.953125 -20.675781 C 9.414062 -22.152344 10.335938 -22.890625 10.796875 -22.890625 C 11.261719 -22.796875 12.828125 -21.042969 12.460938 -13.660156 Z M 12.460938 -13.660156 "/></g></g></g><g fill="#de1516" fill-opacity="1"><g transform="translate(597.889135, 451.88742)"><g><path d="M 39.410156 -77.066406 C 38.765625 -77.621094 37.933594 -77.804688 37.101562 -77.621094 C 33.132812 -76.328125 26.027344 -57.039062 19.199219 -25.289062 C 19.011719 -24.734375 18.734375 -24.273438 18.460938 -23.71875 C 17.996094 -27.320312 15.597656 -28.335938 14.765625 -28.613281 C 10.796875 -29.8125 4.523438 -26.210938 0.183594 -16.980469 C -3.136719 -10.058594 -3.785156 -1.015625 0.371094 1.382812 C 2.398438 2.585938 5.90625 2.398438 10.984375 -4.984375 C 13.199219 -8.121094 15.136719 -11.167969 16.980469 -14.121094 C 15.96875 -8.859375 14.953125 -3.324219 14.027344 2.492188 C 12.273438 12.828125 10.984375 21.503906 10.246094 27.78125 C 8.769531 40.054688 9.507812 41.71875 11.351562 42.269531 C 11.535156 42.363281 11.8125 42.363281 12 42.363281 C 13.660156 42.363281 14.765625 40.242188 15.320312 38.855469 C 15.78125 38.027344 15.414062 36.917969 14.492188 36.546875 C 14.027344 36.273438 13.476562 36.273438 13.011719 36.457031 C 13.199219 32.488281 14.121094 23.441406 17.535156 3.136719 C 19.199219 -7.015625 20.949219 -16.058594 22.613281 -23.996094 C 29.535156 -37.101562 33.042969 -48.179688 35.902344 -56.945312 C 36.273438 -58.054688 36.640625 -59.070312 36.917969 -59.992188 C 41.808594 -74.667969 39.964844 -76.421875 39.410156 -77.066406 Z M 8.03125 -7.015625 C 4.523438 -1.9375 2.585938 -1.476562 2.121094 -1.660156 C 0.738281 -2.492188 0.277344 -8.859375 3.414062 -15.503906 C 6.554688 -22.152344 10.796875 -25.289062 13.105469 -25.289062 C 13.382812 -25.289062 13.566406 -25.289062 13.753906 -25.195312 C 15.230469 -24.828125 14.953125 -22.152344 14.859375 -21.414062 C 14.765625 -20.582031 15.230469 -19.75 16.058594 -19.472656 C 13.753906 -15.503906 11.074219 -11.351562 8.03125 -7.015625 Z M 33.59375 -61.097656 C 33.226562 -60.175781 32.855469 -59.160156 32.582031 -58.054688 C 30.917969 -53.070312 29.074219 -47.441406 26.582031 -41.070312 C 30.457031 -56.390625 33.964844 -65.992188 36.179688 -70.789062 C 35.808594 -68.574219 34.980469 -65.4375 33.59375 -61.097656 Z M 33.59375 -61.097656 "/></g></g></g><g fill="#de1516" fill-opacity="1"><g transform="translate(626.774387, 451.88742)"><g/></g></g><g fill="#de1516" fill-opacity="1"><g transform="translate(655.105929, 451.88742)"><g><path d="M 22.058594 -47.902344 C 19.011719 -49.65625 14.398438 -47.164062 7.382812 -39.871094 C 6.644531 -39.226562 6.644531 -38.027344 7.382812 -37.378906 C 8.121094 -36.734375 9.230469 -36.734375 9.875 -37.378906 C 17.996094 -45.777344 20.210938 -44.855469 20.210938 -44.855469 C 20.488281 -44.671875 21.414062 -42.734375 19.566406 -36.824219 C 17.628906 -30.273438 13.382812 -21.597656 9.691406 -13.9375 C 5.539062 -5.445312 3.230469 -0.460938 3.046875 2.121094 C 2.953125 3.136719 3.691406 3.96875 4.707031 4.0625 C 4.707031 4.0625 4.800781 4.0625 4.800781 4.0625 C 5.722656 4.0625 6.554688 3.324219 6.554688 2.398438 C 6.738281 0.371094 9.875 -6.089844 12.921875 -12.460938 C 16.707031 -20.210938 20.949219 -28.980469 22.980469 -35.808594 C 24.367188 -40.242188 25.289062 -45.964844 22.058594 -47.902344 Z M 2.585938 8.769531 C 0.832031 9.320312 -0.183594 12.183594 2.121094 12.367188 C 6.183594 12.644531 5.816406 7.660156 2.585938 8.769531 Z M 2.585938 8.769531 "/></g></g></g></svg>