<svg xmlns="http://www.w3.org/2000/svg" xmlns:xlink="http://www.w3.org/1999/xlink" width="793" zoomAndPan="magnify" viewBox="0 0 595.5 842.249979" height="1122" preserveAspectRatio="xMidYMid meet" version="1.0"><defs><g/><clipPath id="fb8562746e"><path d="M 0.015625 542.269531 L 267.597656 542.269531 L 267.597656 841.5 L 0.015625 841.5 Z M 0.015625 542.269531 " clip-rule="nonzero"/></clipPath><clipPath id="bbab5626fa"><path d="M 182 741 L 190 741 L 190 841.5 L 182 841.5 Z M 182 741 " clip-rule="nonzero"/></clipPath><clipPath id="f7513f44cf"><path d="M 64 677 L 71 677 L 71 841.5 L 64 841.5 Z M 64 677 " clip-rule="nonzero"/></clipPath><clipPath id="0b776dc1ca"><path d="M 238 721 L 246 721 L 246 841.5 L 238 841.5 Z M 238 721 " clip-rule="nonzero"/></clipPath><clipPath id="ae6bfb7387"><path d="M 325 563 L 594.984375 563 L 594.984375 841.5 L 325 841.5 Z M 325 563 " clip-rule="nonzero"/></clipPath><clipPath id="2cd63fdac4"><path d="M 434 708 L 549 708 L 549 841.5 L 434 841.5 Z M 434 708 " clip-rule="nonzero"/></clipPath><clipPath id="3c65fd5d87"><path d="M 485 740.011719 L 594.984375 740.011719 L 594.984375 839.84375 L 485 839.84375 Z M 485 740.011719 " clip-rule="nonzero"/></clipPath><clipPath id="738e31055a"><path d="M 389 727 L 394 727 L 394 841.5 L 389 841.5 Z M 389 727 " clip-rule="nonzero"/></clipPath><clipPath id="b2d4099d6c"><path d="M 546 756 L 594.984375 756 L 594.984375 763 L 546 763 Z M 546 756 " clip-rule="nonzero"/></clipPath></defs><g clip-path="url(#fb8562746e)"><path fill="#ece6e3" d="M -11.125 879.398438 C -3.65625 884.386719 178.394531 879.878906 178.394531 879.878906 L 267.378906 881.320312 C 267.378906 881.320312 271.296875 703.585938 245.417969 624.625 C 233.730469 588.972656 208.785156 562.589844 184.769531 550.210938 C 182.597656 549.085938 180.476562 548.070312 178.421875 547.160156 C 176.042969 546.105469 172.367188 545.171875 167.78125 544.421875 C 166.183594 544.152344 164.460938 543.90625 162.652344 543.6875 C 144.585938 541.5 117.023438 541.636719 96.0625 546.136719 C 95.136719 546.339844 94.21875 546.546875 93.320312 546.765625 C 89.679688 547.640625 86.160156 548.507812 82.761719 549.394531 C 78.289062 550.558594 74.023438 551.753906 69.984375 553.039062 C 69.976562 553.046875 69.960938 553.046875 69.957031 553.050781 C 65.523438 554.464844 61.355469 555.992188 57.457031 557.707031 C 20.058594 574.175781 -18.414062 604.648438 -11.867188 677.214844 C -4.664062 756.917969 -8.285156 846.089844 -11.125 879.398438 " fill-opacity="1" fill-rule="nonzero"/></g><path fill="#6ea3fa" d="M 69.671875 553.183594 L 184.765625 740.917969 L 184.765625 549.910156 C 177.367188 546.441406 171.351562 544.214844 168.101562 543.097656 C 166.414062 542.523438 127.179688 537.566406 103.582031 542.238281 C 95.574219 543.828125 88.308594 546.082031 81.625 548.390625 C 77.386719 549.855469 73.40625 551.445312 69.671875 553.183594 " fill-opacity="1" fill-rule="nonzero"/><path fill="#fca087" d="M 81.625 548.390625 L 151.957031 610.546875 L 168.101562 543.097656 C 166.414062 542.523438 133.933594 535.808594 103.582031 542.238281 C 95.59375 543.933594 88.308594 546.082031 81.625 548.390625 " fill-opacity="1" fill-rule="nonzero"/><g clip-path="url(#bbab5626fa)"><path fill="#ddbbae" d="M 182.9375 741.726562 L 187.289062 879.878906 L 189.664062 879.867188 L 185.304688 741.316406 L 182.9375 741.726562 " fill-opacity="1" fill-rule="nonzero"/></g><path fill="#ddbbae" d="M 189.671875 735.902344 L 207.886719 670.554688 L 195.441406 657.410156 L 208.3125 649.097656 L 208.398438 648.574219 L 218.453125 585.835938 L 216.113281 585.457031 L 206.140625 647.675781 L 191.75 656.960938 L 205.242188 671.214844 L 187.386719 735.261719 L 189.671875 735.902344 " fill-opacity="1" fill-rule="nonzero"/><path fill="#ddbbae" d="M 177.015625 742.28125 L 178.777344 740.6875 L 98.167969 650.6875 L 110.703125 636.507812 L 84.566406 629.425781 L 45.617188 568.09375 L 43.617188 569.371094 L 83.066406 631.480469 L 106.390625 637.804688 L 94.984375 650.695312 L 95.695312 651.484375 L 177.015625 742.28125 " fill-opacity="1" fill-rule="nonzero"/><g clip-path="url(#f7513f44cf)"><path fill="#ddbbae" d="M 68.296875 881.800781 L 70.9375 881.785156 C 70.726562 857.09375 69.507812 731.1875 66.914062 677.292969 L 64.273438 677.378906 C 66.859375 731.242188 68.078125 857.117188 68.296875 881.800781 " fill-opacity="1" fill-rule="nonzero"/></g><g clip-path="url(#0b776dc1ca)"><path fill="#ddbbae" d="M 242.90625 880.839844 L 245.546875 880.824219 C 245.335938 861.597656 244.117188 763.539062 241.523438 721.5625 L 238.882812 721.632812 C 241.46875 763.582031 242.6875 861.613281 242.90625 880.839844 " fill-opacity="1" fill-rule="nonzero"/></g><path fill="#fca087" d="M 94.515625 556.21875 L 112.023438 548.160156 L 156.882812 550.15625 L 162.714844 550.421875 L 162.441406 522.21875 L 162.367188 514.273438 L 162.3125 508.90625 L 140.34375 491.28125 L 122.964844 477.347656 L 115.882812 471.664062 L 114.097656 470.234375 L 111.140625 467.863281 L 110.734375 469.070312 L 110.59375 469.492188 L 109.953125 471.382812 L 108.5 475.628906 L 105.558594 484.238281 L 94.515625 556.21875 " fill-opacity="1" fill-rule="nonzero"/><path fill="#373239" d="M 109.167969 486.335938 C 120.875 510.003906 138.9375 527.988281 162.636719 541.882812 L 162.441406 522.21875 L 162.558594 514.304688 L 162.714844 503.675781 L 159.988281 501.707031 L 124.703125 476.265625 L 109.167969 486.335938 " fill-opacity="1" fill-rule="nonzero"/><path fill="#fca087" d="M 112.164062 393.9375 C 131.34375 383.054688 195.035156 363.957031 198.648438 376.667969 C 212.742188 426.242188 172.0625 488.847656 170.179688 503.183594 C 168.304688 517.519531 113.335938 477.277344 113.335938 477.277344 L 112.164062 393.9375 " fill-opacity="1" fill-rule="nonzero"/><path fill="#fca087" d="M 202.675781 466.585938 C 199.796875 499.714844 179.980469 525.097656 158.414062 523.292969 C 136.84375 521.484375 97.121094 487.394531 100 454.265625 C 102.882812 421.140625 147.265625 401.519531 168.835938 403.328125 C 190.402344 405.136719 205.554688 433.457031 202.675781 466.585938 " fill-opacity="1" fill-rule="nonzero"/><path fill="#373239" d="M 76.226562 424.949219 C 82.496094 445.792969 83.011719 470.964844 98.039062 481.785156 C 99.417969 482.785156 100.914062 483.664062 102.546875 484.390625 C 104.503906 485.28125 106.664062 485.96875 109.046875 486.4375 C 109.496094 486.53125 109.960938 486.609375 110.441406 486.691406 C 111.886719 486.917969 113.191406 486.957031 114.355469 486.820312 C 115.339844 486.710938 116.226562 486.472656 117.019531 486.109375 C 117.660156 485.832031 118.238281 485.46875 118.757812 485.027344 C 121.839844 482.472656 122.886719 477.457031 122.792969 471.15625 C 122.699219 464.316406 121.261719 455.964844 119.648438 447.605469 C 118.09375 439.550781 116.375 431.496094 115.535156 424.777344 C 114.71875 418.28125 114.71875 413.035156 116.472656 410.25 C 124.730469 397.097656 198.714844 387.058594 199.734375 414.902344 C 199.824219 417.34375 201.042969 417.953125 202.933594 417.238281 C 212.71875 413.515625 236.035156 366.289062 218.632812 356.425781 C 203.167969 347.660156 191.304688 359.210938 191.304688 359.210938 C 191.304688 359.210938 186.574219 340.636719 170.128906 343.078125 C 153.695312 345.527344 151.96875 358.628906 151.96875 358.628906 C 151.96875 358.628906 145.550781 341.230469 128.113281 349.328125 C 110.671875 357.421875 114.707031 371.886719 99.652344 383.304688 C 84.589844 394.726562 68.558594 399.476562 76.226562 424.949219 " fill-opacity="1" fill-rule="nonzero"/><path fill="#fca087" d="M 119.820312 447.753906 C 115.078125 443.628906 100.503906 437.78125 102.734375 449.28125 C 108.414062 478.59375 126.550781 470.171875 126.550781 470.171875 L 119.820312 447.753906 " fill-opacity="1" fill-rule="nonzero"/><path fill="#373239" d="M 177.289062 476.328125 C 177.484375 476.328125 177.671875 476.257812 177.816406 476.117188 C 177.996094 475.945312 178.082031 475.695312 178.042969 475.449219 L 174.308594 451.222656 C 174.246094 450.808594 173.859375 450.523438 173.441406 450.585938 C 173.027344 450.648438 172.742188 451.039062 172.808594 451.457031 L 176.371094 474.589844 L 167.617188 472.742188 C 167.207031 472.65625 166.800781 472.917969 166.714844 473.335938 C 166.628906 473.746094 166.894531 474.152344 167.304688 474.234375 L 177.132812 476.3125 C 177.183594 476.324219 177.238281 476.328125 177.289062 476.328125 " fill-opacity="1" fill-rule="nonzero"/><path fill="#373239" d="M 189.0625 441.691406 C 189.492188 444.492188 188.617188 446.949219 187.101562 447.171875 C 185.589844 447.398438 184.011719 445.308594 183.582031 442.511719 C 183.148438 439.710938 184.027344 437.253906 185.539062 437.027344 C 187.054688 436.804688 188.628906 438.894531 189.0625 441.691406 " fill-opacity="1" fill-rule="nonzero"/><path fill="#373239" d="M 158.71875 446.367188 C 159.152344 449.171875 158.273438 451.621094 156.761719 451.847656 C 155.246094 452.070312 153.667969 449.984375 153.238281 447.183594 C 152.808594 444.382812 153.6875 441.929688 155.195312 441.707031 C 156.710938 441.476562 158.289062 443.566406 158.71875 446.367188 " fill-opacity="1" fill-rule="nonzero"/><path fill="#373239" d="M 163.554688 426.210938 C 163.863281 428.195312 160.019531 430.410156 154.972656 431.160156 C 149.925781 431.90625 145.59375 430.910156 145.285156 428.925781 C 144.980469 426.945312 148.824219 424.730469 153.867188 423.980469 C 158.914062 423.230469 163.25 424.226562 163.554688 426.210938 " fill-opacity="1" fill-rule="nonzero"/><path fill="#373239" d="M 196.347656 422.257812 C 196.648438 424.238281 192.808594 426.457031 187.761719 427.199219 C 182.71875 427.953125 178.378906 426.953125 178.078125 424.972656 C 177.769531 422.992188 181.613281 420.777344 186.65625 420.027344 C 191.703125 419.277344 196.039062 420.273438 196.347656 422.257812 " fill-opacity="1" fill-rule="nonzero"/><path fill="#373239" d="M 168.792969 499.09375 C 172.066406 499.09375 175.710938 498.519531 179.699219 497.070312 C 180.097656 496.925781 180.296875 496.488281 180.15625 496.09375 C 180.011719 495.695312 179.574219 495.492188 179.179688 495.632812 C 170.574219 498.757812 162.605469 498.152344 155.488281 493.828125 C 150.148438 490.585938 147.3125 486.347656 147.285156 486.308594 C 147.050781 485.957031 146.582031 485.859375 146.230469 486.09375 C 145.882812 486.324219 145.78125 486.800781 146.015625 487.148438 C 146.136719 487.335938 149.035156 491.675781 154.644531 495.097656 C 158.003906 497.148438 162.773438 499.09375 168.792969 499.09375 " fill-opacity="1" fill-rule="nonzero"/><path fill="#94bafa" d="M 161.25 638.53125 L 177.65625 558.140625 L 175.585938 557.71875 L 159.910156 634.5 L 83.550781 566.191406 L 82.140625 567.773438 L 161.25 638.53125 " fill-opacity="1" fill-rule="nonzero"/><path fill="#373239" d="M 190.289062 431.175781 C 183.601562 431.175781 178.15625 436.589844 178.15625 443.242188 C 178.15625 449.894531 183.601562 455.308594 190.289062 455.308594 C 196.984375 455.308594 202.425781 449.894531 202.425781 443.242188 C 202.425781 436.589844 196.984375 431.175781 190.289062 431.175781 Z M 190.289062 457.421875 C 182.433594 457.421875 176.042969 451.0625 176.042969 443.242188 C 176.042969 435.417969 182.433594 429.058594 190.289062 429.058594 C 198.148438 429.058594 204.542969 435.417969 204.542969 443.242188 C 204.542969 451.0625 198.148438 457.421875 190.289062 457.421875 " fill-opacity="1" fill-rule="nonzero"/><path fill="#373239" d="M 157.671875 434.039062 C 150.980469 434.039062 145.539062 439.453125 145.539062 446.105469 C 145.539062 446.863281 145.609375 447.621094 145.746094 448.359375 C 146.828125 454.046875 151.84375 458.171875 157.671875 458.171875 C 164.359375 458.171875 169.804688 452.757812 169.804688 446.105469 C 169.804688 439.453125 164.359375 434.039062 157.671875 434.039062 Z M 157.671875 460.289062 C 150.828125 460.289062 144.941406 455.4375 143.667969 448.753906 C 143.503906 447.886719 143.421875 446.996094 143.421875 446.105469 C 143.421875 438.285156 149.8125 431.925781 157.671875 431.925781 C 165.53125 431.925781 171.921875 438.285156 171.921875 446.105469 C 171.921875 453.925781 165.53125 460.289062 157.671875 460.289062 " fill-opacity="1" fill-rule="nonzero"/><path fill="#373239" d="M 144.355469 448.261719 L 144.601562 446.15625 L 121.324219 443.433594 L 121.074219 445.53125 L 144.355469 448.261719 " fill-opacity="1" fill-rule="nonzero"/><path fill="#373239" d="M 170.863281 445.542969 L 177.101562 445.542969 L 177.101562 443.421875 L 170.863281 443.421875 L 170.863281 445.542969 " fill-opacity="1" fill-rule="nonzero"/><path fill="#ddbbae" d="M 91.011719 768.019531 L 138.488281 768.019531 L 138.488281 742.152344 L 91.011719 742.152344 Z M 140.183594 769.714844 L 89.320312 769.714844 L 89.320312 740.457031 L 140.183594 740.457031 L 140.183594 769.714844 " fill-opacity="1" fill-rule="nonzero"/><path fill="#ddbbae" d="M 120.257812 740.878906 L 110.9375 740.878906 L 110.9375 731.550781 L 120.257812 731.550781 L 120.257812 740.878906 " fill-opacity="1" fill-rule="nonzero"/><path fill="#ddbbae" d="M 134.132812 753.410156 L 98.222656 753.410156 L 98.222656 751.714844 L 134.132812 751.714844 L 134.132812 753.410156 " fill-opacity="1" fill-rule="nonzero"/><path fill="#ddbbae" d="M 134.132812 759.773438 L 98.222656 759.773438 L 98.222656 758.078125 L 134.132812 758.078125 L 134.132812 759.773438 " fill-opacity="1" fill-rule="nonzero"/><g clip-path="url(#ae6bfb7387)"><path fill="#ece6e3" d="M 508.359375 563.152344 C 508.359375 563.152344 575.308594 580.714844 583.378906 602.542969 C 591.453125 624.375 661.722656 776.710938 601.898438 796.644531 C 601.898438 796.644531 585.277344 803.761719 573.40625 801.863281 L 577.679688 882.066406 L 329.316406 882.082031 C 329.316406 882.082031 317.007812 734.949219 336.472656 654.269531 C 341.6875 632.660156 362.117188 584.984375 390.128906 578.816406 C 418.144531 572.644531 508.359375 563.152344 508.359375 563.152344 " fill-opacity="1" fill-rule="nonzero"/></g><path fill="#373239" d="M 498.660156 702.105469 C 498.265625 698.285156 495.03125 695.304688 491.105469 695.304688 C 487.175781 695.304688 483.945312 698.285156 483.550781 702.105469 L 472.929688 702.105469 C 467.332031 702.105469 462.785156 706.648438 462.785156 712.246094 L 462.785156 714.917969 L 519.421875 714.917969 L 519.421875 712.246094 C 519.421875 706.648438 514.882812 702.105469 509.28125 702.105469 L 498.660156 702.105469 " fill-opacity="1" fill-rule="nonzero"/><path fill="#fc5e69" d="M 413.222656 451.109375 C 413.222656 451.109375 415.234375 416.433594 459.574219 404.292969 C 495.195312 394.539062 532.285156 419.367188 534.226562 443.304688 C 536.167969 467.246094 541.542969 465.140625 543.160156 489.726562 C 544.777344 514.3125 537.253906 515.792969 538.226562 537.792969 C 539.195312 559.789062 573.039062 579.769531 568.183594 593.03125 C 563.328125 606.292969 519.453125 591.816406 510.710938 605.40625 C 501.972656 618.992188 480.609375 616.082031 461.835938 613.167969 C 443.066406 610.257812 398.722656 583.082031 376.066406 603.789062 C 353.410156 624.492188 346.609375 593.757812 362.148438 572.085938 C 362.148438 572.085938 369.914062 559.46875 395.164062 552.351562 C 395.164062 552.351562 378.582031 526.699219 409.40625 490.886719 C 409.40625 490.886719 410.957031 469.550781 413.222656 451.109375 " fill-opacity="1" fill-rule="nonzero"/><path fill="#fda88b" d="M 443.132812 528.792969 C 458.300781 550.261719 482.996094 552.566406 503.292969 531.15625 C 518.648438 514.953125 514.621094 453.847656 514.621094 453.847656 C 509.121094 424.867188 444.632812 425.367188 435.132812 452.847656 C 435.132812 452.847656 432.949219 514.382812 443.132812 528.792969 " fill-opacity="1" fill-rule="nonzero"/><path fill="#d56a46" d="M 472.246094 505.257812 L 472.25 505.257812 Z M 473.976562 507.804688 C 473.296875 507.804688 472.523438 507.65625 471.476562 507.308594 C 469.453125 506.636719 469.046875 503.113281 470.074219 495.144531 C 470.730469 490 471.792969 484.921875 471.804688 484.871094 C 471.929688 484.277344 472.515625 483.894531 473.113281 484.019531 C 473.703125 484.148438 474.085938 484.730469 473.960938 485.324219 C 471.917969 495.023438 471.128906 504.097656 472.222656 505.238281 C 473.96875 505.816406 474.371094 505.667969 475.835938 505.128906 C 476.597656 504.847656 477.550781 504.496094 478.972656 504.140625 C 479.558594 503.996094 480.15625 504.351562 480.308594 504.941406 C 480.453125 505.527344 480.09375 506.128906 479.503906 506.273438 C 478.199219 506.601562 477.308594 506.925781 476.597656 507.191406 C 475.601562 507.558594 474.867188 507.804688 473.976562 507.804688 " fill-opacity="1" fill-rule="nonzero"/><path fill="#363339" d="M 504.460938 466.210938 C 504.460938 467.570312 500.339844 468.664062 495.257812 468.664062 C 490.175781 468.664062 486.054688 467.570312 486.054688 466.210938 C 486.054688 464.859375 490.175781 463.761719 495.257812 463.761719 C 500.339844 463.761719 504.460938 464.859375 504.460938 466.210938 " fill-opacity="1" fill-rule="nonzero"/><path fill="#363339" d="M 462.742188 464.988281 C 462.742188 466.339844 458.617188 467.4375 453.539062 467.4375 C 448.457031 467.4375 444.335938 466.339844 444.335938 464.988281 C 444.335938 463.632812 448.457031 462.535156 453.539062 462.535156 C 458.617188 462.535156 462.742188 463.632812 462.742188 464.988281 " fill-opacity="1" fill-rule="nonzero"/><path fill="#d56a46" d="M 474.019531 527.484375 C 473.34375 527.484375 472.671875 527.4375 472.007812 527.34375 C 465.664062 526.476562 462.222656 521.769531 462.082031 521.570312 C 461.730469 521.074219 461.839844 520.386719 462.335938 520.035156 C 462.828125 519.683594 463.515625 519.796875 463.871094 520.285156 C 463.902344 520.328125 466.941406 524.445312 472.339844 525.167969 C 476.683594 525.753906 481.386719 524.035156 486.3125 520.074219 C 486.785156 519.691406 487.480469 519.765625 487.859375 520.238281 C 488.242188 520.710938 488.167969 521.40625 487.695312 521.785156 C 482.988281 525.570312 478.398438 527.484375 474.019531 527.484375 " fill-opacity="1" fill-rule="nonzero"/><path fill="#363339" d="M 456.304688 480.417969 C 456.304688 483.128906 455.273438 485.324219 453.996094 485.324219 C 452.726562 485.324219 451.691406 483.128906 451.691406 480.417969 C 451.691406 477.707031 452.726562 475.507812 453.996094 475.507812 C 455.273438 475.507812 456.304688 477.707031 456.304688 480.417969 " fill-opacity="1" fill-rule="nonzero"/><path fill="#363339" d="M 495.292969 480.417969 C 495.292969 483.128906 494.257812 485.324219 492.984375 485.324219 C 491.710938 485.324219 490.679688 483.128906 490.679688 480.417969 C 490.679688 477.707031 491.710938 475.507812 492.984375 475.507812 C 494.257812 475.507812 495.292969 477.707031 495.292969 480.417969 " fill-opacity="1" fill-rule="nonzero"/><path fill="#de434d" d="M 490.257812 576.785156 C 480.761719 576.785156 470.671875 574.242188 460.871094 569.21875 C 429.859375 553.332031 398.90625 553.761719 398.601562 553.765625 C 398.191406 553.777344 397.863281 553.449219 397.855469 553.046875 C 397.847656 552.644531 398.164062 552.308594 398.570312 552.300781 C 398.878906 552.289062 430.183594 551.855469 461.539062 567.914062 C 478.050781 576.375 495.363281 577.648438 509.027344 571.410156 C 518.914062 566.894531 525.707031 558.921875 528.148438 548.957031 C 528.246094 548.5625 528.644531 548.324219 529.03125 548.421875 C 529.425781 548.519531 529.667969 548.914062 529.570312 549.304688 C 527.019531 559.714844 519.9375 568.035156 509.632812 572.742188 C 503.71875 575.445312 497.140625 576.785156 490.257812 576.785156 " fill-opacity="1" fill-rule="nonzero"/><path fill="#de434d" d="M 439.082031 547.910156 C 438.996094 547.910156 438.90625 547.894531 438.820312 547.863281 C 425.40625 542.707031 420.675781 532.320312 419.070312 524.511719 C 417.335938 516.105469 418.738281 509.019531 418.800781 508.722656 C 418.878906 508.324219 419.269531 508.070312 419.664062 508.148438 C 420.054688 508.230469 420.3125 508.617188 420.230469 509.011719 C 420.21875 509.082031 418.828125 516.144531 420.511719 524.265625 C 422.75 535.074219 429.085938 542.554688 439.347656 546.496094 C 439.722656 546.644531 439.910156 547.066406 439.765625 547.441406 C 439.65625 547.734375 439.375 547.910156 439.082031 547.910156 " fill-opacity="1" fill-rule="nonzero"/><path fill="#de434d" d="M 515.097656 602.4375 C 514.820312 602.4375 514.5625 602.289062 514.4375 602.027344 C 514.257812 601.664062 514.414062 601.226562 514.777344 601.050781 C 515.003906 600.9375 537.449219 589.855469 538.863281 569.5625 C 538.890625 569.160156 539.246094 568.859375 539.644531 568.882812 C 540.046875 568.914062 540.351562 569.261719 540.320312 569.664062 C 538.847656 590.8125 515.648438 602.253906 515.414062 602.367188 C 515.308594 602.417969 515.203125 602.4375 515.097656 602.4375 " fill-opacity="1" fill-rule="nonzero"/><g clip-path="url(#2cd63fdac4)"><path fill="#af9e91" d="M 548.082031 856.34375 L 434.128906 856.34375 L 434.128906 708.273438 L 548.082031 708.273438 L 548.082031 856.34375 " fill-opacity="1" fill-rule="nonzero"/></g><path fill="#fda88b" d="M 488.257812 801.765625 C 488.257812 801.765625 436.503906 799.640625 429.378906 796.238281 C 422.257812 792.839844 423.679688 786.03125 423.679688 786.03125 C 423.679688 786.03125 420.601562 776.292969 423.5625 775.632812 C 423.5625 775.632812 421.308594 765.617188 425.582031 765.195312 C 425.582031 765.195312 421.78125 754.988281 435.078125 757.539062 C 448.375 760.09375 444.875 756.445312 448.847656 753.285156 C 453.117188 749.886719 458.816406 755.839844 464.039062 759.242188 C 469.261719 762.640625 491.582031 771.996094 494.90625 773.277344 C 498.230469 774.550781 488.257812 801.765625 488.257812 801.765625 " fill-opacity="1" fill-rule="nonzero"/><g clip-path="url(#3c65fd5d87)"><path fill="#ece6e3" d="M 556.152344 761.429688 L 493.957031 767.597656 C 493.957031 767.597656 480.324219 805.300781 488.257812 804.617188 C 488.386719 804.605469 559.476562 848.75 605.535156 837.359375 C 651.589844 825.96875 625.003906 740.070312 625.003906 740.070312 L 556.152344 761.429688 " fill-opacity="1" fill-rule="nonzero"/></g><g clip-path="url(#738e31055a)"><path fill="#d1aa9d" d="M 391.722656 876.070312 C 391.710938 876.070312 391.699219 876.070312 391.683594 876.070312 C 390.894531 876.046875 390.277344 875.390625 390.300781 874.605469 C 390.617188 863.847656 389.585938 729.835938 389.574219 728.484375 C 389.570312 727.699219 390.203125 727.058594 390.988281 727.050781 C 390.992188 727.050781 390.996094 727.050781 391 727.050781 C 391.78125 727.050781 392.417969 727.679688 392.425781 728.464844 C 392.4375 729.816406 393.46875 863.875 393.148438 874.691406 C 393.125 875.457031 392.492188 876.070312 391.722656 876.070312 " fill-opacity="1" fill-rule="nonzero"/></g><g clip-path="url(#b2d4099d6c)"><path fill="#d1aa9d" d="M 547.621094 762.734375 C 546.976562 762.734375 546.390625 762.292969 546.238281 761.636719 C 546.054688 760.871094 546.527344 760.105469 547.292969 759.921875 C 563.890625 755.984375 591.574219 756.226562 592.742188 756.238281 C 593.53125 756.246094 594.160156 756.890625 594.152344 757.675781 C 594.144531 758.457031 593.507812 759.082031 592.730469 759.082031 C 592.722656 759.082031 592.71875 759.082031 592.71875 759.082031 C 592.433594 759.082031 564.207031 758.835938 547.953125 762.695312 C 547.839844 762.71875 547.730469 762.734375 547.621094 762.734375 " fill-opacity="1" fill-rule="nonzero"/></g><path fill="#d1aa9d" d="M 477.578125 651.753906 C 477.574219 651.753906 477.574219 651.753906 477.574219 651.753906 C 477.191406 651.753906 476.816406 651.59375 476.546875 651.316406 L 443.304688 616.597656 C 442.761719 616.03125 442.785156 615.128906 443.351562 614.589844 C 443.917969 614.039062 444.820312 614.0625 445.363281 614.628906 L 477.578125 648.277344 L 521.257812 602.953125 C 521.804688 602.386719 522.703125 602.367188 523.269531 602.910156 C 523.835938 603.460938 523.855469 604.359375 523.308594 604.925781 L 478.605469 651.320312 C 478.335938 651.597656 477.964844 651.753906 477.578125 651.753906 " fill-opacity="1" fill-rule="nonzero"/><path fill="#d1aa9d" d="M 556.167969 756.238281 C 555.417969 756.238281 554.792969 755.65625 554.746094 754.898438 L 552.847656 722.625 C 552.804688 721.839844 553.398438 721.167969 554.1875 721.121094 C 554.972656 721.078125 555.648438 721.675781 555.691406 722.460938 L 557.589844 754.730469 C 557.636719 755.511719 557.039062 756.1875 556.25 756.234375 C 556.226562 756.238281 556.195312 756.238281 556.167969 756.238281 " fill-opacity="1" fill-rule="nonzero"/><path fill="#d1aa9d" d="M 584.722656 840.964844 C 584.679688 840.964844 584.644531 840.964844 584.601562 840.960938 C 584.445312 840.945312 580.605469 840.628906 574.179688 839.542969 C 568.269531 838.550781 558.976562 836.695312 548.269531 833.507812 C 547.515625 833.28125 547.085938 832.492188 547.3125 831.738281 C 547.535156 830.984375 548.332031 830.550781 549.082031 830.777344 C 569.273438 836.792969 584.679688 838.113281 584.835938 838.125 C 585.617188 838.1875 586.203125 838.875 586.140625 839.65625 C 586.078125 840.402344 585.453125 840.964844 584.722656 840.964844 " fill-opacity="1" fill-rule="nonzero"/><path fill="#363339" d="M 417.867188 678.582031 C 416.6875 678.582031 415.550781 677.933594 414.988281 676.804688 C 413.910156 674.664062 388.722656 623.980469 398.511719 595.726562 C 399.09375 594.042969 400.929688 593.15625 402.609375 593.734375 C 404.292969 594.316406 405.179688 596.15625 404.597656 597.835938 C 400.96875 608.3125 402.5625 624.703125 409.203125 645.230469 C 414.324219 661.0625 420.683594 673.789062 420.746094 673.917969 C 421.542969 675.507812 420.898438 677.441406 419.3125 678.238281 C 418.847656 678.472656 418.351562 678.582031 417.867188 678.582031 " fill-opacity="1" fill-rule="nonzero"/><path fill="#363339" d="M 430.671875 680.65625 C 431.433594 686.449219 427.351562 691.761719 421.554688 692.523438 C 415.757812 693.285156 410.441406 689.199219 409.679688 683.40625 C 408.921875 677.613281 413.003906 672.300781 418.800781 671.539062 C 424.59375 670.78125 429.910156 674.859375 430.671875 680.65625 " fill-opacity="1" fill-rule="nonzero"/><path fill="#363339" d="M 542.425781 628.136719 C 542.257812 628.136719 542.082031 628.125 541.910156 628.09375 C 540.152344 627.808594 538.960938 626.15625 539.242188 624.402344 C 539.25 624.359375 539.917969 620.203125 540.1875 615.074219 C 540.535156 608.542969 540.105469 603.421875 538.941406 600.269531 C 538.324219 598.597656 539.179688 596.746094 540.851562 596.132812 C 542.519531 595.515625 544.371094 596.371094 544.988281 598.039062 C 548.460938 607.46875 545.722656 624.703125 545.605469 625.433594 C 545.347656 627.011719 543.980469 628.136719 542.425781 628.136719 " fill-opacity="1" fill-rule="nonzero"/><path fill="#363339" d="M 555.5625 696.15625 C 554.847656 696.15625 554.109375 696.140625 553.332031 696.109375 C 548.957031 695.949219 545.152344 695.371094 544.992188 695.347656 C 543.058594 695.054688 541.730469 693.246094 542.023438 691.3125 C 542.320312 689.378906 544.132812 688.046875 546.066406 688.34375 C 546.097656 688.351562 549.714844 688.894531 553.714844 689.035156 C 559.175781 689.226562 561.277344 688.535156 561.941406 688.226562 C 561.96875 687.851562 562.007812 687.390625 562.050781 686.832031 C 562.394531 682.414062 563.207031 672.070312 562.457031 661.367188 C 561.566406 648.703125 558.730469 639.46875 554.25 634.65625 C 551.664062 631.882812 548.519531 630.527344 544.636719 630.527344 C 544.597656 630.527344 544.558594 630.527344 544.519531 630.527344 C 535.390625 630.59375 528.738281 636.195312 524.171875 647.648438 C 520.144531 657.757812 518.847656 669.90625 518.070312 677.167969 C 517.871094 679.03125 517.699219 680.640625 517.519531 681.855469 C 517.351562 683.011719 517.640625 683.484375 517.980469 683.832031 C 520.078125 685.933594 527.207031 686.042969 531.363281 685.449219 C 533.300781 685.179688 535.097656 686.523438 535.375 688.457031 C 535.652344 690.390625 534.308594 692.1875 532.371094 692.464844 C 532.234375 692.484375 529.011719 692.941406 525.1875 692.820312 C 519.539062 692.644531 515.425781 691.304688 512.960938 688.832031 C 511.515625 687.386719 509.914062 684.816406 510.507812 680.820312 C 510.664062 679.742188 510.832031 678.203125 511.023438 676.414062 C 511.835938 668.792969 513.203125 656.039062 517.585938 645.027344 C 520.113281 638.691406 523.359375 633.675781 527.25 630.121094 C 532.050781 625.734375 537.84375 623.488281 544.472656 623.445312 C 544.527344 623.445312 544.582031 623.445312 544.640625 623.445312 C 550.511719 623.445312 555.488281 625.589844 559.441406 629.832031 C 565.117188 635.925781 568.511719 646.367188 569.527344 660.871094 C 570.316406 672.101562 569.476562 682.808594 569.117188 687.386719 C 569.054688 688.171875 569.007812 688.796875 568.988281 689.152344 C 568.894531 690.890625 568.09375 692.421875 566.675781 693.570312 C 564.523438 695.320312 560.964844 696.15625 555.5625 696.15625 " fill-opacity="1" fill-rule="nonzero"/><path fill="#363339" d="M 535.519531 689.089844 C 535.519531 692.648438 534.128906 695.53125 532.414062 695.53125 C 530.699219 695.53125 529.308594 692.648438 529.308594 689.089844 C 529.308594 685.535156 530.699219 682.652344 532.414062 682.652344 C 534.128906 682.652344 535.519531 685.535156 535.519531 689.089844 " fill-opacity="1" fill-rule="nonzero"/><path fill="#363339" d="M 547.949219 691.394531 C 547.949219 694.949219 546.558594 697.832031 544.839844 697.832031 C 543.125 697.832031 541.730469 694.949219 541.730469 691.394531 C 541.730469 687.835938 543.125 684.953125 544.839844 684.953125 C 546.558594 684.953125 547.949219 687.835938 547.949219 691.394531 " fill-opacity="1" fill-rule="nonzero"/><path fill="#d56a46" d="M 442.21875 769.21875 C 437.445312 769.21875 429.296875 767.105469 428.933594 767.007812 C 428.640625 766.929688 428.46875 766.636719 428.542969 766.347656 C 428.621094 766.054688 428.917969 765.882812 429.207031 765.957031 C 429.300781 765.984375 438.523438 768.375 442.949219 768.113281 C 443.25 768.09375 443.503906 768.324219 443.523438 768.621094 C 443.542969 768.921875 443.3125 769.179688 443.011719 769.195312 C 442.761719 769.210938 442.496094 769.21875 442.21875 769.21875 " fill-opacity="1" fill-rule="nonzero"/><path fill="#d56a46" d="M 438.742188 778.449219 C 433.96875 778.449219 425.820312 776.335938 425.453125 776.242188 C 425.164062 776.164062 424.988281 775.867188 425.066406 775.578125 C 425.144531 775.285156 425.441406 775.113281 425.726562 775.1875 C 425.824219 775.214844 435.042969 777.605469 439.46875 777.34375 C 439.773438 777.324219 440.027344 777.554688 440.042969 777.855469 C 440.0625 778.152344 439.835938 778.414062 439.535156 778.429688 C 439.28125 778.441406 439.015625 778.449219 438.742188 778.449219 " fill-opacity="1" fill-rule="nonzero"/><path fill="#d56a46" d="M 438.742188 788.769531 C 433.96875 788.769531 425.820312 786.65625 425.453125 786.558594 C 425.164062 786.480469 424.988281 786.1875 425.066406 785.898438 C 425.144531 785.605469 425.441406 785.433594 425.726562 785.507812 C 425.824219 785.535156 435.042969 787.921875 439.46875 787.664062 C 439.773438 787.636719 440.027344 787.875 440.042969 788.171875 C 440.0625 788.472656 439.835938 788.730469 439.535156 788.746094 C 439.28125 788.761719 439.015625 788.769531 438.742188 788.769531 " fill-opacity="1" fill-rule="nonzero"/><g fill="#d61d1d" fill-opacity="1"><g transform="translate(224.972551, 252.219197)"><g><path d="M 16.59375 -167.765625 L 149.328125 -167.765625 L 94.03125 -83.890625 L 149.328125 0 L 127.4375 0 L 82.96875 -67.296875 L 38.484375 0 L 16.59375 0 L 71.90625 -83.890625 Z M 50.9375 -149.328125 L 82.96875 -100.703125 L 115 -149.328125 Z M 50.9375 -149.328125 "/></g></g></g><g fill="#000000" fill-opacity="1"><g transform="translate(209.369503, 193.611541)"><g/></g></g><g fill="#000000" fill-opacity="1"><g transform="translate(225.305772, 193.611541)"><g><path d="M 13.21875 0.65625 C 9.957031 0.65625 7.289062 -0.441406 5.21875 -2.640625 C 3.144531 -4.847656 2.109375 -8 2.109375 -12.09375 C 2.109375 -14.039062 2.328125 -16.101562 2.765625 -18.28125 C 3.210938 -20.46875 3.929688 -22.609375 4.921875 -24.703125 C 5.921875 -26.796875 7.265625 -28.703125 8.953125 -30.421875 C 10.648438 -32.140625 12.742188 -33.515625 15.234375 -34.546875 C 17.734375 -35.585938 20.675781 -36.109375 24.0625 -36.109375 C 25.5625 -36.109375 26.90625 -35.953125 28.09375 -35.640625 C 29.289062 -35.328125 30.375 -34.863281 31.34375 -34.25 L 38.421875 -35.4375 L 42.578125 -35.4375 L 37.421875 -11.109375 C 37.335938 -10.617188 37.195312 -9.957031 37 -9.125 C 36.800781 -8.289062 36.625 -7.429688 36.46875 -6.546875 C 36.3125 -5.660156 36.234375 -4.929688 36.234375 -4.359375 C 36.234375 -3.304688 36.453125 -2.554688 36.890625 -2.109375 C 37.335938 -1.671875 37.890625 -1.453125 38.546875 -1.453125 C 39.472656 -1.453125 40.429688 -1.738281 41.421875 -2.3125 C 42.421875 -2.882812 43.179688 -3.414062 43.703125 -3.90625 L 44.109375 -3.3125 C 43.046875 -2.5625 42.03125 -1.882812 41.0625 -1.28125 C 40.09375 -0.6875 38.96875 -0.21875 37.6875 0.125 C 36.414062 0.476562 34.804688 0.65625 32.859375 0.65625 C 30.660156 0.65625 28.921875 0.128906 27.640625 -0.921875 C 26.359375 -1.984375 25.71875 -3.484375 25.71875 -5.421875 C 25.71875 -7.003906 25.769531 -8.289062 25.875 -9.28125 C 25.988281 -10.28125 26.132812 -11.21875 26.3125 -12.09375 L 25.921875 -12.09375 C 24.910156 -7.6875 23.359375 -4.457031 21.265625 -2.40625 C 19.171875 -0.363281 16.488281 0.65625 13.21875 0.65625 Z M 18.125 -2.109375 C 19.21875 -2.109375 20.238281 -2.601562 21.1875 -3.59375 C 22.132812 -4.59375 22.984375 -5.925781 23.734375 -7.59375 C 24.484375 -9.269531 25.054688 -11.125 25.453125 -13.15625 L 29.6875 -33.796875 C 29.289062 -34.273438 28.785156 -34.625 28.171875 -34.84375 C 27.554688 -35.0625 26.875 -35.171875 26.125 -35.171875 C 24.582031 -35.171875 23.191406 -34.578125 21.953125 -33.390625 C 20.722656 -32.203125 19.644531 -30.632812 18.71875 -28.6875 C 17.789062 -26.75 17.03125 -24.644531 16.4375 -22.375 C 15.84375 -20.113281 15.390625 -17.867188 15.078125 -15.640625 C 14.765625 -13.410156 14.609375 -11.414062 14.609375 -9.65625 C 14.609375 -6.695312 14.945312 -4.695312 15.625 -3.65625 C 16.3125 -2.625 17.144531 -2.109375 18.125 -2.109375 Z M 18.125 -2.109375 "/></g></g></g><g fill="#000000" fill-opacity="1"><g transform="translate(269.879744, 193.611541)"><g/></g></g><g fill="#000000" fill-opacity="1"><g transform="translate(285.815489, 193.611541)"><g/></g></g><g fill="#000000" fill-opacity="1"><g transform="translate(301.752277, 193.611541)"><g><path d="M 35.375 0.65625 C 32.945312 0.65625 31.070312 0.367188 29.75 -0.203125 C 28.425781 -0.773438 27.507812 -1.519531 27 -2.4375 C 26.5 -3.363281 26.25 -4.378906 26.25 -5.484375 C 26.25 -5.753906 26.289062 -6.296875 26.375 -7.109375 C 26.46875 -7.921875 26.566406 -8.734375 26.671875 -9.546875 C 26.785156 -10.367188 26.890625 -10.890625 26.984375 -11.109375 L 26.453125 -11.109375 C 25.035156 -6.785156 23.09375 -3.753906 20.625 -2.015625 C 18.15625 -0.273438 15.289062 0.59375 12.03125 0.59375 C 10.007812 0.59375 8.4375 0.253906 7.3125 -0.421875 C 6.1875 -1.109375 5.378906 -2.003906 4.890625 -3.109375 C 4.410156 -4.210938 4.171875 -5.425781 4.171875 -6.75 C 4.171875 -7.84375 4.289062 -9.039062 4.53125 -10.34375 C 4.769531 -11.644531 5 -12.867188 5.21875 -14.015625 L 8.0625 -29.09375 C 8.238281 -30.195312 8.378906 -31.035156 8.484375 -31.609375 C 8.597656 -32.179688 8.65625 -32.644531 8.65625 -33 C 8.65625 -33.570312 8.507812 -34.007812 8.21875 -34.3125 C 7.9375 -34.625 7.179688 -34.78125 5.953125 -34.78125 L 4.296875 -34.78125 L 4.4375 -35.4375 L 22.34375 -35.4375 L 17.1875 -11.109375 C 16.925781 -9.867188 16.71875 -8.695312 16.5625 -7.59375 C 16.40625 -6.5 16.328125 -5.578125 16.328125 -4.828125 C 16.328125 -3.148438 17.078125 -2.3125 18.578125 -2.3125 C 19.765625 -2.3125 20.910156 -2.914062 22.015625 -4.125 C 23.117188 -5.34375 24.109375 -6.953125 24.984375 -8.953125 C 25.867188 -10.960938 26.578125 -13.132812 27.109375 -15.46875 L 31.546875 -35.4375 L 44.375 -35.4375 L 38.609375 -8.734375 C 38.171875 -6.785156 37.953125 -5.085938 37.953125 -3.640625 C 37.953125 -1.921875 38.679688 -1.0625 40.140625 -1.0625 C 41.148438 -1.0625 42.28125 -1.476562 43.53125 -2.3125 C 44.789062 -3.15625 45.820312 -4.0625 46.625 -5.03125 L 47.015625 -4.5625 C 45.867188 -3.238281 44.410156 -2.035156 42.640625 -0.953125 C 40.878906 0.117188 38.457031 0.65625 35.375 0.65625 Z M 35.375 0.65625 "/></g></g></g><g fill="#000000" fill-opacity="1"><g transform="translate(348.964478, 193.611541)"><g><path d="M 14.421875 0.65625 C 10.003906 0.65625 6.617188 0.03125 4.265625 -1.21875 C 1.910156 -2.476562 0.734375 -4.234375 0.734375 -6.484375 C 0.734375 -8.734375 1.523438 -10.382812 3.109375 -11.4375 C 4.691406 -12.5 6.960938 -13.03125 9.921875 -13.03125 C 9.828125 -12.457031 9.78125 -11.90625 9.78125 -11.375 C 9.78125 -10.84375 9.78125 -10.359375 9.78125 -9.921875 C 9.78125 -7.359375 10.085938 -5.359375 10.703125 -3.921875 C 11.328125 -2.492188 12.164062 -1.484375 13.21875 -0.890625 C 14.28125 -0.296875 15.472656 0 16.796875 0 C 18.472656 0 19.828125 -0.523438 20.859375 -1.578125 C 21.898438 -2.640625 22.421875 -4.03125 22.421875 -5.75 C 22.421875 -7.03125 22.234375 -8.085938 21.859375 -8.921875 C 21.484375 -9.765625 20.722656 -10.5625 19.578125 -11.3125 C 18.429688 -12.0625 16.734375 -12.941406 14.484375 -13.953125 C 11.265625 -15.359375 8.828125 -16.941406 7.171875 -18.703125 C 5.515625 -20.472656 4.6875 -22.613281 4.6875 -25.125 C 4.6875 -28.65625 6.148438 -31.367188 9.078125 -33.265625 C 12.015625 -35.160156 16.0625 -36.109375 21.21875 -36.109375 C 24.789062 -36.109375 27.546875 -35.832031 29.484375 -35.28125 C 31.429688 -34.726562 32.78125 -33.976562 33.53125 -33.03125 C 34.28125 -32.082031 34.65625 -31.054688 34.65625 -29.953125 C 34.65625 -27.921875 33.789062 -26.460938 32.0625 -25.578125 C 30.34375 -24.703125 28.007812 -24.265625 25.0625 -24.265625 C 25.144531 -25.015625 25.207031 -25.726562 25.25 -26.40625 C 25.300781 -27.09375 25.328125 -27.75 25.328125 -28.375 C 25.328125 -30.75 24.941406 -32.519531 24.171875 -33.6875 C 23.398438 -34.851562 22.15625 -35.4375 20.4375 -35.4375 C 19.019531 -35.4375 17.75 -34.90625 16.625 -33.84375 C 15.5 -32.789062 14.9375 -31.363281 14.9375 -29.5625 C 14.9375 -28.59375 15.113281 -27.765625 15.46875 -27.078125 C 15.820312 -26.390625 16.550781 -25.691406 17.65625 -24.984375 C 18.757812 -24.285156 20.4375 -23.429688 22.6875 -22.421875 C 25.101562 -21.316406 27.003906 -20.203125 28.390625 -19.078125 C 29.785156 -17.953125 30.769531 -16.757812 31.34375 -15.5 C 31.914062 -14.25 32.203125 -12.851562 32.203125 -11.3125 C 32.203125 -9.019531 31.5625 -6.976562 30.28125 -5.1875 C 29.007812 -3.40625 27.0625 -1.984375 24.4375 -0.921875 C 21.8125 0.128906 18.472656 0.65625 14.421875 0.65625 Z M 14.421875 0.65625 "/></g></g></g><g fill="#000000" fill-opacity="1"><g transform="translate(271.067793, 192.675329)"><g><path d="M -10.4375 59.53125 C -16.707031 59.53125 -19.84375 56.394531 -19.84375 50.125 C -19.84375 41.113281 -13.96875 22.75 -2.21875 -4.96875 C -3.59375 -7.25 -4.28125 -9.128906 -4.28125 -10.609375 C -4.28125 -15.398438 -3.195312 -18.59375 -1.03125 -20.1875 C 0.570312 -21.550781 1.914062 -22.234375 3 -22.234375 C 4.082031 -22.234375 4.796875 -22.175781 5.140625 -22.0625 C 18.140625 -51.375 29.828125 -75.726562 40.203125 -95.125 C 42.253906 -99.226562 44.363281 -102.25 46.53125 -104.1875 C 48.695312 -106.125 51.4375 -107.09375 54.75 -107.09375 C 55.207031 -107.09375 56.347656 -106.921875 58.171875 -106.578125 C 59.992188 -106.234375 61.359375 -106.117188 62.265625 -106.234375 C 56.910156 -101.222656 49.382812 -90.160156 39.6875 -73.046875 C 30 -55.941406 20.816406 -37.640625 12.140625 -18.140625 C 14.765625 -14.941406 16.59375 -10.660156 17.625 -5.296875 L 18.140625 -3.078125 C 18.367188 -3.078125 18.535156 -3.078125 18.640625 -3.078125 C 21.722656 -3.078125 24.972656 -4.875 28.390625 -8.46875 C 31.816406 -12.0625 34.613281 -15.765625 36.78125 -19.578125 C 38.945312 -23.398438 40.710938 -26.765625 42.078125 -29.671875 C 43.453125 -32.585938 44.3125 -34.160156 44.65625 -34.390625 C 45 -34.617188 45.3125 -34.703125 45.59375 -34.640625 C 45.875 -34.585938 46.128906 -34.472656 46.359375 -34.296875 C 46.585938 -34.128906 46.703125 -33.84375 46.703125 -33.4375 C 46.703125 -33.039062 46.585938 -32.613281 46.359375 -32.15625 C 36.890625 -10.601562 27.597656 0.171875 18.484375 0.171875 C 18.585938 1.992188 18.640625 4.984375 18.640625 9.140625 C 18.640625 13.304688 17.613281 19.492188 15.5625 27.703125 C 13.507812 35.921875 10.0625 43.28125 5.21875 49.78125 C 0.375 56.28125 -4.84375 59.53125 -10.4375 59.53125 Z M -10.609375 50.125 C -10.609375 53.4375 -9.695312 55.09375 -7.875 55.09375 C -5.707031 55.09375 -2.710938 52.550781 1.109375 47.46875 C 4.929688 42.394531 8.179688 35.4375 10.859375 26.59375 C 13.546875 17.757812 14.890625 9.75 14.890625 2.5625 C 14.890625 1.988281 14.890625 1.421875 14.890625 0.859375 C 14.316406 0.859375 13.800781 0.859375 13.34375 0.859375 C 10.039062 0.859375 7.25 -0.0507812 4.96875 -1.875 C -5.414062 24.351562 -10.609375 41.6875 -10.609375 50.125 Z M 13.515625 -2.390625 L 14.546875 -2.390625 C 14.203125 -7.296875 12.832031 -11.234375 10.4375 -14.203125 L 6.671875 -5.640625 C 7.816406 -3.472656 10.097656 -2.390625 13.515625 -2.390625 Z M 13.515625 -2.390625 "/></g></g></g></svg>