<svg xmlns="http://www.w3.org/2000/svg" xmlns:xlink="http://www.w3.org/1999/xlink" width="500" zoomAndPan="magnify" viewBox="0 0 375 374.999991" height="500" preserveAspectRatio="xMidYMid meet" version="1.0"><defs><g/></defs><g fill="#000000" fill-opacity="1"><g transform="translate(22.140698, 298.382233)"><g/></g></g><g fill="#000000" fill-opacity="1"><g transform="translate(49.390279, 298.382233)"><g><path d="M 22.609375 1.125 C 17.023438 1.125 12.460938 -0.753906 8.921875 -4.515625 C 5.378906 -8.285156 3.609375 -13.675781 3.609375 -20.6875 C 3.609375 -24 3.984375 -27.519531 4.734375 -31.25 C 5.492188 -34.976562 6.722656 -38.632812 8.421875 -42.21875 C 10.117188 -45.800781 12.414062 -49.0625 15.3125 -52 C 18.21875 -54.9375 21.796875 -57.289062 26.046875 -59.0625 C 30.304688 -60.832031 35.335938 -61.71875 41.140625 -61.71875 C 43.703125 -61.71875 46 -61.453125 48.03125 -60.921875 C 50.070312 -60.390625 51.921875 -59.597656 53.578125 -58.546875 L 65.671875 -60.578125 L 72.796875 -60.578125 L 63.96875 -18.984375 C 63.820312 -18.160156 63.578125 -17.03125 63.234375 -15.59375 C 62.898438 -14.164062 62.597656 -12.695312 62.328125 -11.1875 C 62.066406 -9.675781 61.9375 -8.429688 61.9375 -7.453125 C 61.9375 -5.648438 62.3125 -4.367188 63.0625 -3.609375 C 63.820312 -2.859375 64.765625 -2.484375 65.890625 -2.484375 C 67.472656 -2.484375 69.113281 -2.972656 70.8125 -3.953125 C 72.507812 -4.929688 73.8125 -5.835938 74.71875 -6.671875 L 75.390625 -5.65625 C 73.578125 -4.375 71.84375 -3.222656 70.1875 -2.203125 C 68.53125 -1.179688 66.609375 -0.375 64.421875 0.21875 C 62.242188 0.820312 59.492188 1.125 56.171875 1.125 C 52.410156 1.125 49.4375 0.222656 47.25 -1.578125 C 45.0625 -3.390625 43.96875 -5.953125 43.96875 -9.265625 C 43.96875 -11.984375 44.0625 -14.1875 44.25 -15.875 C 44.4375 -17.570312 44.679688 -19.175781 44.984375 -20.6875 L 44.3125 -20.6875 C 42.570312 -13.144531 39.910156 -7.625 36.328125 -4.125 C 32.753906 -0.625 28.179688 1.125 22.609375 1.125 Z M 30.96875 -3.609375 C 32.851562 -3.609375 34.601562 -4.457031 36.21875 -6.15625 C 37.84375 -7.851562 39.296875 -10.132812 40.578125 -13 C 41.859375 -15.863281 42.835938 -19.03125 43.515625 -22.5 L 50.75 -57.765625 C 50.070312 -58.585938 49.203125 -59.1875 48.140625 -59.5625 C 47.085938 -59.9375 45.921875 -60.125 44.640625 -60.125 C 42.003906 -60.125 39.628906 -59.109375 37.515625 -57.078125 C 35.410156 -55.046875 33.566406 -52.367188 31.984375 -49.046875 C 30.398438 -45.734375 29.097656 -42.132812 28.078125 -38.25 C 27.066406 -34.375 26.296875 -30.535156 25.765625 -26.734375 C 25.242188 -22.929688 24.984375 -19.519531 24.984375 -16.5 C 24.984375 -11.445312 25.566406 -8.035156 26.734375 -6.265625 C 27.898438 -4.492188 29.3125 -3.609375 30.96875 -3.609375 Z M 30.96875 -3.609375 "/></g></g></g><g fill="#000000" fill-opacity="1"><g transform="translate(125.571355, 298.382233)"><g/></g></g><g fill="#000000" fill-opacity="1"><g transform="translate(152.80868, 298.382233)"><g/></g></g><g fill="#000000" fill-opacity="1"><g transform="translate(180.053701, 298.382233)"><g><path d="M 60.46875 1.125 C 56.320312 1.125 53.117188 0.632812 50.859375 -0.34375 C 48.597656 -1.320312 47.035156 -2.601562 46.171875 -4.1875 C 45.304688 -5.769531 44.875 -7.5 44.875 -9.375 C 44.875 -9.832031 44.945312 -10.753906 45.09375 -12.140625 C 45.25 -13.535156 45.421875 -14.929688 45.609375 -16.328125 C 45.796875 -17.722656 45.960938 -18.609375 46.109375 -18.984375 L 45.21875 -18.984375 C 42.800781 -11.597656 39.484375 -6.414062 35.265625 -3.4375 C 31.046875 -0.46875 26.148438 1.015625 20.578125 1.015625 C 17.109375 1.015625 14.410156 0.429688 12.484375 -0.734375 C 10.566406 -1.898438 9.191406 -3.425781 8.359375 -5.3125 C 7.535156 -7.195312 7.125 -9.269531 7.125 -11.53125 C 7.125 -13.414062 7.328125 -15.46875 7.734375 -17.6875 C 8.148438 -19.914062 8.546875 -22.007812 8.921875 -23.96875 L 13.796875 -49.734375 C 14.085938 -51.617188 14.328125 -53.050781 14.515625 -54.03125 C 14.710938 -55.007812 14.8125 -55.800781 14.8125 -56.40625 C 14.8125 -57.382812 14.566406 -58.132812 14.078125 -58.65625 C 13.585938 -59.1875 12.285156 -59.453125 10.171875 -59.453125 L 7.34375 -59.453125 L 7.578125 -60.578125 L 38.203125 -60.578125 L 29.390625 -18.984375 C 28.929688 -16.878906 28.570312 -14.882812 28.3125 -13 C 28.050781 -11.113281 27.921875 -9.53125 27.921875 -8.25 C 27.921875 -5.382812 29.203125 -3.953125 31.765625 -3.953125 C 33.796875 -3.953125 35.753906 -4.988281 37.640625 -7.0625 C 39.523438 -9.132812 41.21875 -11.882812 42.71875 -15.3125 C 44.226562 -18.738281 45.4375 -22.453125 46.34375 -26.453125 L 53.921875 -60.578125 L 75.84375 -60.578125 L 66.015625 -14.921875 C 65.253906 -11.609375 64.875 -8.707031 64.875 -6.21875 C 64.875 -3.28125 66.117188 -1.8125 68.609375 -1.8125 C 70.335938 -1.8125 72.273438 -2.523438 74.421875 -3.953125 C 76.578125 -5.390625 78.332031 -6.9375 79.6875 -8.59375 L 80.359375 -7.796875 C 78.398438 -5.535156 75.914062 -3.484375 72.90625 -1.640625 C 69.894531 0.203125 65.75 1.125 60.46875 1.125 Z M 60.46875 1.125 "/></g></g></g><g fill="#000000" fill-opacity="1"><g transform="translate(260.748717, 298.382233)"><g><path d="M 24.640625 1.125 C 17.109375 1.125 11.328125 0.0507812 7.296875 -2.09375 C 3.265625 -4.238281 1.25 -7.234375 1.25 -11.078125 C 1.25 -14.921875 2.601562 -17.742188 5.3125 -19.546875 C 8.019531 -21.359375 11.898438 -22.265625 16.953125 -22.265625 C 16.804688 -21.285156 16.734375 -20.34375 16.734375 -19.4375 C 16.734375 -18.53125 16.734375 -17.703125 16.734375 -16.953125 C 16.734375 -12.585938 17.257812 -9.175781 18.3125 -6.71875 C 19.363281 -4.269531 20.789062 -2.535156 22.59375 -1.515625 C 24.40625 -0.503906 26.441406 0 28.703125 0 C 31.566406 0 33.882812 -0.898438 35.65625 -2.703125 C 37.425781 -4.515625 38.3125 -6.890625 38.3125 -9.828125 C 38.3125 -12.015625 37.988281 -13.820312 37.34375 -15.25 C 36.707031 -16.6875 35.410156 -18.046875 33.453125 -19.328125 C 31.492188 -20.609375 28.59375 -22.113281 24.75 -23.84375 C 19.25 -26.257812 15.085938 -28.972656 12.265625 -31.984375 C 9.441406 -35.003906 8.03125 -38.660156 8.03125 -42.953125 C 8.03125 -48.984375 10.535156 -53.617188 15.546875 -56.859375 C 20.554688 -60.097656 27.46875 -61.71875 36.28125 -61.71875 C 42.382812 -61.71875 47.09375 -61.242188 50.40625 -60.296875 C 53.726562 -59.359375 56.03125 -58.078125 57.3125 -56.453125 C 58.59375 -54.835938 59.234375 -53.085938 59.234375 -51.203125 C 59.234375 -47.734375 57.757812 -45.242188 54.8125 -43.734375 C 51.875 -42.234375 47.882812 -41.484375 42.84375 -41.484375 C 42.988281 -42.765625 43.097656 -43.988281 43.171875 -45.15625 C 43.253906 -46.320312 43.296875 -47.429688 43.296875 -48.484375 C 43.296875 -52.554688 42.632812 -55.585938 41.3125 -57.578125 C 39.988281 -59.578125 37.859375 -60.578125 34.921875 -60.578125 C 32.515625 -60.578125 30.347656 -59.671875 28.421875 -57.859375 C 26.503906 -56.054688 25.546875 -53.613281 25.546875 -50.53125 C 25.546875 -48.863281 25.847656 -47.445312 26.453125 -46.28125 C 27.054688 -45.113281 28.296875 -43.925781 30.171875 -42.71875 C 32.054688 -41.519531 34.921875 -40.050781 38.765625 -38.3125 C 42.910156 -36.425781 46.171875 -34.523438 48.546875 -32.609375 C 50.921875 -30.691406 52.597656 -28.65625 53.578125 -26.5 C 54.554688 -24.351562 55.046875 -21.960938 55.046875 -19.328125 C 55.046875 -15.410156 53.953125 -11.925781 51.765625 -8.875 C 49.578125 -5.820312 46.242188 -3.390625 41.765625 -1.578125 C 37.285156 0.222656 31.578125 1.125 24.640625 1.125 Z M 24.640625 1.125 "/></g></g></g><g fill="#d61d1d" fill-opacity="1"><g transform="translate(72.529629, 227.374238)"><g><path d="M 20.015625 -202.34375 L 180.109375 -202.34375 L 113.40625 -101.171875 L 180.109375 0 L 153.703125 0 L 100.0625 -81.15625 L 46.421875 0 L 20.015625 0 L 86.71875 -101.171875 Z M 61.421875 -180.109375 L 100.0625 -121.453125 L 138.6875 -180.109375 Z M 61.421875 -180.109375 "/></g></g></g><g fill="#000000" fill-opacity="1"><g transform="translate(144.929541, 266.732898)"><g><path d="M -17.03125 97.21875 C -27.28125 97.21875 -32.40625 92.097656 -32.40625 81.859375 C -32.40625 67.140625 -22.8125 37.15625 -3.625 -8.09375 C -5.863281 -11.820312 -6.984375 -14.894531 -6.984375 -17.3125 C -6.984375 -25.132812 -5.210938 -30.351562 -1.671875 -32.96875 C 0.929688 -35.195312 3.117188 -36.3125 4.890625 -36.3125 C 6.660156 -36.3125 7.820312 -36.21875 8.375 -36.03125 C 29.613281 -83.894531 48.707031 -123.660156 65.65625 -155.328125 C 69.007812 -162.023438 72.453125 -166.957031 75.984375 -170.125 C 79.523438 -173.289062 83.992188 -174.875 89.390625 -174.875 C 90.140625 -174.875 92.003906 -174.59375 94.984375 -174.03125 C 97.960938 -173.476562 100.195312 -173.296875 101.6875 -173.484375 C 92.9375 -165.285156 80.644531 -147.21875 64.8125 -119.28125 C 48.976562 -91.34375 33.988281 -61.453125 19.84375 -29.609375 C 24.125 -24.398438 27.101562 -17.414062 28.78125 -8.65625 L 29.609375 -5.03125 C 29.984375 -5.03125 30.265625 -5.03125 30.453125 -5.03125 C 35.484375 -5.03125 40.789062 -7.960938 46.375 -13.828125 C 51.957031 -19.691406 56.519531 -25.742188 60.0625 -31.984375 C 63.601562 -38.222656 66.488281 -43.71875 68.71875 -48.46875 C 70.957031 -53.21875 72.351562 -55.773438 72.90625 -56.140625 C 73.46875 -56.515625 73.984375 -56.65625 74.453125 -56.5625 C 74.921875 -56.476562 75.335938 -56.296875 75.703125 -56.015625 C 76.078125 -55.734375 76.265625 -55.265625 76.265625 -54.609375 C 76.265625 -53.960938 76.078125 -53.265625 75.703125 -52.515625 C 60.242188 -17.316406 45.066406 0.28125 30.171875 0.28125 C 30.359375 3.257812 30.453125 8.144531 30.453125 14.9375 C 30.453125 21.738281 28.773438 31.84375 25.421875 45.25 C 22.066406 58.664062 16.429688 70.679688 8.515625 81.296875 C 0.609375 91.910156 -7.90625 97.21875 -17.03125 97.21875 Z M -17.3125 81.859375 C -17.3125 87.253906 -15.820312 89.953125 -12.84375 89.953125 C -9.3125 89.953125 -4.425781 85.804688 1.8125 77.515625 C 8.050781 69.234375 13.359375 57.875 17.734375 43.4375 C 22.117188 29.007812 24.3125 15.925781 24.3125 4.1875 C 24.3125 3.257812 24.3125 2.328125 24.3125 1.390625 C 23.375 1.390625 22.535156 1.390625 21.796875 1.390625 C 16.390625 1.390625 11.828125 -0.0976562 8.109375 -3.078125 C -8.835938 39.765625 -17.3125 68.078125 -17.3125 81.859375 Z M 22.078125 -3.90625 L 23.75 -3.90625 C 23.1875 -11.914062 20.953125 -18.34375 17.046875 -23.1875 L 10.890625 -9.21875 C 12.753906 -5.675781 16.484375 -3.90625 22.078125 -3.90625 Z M 22.078125 -3.90625 "/></g></g></g></svg>