<svg xmlns="http://www.w3.org/2000/svg" xmlns:xlink="http://www.w3.org/1999/xlink" width="1080" zoomAndPan="magnify" viewBox="0 0 810 809.999993" height="1080" preserveAspectRatio="xMidYMid meet" version="1.0"><defs><g/></defs><g fill="#de1516" fill-opacity="1"><g transform="translate(61.403329, 429.77912)"><g><path d="M 95.5 -102.34375 C 87.601562 -107.714844 74.863281 -108.453125 59.804688 -104.34375 C 58.015625 -103.921875 56.332031 -103.398438 54.542969 -102.765625 C 54.648438 -103.1875 54.753906 -103.609375 54.855469 -104.027344 C 55.066406 -105.082031 54.332031 -106.136719 53.277344 -106.449219 C 52.226562 -106.660156 51.066406 -105.925781 50.855469 -104.871094 C 50.644531 -103.714844 50.328125 -102.449219 50.015625 -101.082031 C 39.484375 -96.972656 29.375 -91.078125 21.480469 -84.128906 C 6.527344 -71.074219 1.578125 -56.542969 7.898438 -44.011719 C 8.316406 -43.066406 9.582031 -42.644531 10.527344 -43.171875 C 11.582031 -43.589844 12.003906 -44.855469 11.476562 -45.90625 C 8.316406 -52.121094 5.792969 -65.070312 24.113281 -81.074219 C 30.957031 -87.078125 39.695312 -92.339844 48.855469 -96.238281 C 46.433594 -85.707031 42.960938 -71.386719 39.0625 -55.488281 C 32.957031 -30.640625 26.113281 -2.527344 21.164062 19.480469 C 18.425781 31.585938 16.53125 40.539062 15.476562 46.960938 C 13.6875 57.699219 14.109375 59.804688 16.214844 60.542969 C 16.425781 60.648438 16.742188 60.648438 17.058594 60.648438 C 18.953125 60.648438 20.425781 58.121094 22.847656 52.644531 C 23.375 51.699219 22.847656 50.433594 21.902344 50.015625 C 20.847656 49.59375 19.585938 50.015625 19.164062 51.066406 C 19.058594 51.382812 18.847656 51.699219 18.742188 51.910156 C 20.425781 39.695312 27.164062 10.738281 34.113281 -18.003906 C 36.640625 -12.636719 41.378906 -9.371094 47.59375 -8.949219 C 48.011719 -8.949219 48.539062 -8.949219 48.960938 -8.949219 C 56.964844 -8.949219 66.441406 -13.582031 75.074219 -21.796875 C 85.496094 -31.691406 94.34375 -46.222656 100.660156 -63.914062 C 108.976562 -87.078125 102.449219 -97.605469 95.5 -102.34375 Z M 96.867188 -65.28125 C 89.183594 -43.800781 79.285156 -31.378906 72.230469 -24.636719 C 63.914062 -16.742188 55.066406 -12.53125 47.90625 -13.054688 C 41.90625 -13.371094 37.90625 -17.058594 36.640625 -23.375 C 36.429688 -23.902344 36.117188 -24.324219 35.695312 -24.636719 C 38.222656 -35.0625 40.75 -45.277344 42.960938 -54.542969 C 47.171875 -71.914062 50.960938 -87.289062 53.488281 -98.132812 C 55.910156 -98.976562 58.4375 -99.816406 60.859375 -100.449219 C 74.652344 -104.132812 86.445312 -103.609375 93.289062 -98.976562 C 103.609375 -91.921875 100.976562 -76.757812 96.867188 -65.28125 Z M 96.867188 -65.28125 "/></g></g></g><g fill="#de1516" fill-opacity="1"><g transform="translate(154.261315, 429.77912)"><g><path d="M 38.117188 -22.847656 C 37.167969 -23.585938 35.90625 -23.375 35.273438 -22.53125 C 30.851562 -16.847656 23.585938 -12.109375 18.003906 -13.160156 C 18.109375 -13.898438 18.214844 -14.636719 18.214844 -15.371094 C 18.953125 -27.269531 15.265625 -29.691406 13.054688 -30.113281 C 10.527344 -30.640625 7.898438 -28.746094 6.632812 -25.585938 C 6.105469 -25.796875 5.476562 -25.796875 4.949219 -25.375 C 0.738281 -22.742188 -2.738281 -16.003906 -0.84375 -8.738281 C 0.421875 -4.421875 3.371094 -1.683594 7.265625 -1.683594 C 10.949219 -1.683594 14.847656 -4.421875 16.847656 -9.265625 C 24.21875 -7.6875 33.0625 -13.160156 38.433594 -20.003906 C 39.167969 -20.953125 38.957031 -22.214844 38.117188 -22.847656 Z M 7.371094 -5.6875 C 7.265625 -5.6875 7.265625 -5.6875 7.265625 -5.6875 C 4.632812 -5.792969 3.476562 -8.316406 3.160156 -9.792969 C 2.105469 -13.371094 2.949219 -18.320312 5.894531 -21.058594 C 6.105469 -17.480469 8.109375 -13.582031 13.160156 -10.84375 C 11.6875 -7.476562 9.160156 -5.6875 7.371094 -5.6875 Z M 14.214844 -15.582031 C 14.109375 -15.371094 14.109375 -15.164062 14.109375 -14.953125 C 10.109375 -17.582031 9.476562 -20.953125 10.214844 -23.585938 C 10.738281 -25.269531 11.792969 -26.113281 12.320312 -26.113281 C 12.84375 -26.007812 14.636719 -24.007812 14.214844 -15.582031 Z M 14.214844 -15.582031 "/></g></g></g><g fill="#de1516" fill-opacity="1"><g transform="translate(187.951289, 429.77912)"><g><path d="M 41.90625 -22.742188 C 40.957031 -23.269531 39.695312 -22.953125 39.167969 -22.007812 C 29.167969 -6 20.742188 1.160156 18.953125 0.527344 C 18.953125 0.527344 16.847656 -0.632812 18.847656 -12.742188 C 19.585938 -16.847656 19.898438 -19.164062 17.898438 -20.003906 C 16.003906 -20.742188 14.847656 -19.164062 12.636719 -16.003906 C 10.84375 -13.476562 8.421875 -10.109375 5.792969 -7.792969 C 5.476562 -7.582031 4.316406 -6.527344 3.789062 -6.949219 C 2.210938 -8.210938 1.894531 -15.058594 5.582031 -21.375 C 6.210938 -22.320312 5.792969 -23.585938 4.84375 -24.21875 C 3.894531 -24.742188 2.632812 -24.429688 2.105469 -23.480469 C -2.105469 -16.109375 -2.527344 -6.949219 1.160156 -3.894531 C 2.105469 -3.054688 4.738281 -1.578125 8.421875 -4.632812 C 10.84375 -6.738281 12.949219 -9.476562 14.636719 -11.792969 C 13.160156 -2 14.003906 2.949219 17.480469 4.316406 C 18.003906 4.527344 18.53125 4.527344 18.953125 4.527344 C 26.953125 4.527344 39.90625 -15.6875 42.539062 -19.898438 C 43.171875 -20.847656 42.855469 -22.113281 41.90625 -22.742188 Z M 41.90625 -22.742188 "/></g></g></g><g fill="#de1516" fill-opacity="1"><g transform="translate(225.641945, 429.77912)"><g><path d="M 46.222656 -23.796875 C 45.171875 -24.324219 43.90625 -23.902344 43.484375 -22.847656 C 31.378906 2.632812 19.898438 15.6875 17.375 15.265625 C 17.164062 15.164062 13.476562 11.582031 25.375 -24.953125 C 25.691406 -25.902344 26.429688 -28.113281 24.742188 -29.269531 C 23.164062 -30.535156 21.375 -29.375 18.425781 -27.375 C 15.265625 -25.375 10.949219 -22.53125 7.582031 -22.953125 C 18.320312 -41.484375 17.269531 -45.589844 14.847656 -47.171875 C 11.054688 -49.382812 5.582031 -42.960938 3.054688 -39.273438 C -2.105469 -31.273438 -2 -24.007812 3.476562 -20.320312 C 9.054688 -16.425781 16.320312 -21.164062 20.636719 -24.007812 C 20.742188 -24.113281 20.742188 -24.113281 20.847656 -24.21875 C 16.742188 -11.265625 14.109375 -1.054688 13.160156 6 C 12.003906 13.792969 12.84375 17.898438 15.792969 19.058594 C 16.320312 19.164062 16.742188 19.269531 17.269531 19.269531 C 25.691406 19.269531 40.328125 -6.632812 47.171875 -21.058594 C 47.59375 -22.113281 47.171875 -23.375 46.222656 -23.796875 Z M 3.683594 -31.0625 C 5.160156 -36.746094 10.109375 -42.011719 12.320312 -43.273438 C 12.109375 -41.589844 10.949219 -36.851562 4.210938 -25.164062 C 3.476562 -26.324219 2.949219 -28.113281 3.683594 -31.0625 Z M 3.683594 -31.0625 "/></g></g></g><g fill="#de1516" fill-opacity="1"><g transform="translate(267.649131, 429.77912)"><g><path d="M 36.640625 -22.847656 C 35.695312 -23.269531 34.429688 -22.847656 34.007812 -21.796875 C 31.167969 -15.6875 24.847656 4.738281 18.109375 26.21875 C 13.371094 41.167969 8.003906 58.648438 4.210938 69.492188 C 7.371094 49.910156 16.636719 -5.894531 19.691406 -21.269531 C 19.898438 -22.113281 19.375 -23.058594 18.53125 -23.480469 C 17.6875 -23.902344 16.636719 -23.585938 16.109375 -22.847656 C 15.476562 -22.113281 14.742188 -21.058594 14.003906 -20.003906 C 11.476562 -16.53125 8.003906 -11.6875 3.894531 -7.371094 C 2.316406 -5.6875 1.472656 -5.371094 1.160156 -5.265625 C 0.421875 -6.421875 0.738281 -12.109375 4.105469 -17.898438 C 6.316406 -21.902344 11.582031 -28.21875 20.320312 -25.902344 C 21.480469 -25.691406 22.53125 -26.324219 22.847656 -27.375 C 23.058594 -28.535156 22.425781 -29.585938 21.375 -29.902344 C 10.320312 -32.640625 2.632812 -25.058594 -0.949219 -17.058594 C -3.476562 -11.160156 -4.316406 -4 -0.949219 -1.789062 C 0.527344 -0.84375 3.054688 -0.527344 6.84375 -4.632812 C 9.582031 -7.476562 12.003906 -10.527344 14.109375 -13.265625 C 9.265625 13.265625 -0.421875 72.441406 -0.84375 75.707031 C -1.367188 79.496094 -1.789062 82.761719 0.738281 83.285156 C 0.949219 83.390625 1.054688 83.390625 1.261719 83.390625 C 3.054688 83.390625 4.105469 81.074219 5.476562 77.496094 C 6.632812 74.652344 8.109375 70.546875 10.003906 64.964844 C 13.476562 54.648438 17.792969 40.851562 21.902344 27.480469 C 28.324219 6.949219 34.957031 -14.214844 37.695312 -20.109375 C 38.117188 -21.164062 37.695312 -22.320312 36.640625 -22.847656 Z M 36.640625 -22.847656 "/></g></g></g><g fill="#de1516" fill-opacity="1"><g transform="translate(300.812711, 429.77912)"><g><path d="M 41.90625 -22.742188 C 40.957031 -23.269531 39.695312 -22.953125 39.167969 -22.007812 C 29.167969 -6 20.742188 1.160156 18.953125 0.527344 C 18.953125 0.527344 16.847656 -0.632812 18.847656 -12.742188 C 19.585938 -16.847656 19.898438 -19.164062 17.898438 -20.003906 C 16.003906 -20.742188 14.847656 -19.164062 12.636719 -16.003906 C 10.84375 -13.476562 8.421875 -10.109375 5.792969 -7.792969 C 5.476562 -7.582031 4.316406 -6.527344 3.789062 -6.949219 C 2.210938 -8.210938 1.894531 -15.058594 5.582031 -21.375 C 6.210938 -22.320312 5.792969 -23.585938 4.84375 -24.21875 C 3.894531 -24.742188 2.632812 -24.429688 2.105469 -23.480469 C -2.105469 -16.109375 -2.527344 -6.949219 1.160156 -3.894531 C 2.105469 -3.054688 4.738281 -1.578125 8.421875 -4.632812 C 10.84375 -6.738281 12.949219 -9.476562 14.636719 -11.792969 C 13.160156 -2 14.003906 2.949219 17.480469 4.316406 C 18.003906 4.527344 18.53125 4.527344 18.953125 4.527344 C 26.953125 4.527344 39.90625 -15.6875 42.539062 -19.898438 C 43.171875 -20.847656 42.855469 -22.113281 41.90625 -22.742188 Z M 41.90625 -22.742188 "/></g></g></g><g fill="#de1516" fill-opacity="1"><g transform="translate(338.503367, 429.77912)"><g><path d="M 38.117188 -22.847656 C 37.167969 -23.585938 35.90625 -23.375 35.273438 -22.53125 C 30.851562 -16.847656 23.585938 -12.109375 18.003906 -13.160156 C 18.109375 -13.898438 18.214844 -14.636719 18.214844 -15.371094 C 18.953125 -27.269531 15.265625 -29.691406 13.054688 -30.113281 C 10.527344 -30.640625 7.898438 -28.746094 6.632812 -25.585938 C 6.105469 -25.796875 5.476562 -25.796875 4.949219 -25.375 C 0.738281 -22.742188 -2.738281 -16.003906 -0.84375 -8.738281 C 0.421875 -4.421875 3.371094 -1.683594 7.265625 -1.683594 C 10.949219 -1.683594 14.847656 -4.421875 16.847656 -9.265625 C 24.21875 -7.6875 33.0625 -13.160156 38.433594 -20.003906 C 39.167969 -20.953125 38.957031 -22.214844 38.117188 -22.847656 Z M 7.371094 -5.6875 C 7.265625 -5.6875 7.265625 -5.6875 7.265625 -5.6875 C 4.632812 -5.792969 3.476562 -8.316406 3.160156 -9.792969 C 2.105469 -13.371094 2.949219 -18.320312 5.894531 -21.058594 C 6.105469 -17.480469 8.109375 -13.582031 13.160156 -10.84375 C 11.6875 -7.476562 9.160156 -5.6875 7.371094 -5.6875 Z M 14.214844 -15.582031 C 14.109375 -15.371094 14.109375 -15.164062 14.109375 -14.953125 C 10.109375 -17.582031 9.476562 -20.953125 10.214844 -23.585938 C 10.738281 -25.269531 11.792969 -26.113281 12.320312 -26.113281 C 12.84375 -26.007812 14.636719 -24.007812 14.214844 -15.582031 Z M 14.214844 -15.582031 "/></g></g></g><g fill="#de1516" fill-opacity="1"><g transform="translate(372.193353, 429.77912)"><g><path d="M 30.746094 -23.902344 C 29.796875 -24.53125 28.640625 -24.21875 28.007812 -23.269531 C 20.953125 -11.898438 9.160156 -1.160156 5.582031 -2.632812 C 5.160156 -2.84375 1.789062 -4.84375 6.421875 -22.636719 C 6.632812 -23.796875 6 -24.847656 4.949219 -25.164062 C 3.789062 -25.375 2.738281 -24.742188 2.421875 -23.691406 C -1.367188 -8.84375 -0.84375 -0.949219 3.894531 1.054688 C 4.632812 1.367188 5.371094 1.472656 6.105469 1.472656 C 14.003906 1.472656 26.113281 -12.636719 31.484375 -21.164062 C 32.007812 -22.113281 31.691406 -23.375 30.746094 -23.902344 Z M 5.894531 -32.429688 C 11.265625 -32.113281 11.160156 -38.851562 6.84375 -37.378906 C 4.632812 -36.746094 1.789062 -32.640625 5.894531 -32.429688 Z M 5.894531 -32.429688 "/></g></g></g><g fill="#de1516" fill-opacity="1"><g transform="translate(398.829475, 429.77912)"><g/></g></g><g fill="#de1516" fill-opacity="1"><g transform="translate(431.150793, 429.77912)"><g><path d="M 44.960938 -87.917969 C 44.222656 -88.550781 43.273438 -88.761719 42.328125 -88.550781 C 37.800781 -87.078125 29.691406 -65.070312 21.902344 -28.851562 C 21.691406 -28.21875 21.375 -27.691406 21.058594 -27.058594 C 20.53125 -31.167969 17.792969 -32.324219 16.847656 -32.640625 C 12.320312 -34.007812 5.160156 -29.902344 0.210938 -19.375 C -3.578125 -11.476562 -4.316406 -1.160156 0.421875 1.578125 C 2.738281 2.949219 6.738281 2.738281 12.53125 -5.6875 C 15.058594 -9.265625 17.269531 -12.742188 19.375 -16.109375 C 18.214844 -10.109375 17.058594 -3.789062 16.003906 2.84375 C 14.003906 14.636719 12.53125 24.53125 11.6875 31.691406 C 10.003906 45.695312 10.84375 47.59375 12.949219 48.222656 C 13.160156 48.328125 13.476562 48.328125 13.6875 48.328125 C 15.582031 48.328125 16.847656 45.90625 17.480469 44.328125 C 18.003906 43.378906 17.582031 42.117188 16.53125 41.695312 C 16.003906 41.378906 15.371094 41.378906 14.847656 41.589844 C 15.058594 37.0625 16.109375 26.746094 20.003906 3.578125 C 21.902344 -8.003906 23.902344 -18.320312 25.796875 -27.375 C 33.695312 -42.328125 37.695312 -54.960938 40.957031 -64.964844 C 41.378906 -66.230469 41.800781 -67.386719 42.117188 -68.441406 C 47.699219 -85.179688 45.589844 -87.183594 44.960938 -87.917969 Z M 9.160156 -8.003906 C 5.160156 -2.210938 2.949219 -1.683594 2.421875 -1.894531 C 0.84375 -2.84375 0.316406 -10.109375 3.894531 -17.6875 C 7.476562 -25.269531 12.320312 -28.851562 14.953125 -28.851562 C 15.265625 -28.851562 15.476562 -28.851562 15.6875 -28.746094 C 17.375 -28.324219 17.058594 -25.269531 16.953125 -24.429688 C 16.847656 -23.480469 17.375 -22.53125 18.320312 -22.214844 C 15.6875 -17.6875 12.636719 -12.949219 9.160156 -8.003906 Z M 38.328125 -69.703125 C 37.90625 -68.652344 37.484375 -67.492188 37.167969 -66.230469 C 35.273438 -60.542969 33.167969 -54.121094 30.324219 -46.855469 C 34.746094 -64.332031 38.746094 -75.285156 41.273438 -80.757812 C 40.851562 -78.230469 39.90625 -74.652344 38.328125 -69.703125 Z M 38.328125 -69.703125 "/></g></g></g><g fill="#de1516" fill-opacity="1"><g transform="translate(464.10378, 429.77912)"><g><path d="M 38.117188 -22.847656 C 37.167969 -23.585938 35.90625 -23.375 35.273438 -22.53125 C 30.851562 -16.847656 23.585938 -12.109375 18.003906 -13.160156 C 18.109375 -13.898438 18.214844 -14.636719 18.214844 -15.371094 C 18.953125 -27.269531 15.265625 -29.691406 13.054688 -30.113281 C 10.527344 -30.640625 7.898438 -28.746094 6.632812 -25.585938 C 6.105469 -25.796875 5.476562 -25.796875 4.949219 -25.375 C 0.738281 -22.742188 -2.738281 -16.003906 -0.84375 -8.738281 C 0.421875 -4.421875 3.371094 -1.683594 7.265625 -1.683594 C 10.949219 -1.683594 14.847656 -4.421875 16.847656 -9.265625 C 24.21875 -7.6875 33.0625 -13.160156 38.433594 -20.003906 C 39.167969 -20.953125 38.957031 -22.214844 38.117188 -22.847656 Z M 7.371094 -5.6875 C 7.265625 -5.6875 7.265625 -5.6875 7.265625 -5.6875 C 4.632812 -5.792969 3.476562 -8.316406 3.160156 -9.792969 C 2.105469 -13.371094 2.949219 -18.320312 5.894531 -21.058594 C 6.105469 -17.480469 8.109375 -13.582031 13.160156 -10.84375 C 11.6875 -7.476562 9.160156 -5.6875 7.371094 -5.6875 Z M 14.214844 -15.582031 C 14.109375 -15.371094 14.109375 -15.164062 14.109375 -14.953125 C 10.109375 -17.582031 9.476562 -20.953125 10.214844 -23.585938 C 10.738281 -25.269531 11.792969 -26.113281 12.320312 -26.113281 C 12.84375 -26.007812 14.636719 -24.007812 14.214844 -15.582031 Z M 14.214844 -15.582031 "/></g></g></g><g fill="#de1516" fill-opacity="1"><g transform="translate(497.793765, 429.77912)"><g><path d="M 42.328125 -23.480469 C 41.378906 -24.007812 40.117188 -23.691406 39.589844 -22.636719 C 37.0625 -18.320312 30.429688 -6.632812 26.640625 -7.054688 C 25.902344 -7.160156 23.796875 -8.210938 21.691406 -15.582031 C 20.214844 -20.742188 18.214844 -25.585938 14.320312 -25.796875 C 11.476562 -26.007812 8.316406 -23.796875 3.476562 -14.742188 C 4.738281 -19.269531 6.105469 -23.796875 7.160156 -27.480469 C 7.582031 -28.851562 7.898438 -30.007812 8.210938 -31.167969 C 8.527344 -32.21875 7.898438 -33.378906 6.84375 -33.695312 C 5.792969 -34.007812 4.632812 -33.378906 4.316406 -32.21875 C 4 -31.167969 3.683594 -29.902344 3.265625 -28.640625 C 0.527344 -19.269531 -3.578125 -5.054688 -4.632812 3.578125 C -4.738281 4.527344 -4.105469 5.476562 -3.160156 5.6875 C -2.949219 5.792969 -2.84375 5.792969 -2.632812 5.792969 C -1.789062 5.792969 -1.054688 5.265625 -0.738281 4.527344 C 9.160156 -20.109375 13.160156 -21.796875 14.109375 -21.796875 C 14.320312 -21.796875 15.792969 -21.375 17.792969 -14.425781 C 19.898438 -7.160156 22.636719 -3.476562 26.21875 -3.054688 C 31.585938 -2.421875 36.429688 -9.054688 43.066406 -20.636719 C 43.695312 -21.691406 43.273438 -22.847656 42.328125 -23.480469 Z M 42.328125 -23.480469 "/></g></g></g><g fill="#de1516" fill-opacity="1"><g transform="translate(535.379136, 429.77912)"><g><path d="M 42.328125 -23.480469 C 41.378906 -24.007812 40.117188 -23.691406 39.589844 -22.636719 C 37.0625 -18.320312 30.429688 -6.632812 26.640625 -7.054688 C 25.902344 -7.160156 23.796875 -8.210938 21.691406 -15.582031 C 20.214844 -20.742188 18.214844 -25.585938 14.320312 -25.796875 C 11.476562 -26.007812 8.316406 -23.796875 3.476562 -14.742188 C 4.738281 -19.269531 6.105469 -23.796875 7.160156 -27.480469 C 7.582031 -28.851562 7.898438 -30.007812 8.210938 -31.167969 C 8.527344 -32.21875 7.898438 -33.378906 6.84375 -33.695312 C 5.792969 -34.007812 4.632812 -33.378906 4.316406 -32.21875 C 4 -31.167969 3.683594 -29.902344 3.265625 -28.640625 C 0.527344 -19.269531 -3.578125 -5.054688 -4.632812 3.578125 C -4.738281 4.527344 -4.105469 5.476562 -3.160156 5.6875 C -2.949219 5.792969 -2.84375 5.792969 -2.632812 5.792969 C -1.789062 5.792969 -1.054688 5.265625 -0.738281 4.527344 C 9.160156 -20.109375 13.160156 -21.796875 14.109375 -21.796875 C 14.320312 -21.796875 15.792969 -21.375 17.792969 -14.425781 C 19.898438 -7.160156 22.636719 -3.476562 26.21875 -3.054688 C 31.585938 -2.421875 36.429688 -9.054688 43.066406 -20.636719 C 43.695312 -21.691406 43.273438 -22.847656 42.328125 -23.480469 Z M 42.328125 -23.480469 "/></g></g></g><g fill="#de1516" fill-opacity="1"><g transform="translate(572.964508, 429.77912)"><g><path d="M 35.589844 -23.480469 C 34.640625 -24.113281 33.378906 -23.902344 32.746094 -22.953125 C 24.847656 -11.898438 18.425781 -4.949219 12.109375 -0.421875 C 8.949219 1.789062 5.894531 2.210938 3.894531 0.738281 C 2.632812 -0.210938 -1.261719 -4.421875 3.265625 -19.164062 C 13.476562 -27.585938 19.058594 -35.589844 17.582031 -39.800781 C 17.058594 -41.0625 15.792969 -41.90625 14.425781 -41.90625 C 10.214844 -41.800781 3.789062 -34.535156 -0.421875 -20.953125 C -5.582031 -4.210938 -1.367188 1.894531 1.578125 4 C 3.054688 5.160156 4.738281 5.6875 6.632812 5.6875 C 9.054688 5.6875 11.792969 4.738281 14.425781 2.84375 C 21.164062 -2 27.796875 -9.160156 36.011719 -20.636719 C 36.640625 -21.585938 36.429688 -22.847656 35.589844 -23.480469 Z M 13.582031 -37.484375 C 13.160156 -35.800781 11.371094 -32.429688 6.421875 -27.375 C 9.160156 -33.484375 12.109375 -36.429688 13.582031 -37.484375 Z M 13.582031 -37.484375 "/></g></g></g><g fill="#de1516" fill-opacity="1"><g transform="translate(603.601301, 429.77912)"><g><path d="M 46.222656 -23.796875 C 45.171875 -24.324219 43.90625 -23.902344 43.484375 -22.847656 C 31.378906 2.632812 19.898438 15.6875 17.375 15.265625 C 17.164062 15.164062 13.476562 11.582031 25.375 -24.953125 C 25.691406 -25.902344 26.429688 -28.113281 24.742188 -29.269531 C 23.164062 -30.535156 21.375 -29.375 18.425781 -27.375 C 15.265625 -25.375 10.949219 -22.53125 7.582031 -22.953125 C 18.320312 -41.484375 17.269531 -45.589844 14.847656 -47.171875 C 11.054688 -49.382812 5.582031 -42.960938 3.054688 -39.273438 C -2.105469 -31.273438 -2 -24.007812 3.476562 -20.320312 C 9.054688 -16.425781 16.320312 -21.164062 20.636719 -24.007812 C 20.742188 -24.113281 20.742188 -24.113281 20.847656 -24.21875 C 16.742188 -11.265625 14.109375 -1.054688 13.160156 6 C 12.003906 13.792969 12.84375 17.898438 15.792969 19.058594 C 16.320312 19.164062 16.742188 19.269531 17.269531 19.269531 C 25.691406 19.269531 40.328125 -6.632812 47.171875 -21.058594 C 47.59375 -22.113281 47.171875 -23.375 46.222656 -23.796875 Z M 3.683594 -31.0625 C 5.160156 -36.746094 10.109375 -42.011719 12.320312 -43.273438 C 12.109375 -41.589844 10.949219 -36.851562 4.210938 -25.164062 C 3.476562 -26.324219 2.949219 -28.113281 3.683594 -31.0625 Z M 3.683594 -31.0625 "/></g></g></g><g fill="#de1516" fill-opacity="1"><g transform="translate(645.608486, 429.77912)"><g/></g></g><g fill="#de1516" fill-opacity="1"><g transform="translate(677.929804, 429.77912)"><g><path d="M 44.960938 -87.917969 C 44.222656 -88.550781 43.273438 -88.761719 42.328125 -88.550781 C 37.800781 -87.078125 29.691406 -65.070312 21.902344 -28.851562 C 21.691406 -28.21875 21.375 -27.691406 21.058594 -27.058594 C 20.53125 -31.167969 17.792969 -32.324219 16.847656 -32.640625 C 12.320312 -34.007812 5.160156 -29.902344 0.210938 -19.375 C -3.578125 -11.476562 -4.316406 -1.160156 0.421875 1.578125 C 2.738281 2.949219 6.738281 2.738281 12.53125 -5.6875 C 15.058594 -9.265625 17.269531 -12.742188 19.375 -16.109375 C 18.214844 -10.109375 17.058594 -3.789062 16.003906 2.84375 C 14.003906 14.636719 12.53125 24.53125 11.6875 31.691406 C 10.003906 45.695312 10.84375 47.59375 12.949219 48.222656 C 13.160156 48.328125 13.476562 48.328125 13.6875 48.328125 C 15.582031 48.328125 16.847656 45.90625 17.480469 44.328125 C 18.003906 43.378906 17.582031 42.117188 16.53125 41.695312 C 16.003906 41.378906 15.371094 41.378906 14.847656 41.589844 C 15.058594 37.0625 16.109375 26.746094 20.003906 3.578125 C 21.902344 -8.003906 23.902344 -18.320312 25.796875 -27.375 C 33.695312 -42.328125 37.695312 -54.960938 40.957031 -64.964844 C 41.378906 -66.230469 41.800781 -67.386719 42.117188 -68.441406 C 47.699219 -85.179688 45.589844 -87.183594 44.960938 -87.917969 Z M 9.160156 -8.003906 C 5.160156 -2.210938 2.949219 -1.683594 2.421875 -1.894531 C 0.84375 -2.84375 0.316406 -10.109375 3.894531 -17.6875 C 7.476562 -25.269531 12.320312 -28.851562 14.953125 -28.851562 C 15.265625 -28.851562 15.476562 -28.851562 15.6875 -28.746094 C 17.375 -28.324219 17.058594 -25.269531 16.953125 -24.429688 C 16.847656 -23.480469 17.375 -22.53125 18.320312 -22.214844 C 15.6875 -17.6875 12.636719 -12.949219 9.160156 -8.003906 Z M 38.328125 -69.703125 C 37.90625 -68.652344 37.484375 -67.492188 37.167969 -66.230469 C 35.273438 -60.542969 33.167969 -54.121094 30.324219 -46.855469 C 34.746094 -64.332031 38.746094 -75.285156 41.273438 -80.757812 C 40.851562 -78.230469 39.90625 -74.652344 38.328125 -69.703125 Z M 38.328125 -69.703125 "/></g></g></g><g fill="#de1516" fill-opacity="1"><g transform="translate(710.882791, 429.77912)"><g><path d="M 41.90625 -22.742188 C 40.957031 -23.269531 39.695312 -22.953125 39.167969 -22.007812 C 29.167969 -6 20.742188 1.160156 18.953125 0.527344 C 18.953125 0.527344 16.847656 -0.632812 18.847656 -12.742188 C 19.585938 -16.847656 19.898438 -19.164062 17.898438 -20.003906 C 16.003906 -20.742188 14.847656 -19.164062 12.636719 -16.003906 C 10.84375 -13.476562 8.421875 -10.109375 5.792969 -7.792969 C 5.476562 -7.582031 4.316406 -6.527344 3.789062 -6.949219 C 2.210938 -8.210938 1.894531 -15.058594 5.582031 -21.375 C 6.210938 -22.320312 5.792969 -23.585938 4.84375 -24.21875 C 3.894531 -24.742188 2.632812 -24.429688 2.105469 -23.480469 C -2.105469 -16.109375 -2.527344 -6.949219 1.160156 -3.894531 C 2.105469 -3.054688 4.738281 -1.578125 8.421875 -4.632812 C 10.84375 -6.738281 12.949219 -9.476562 14.636719 -11.792969 C 13.160156 -2 14.003906 2.949219 17.480469 4.316406 C 18.003906 4.527344 18.53125 4.527344 18.953125 4.527344 C 26.953125 4.527344 39.90625 -15.6875 42.539062 -19.898438 C 43.171875 -20.847656 42.855469 -22.113281 41.90625 -22.742188 Z M 41.90625 -22.742188 "/></g></g></g><g fill="#de1516" fill-opacity="1"><g transform="translate(748.579079, 429.77912)"><g/></g></g><g fill="#de1516" fill-opacity="1"><g transform="translate(780.900398, 429.77912)"><g/></g></g><g fill="#de1516" fill-opacity="1"><g transform="translate(323.715816, 531.779115)"><g><path d="M 46.855469 -24.113281 C 46.011719 -24.847656 44.75 -24.742188 44.011719 -23.902344 C 35.695312 -14.320312 22.636719 0.949219 20.53125 3.683594 C 19.898438 4.421875 19.269531 5.265625 18.636719 6.105469 C 17.792969 4 16.742188 2 15.371094 -0.105469 C 10.320312 -7.898438 5.792969 -15.265625 6 -20.425781 C 6.210938 -24.53125 8.316406 -28.113281 11.792969 -30.21875 C 14.636719 -31.902344 17.792969 -32.21875 20.214844 -31.0625 C 21.164062 -30.640625 22.425781 -31.0625 22.847656 -32.113281 C 23.375 -33.0625 22.953125 -34.324219 21.902344 -34.746094 C 18.320312 -36.429688 13.6875 -36.011719 9.6875 -33.695312 C 5.054688 -30.851562 2.316406 -26.113281 2 -20.636719 C 1.683594 -14.214844 6.316406 -6.527344 12.003906 2.105469 C 13.792969 4.84375 14.953125 7.476562 15.6875 10.003906 C 7.476562 21.164062 -1.367188 35.484375 3.160156 39.90625 C 3.894531 40.644531 4.84375 40.957031 5.792969 40.957031 C 7.476562 40.957031 9.371094 40.117188 11.371094 38.535156 C 17.058594 33.800781 22.953125 23.058594 20.109375 10.84375 C 21.269531 9.371094 22.425781 7.792969 23.691406 6.210938 C 25.796875 3.578125 38.851562 -11.6875 47.066406 -21.269531 C 47.804688 -22.113281 47.699219 -23.375 46.855469 -24.113281 Z M 12.636719 30.957031 C 9.792969 35.167969 6.949219 36.851562 6 36.957031 C 5.582031 35.484375 6.949219 29.375 16.742188 15.476562 C 17.164062 23.058594 14.003906 28.851562 12.636719 30.957031 Z M 12.636719 30.957031 "/></g></g></g><g fill="#de1516" fill-opacity="1"><g transform="translate(366.144132, 531.779115)"><g><path d="M 44.011719 -23.375 C 43.066406 -23.796875 41.800781 -23.375 41.378906 -22.425781 C 33.378906 -6.105469 27.375 -0.949219 24.53125 -1.472656 C 23.375 -1.683594 19.585938 -3.894531 18.636719 -22.320312 C 18.636719 -23.164062 18.003906 -23.902344 17.269531 -24.113281 C 16.425781 -24.324219 15.476562 -24.113281 15.058594 -23.375 C 14.425781 -22.636719 13.792969 -21.796875 13.160156 -20.847656 C 10.527344 -17.269531 7.054688 -12.425781 2.84375 -7.898438 C 2.210938 -7.160156 1.683594 -6.738281 1.367188 -6.527344 C 0.632812 -10.214844 4.527344 -24.324219 10.738281 -28.746094 C 12.53125 -30.007812 14.953125 -30.957031 18.214844 -27.164062 C 18.953125 -26.324219 20.214844 -26.21875 21.058594 -26.953125 C 21.902344 -27.585938 22.007812 -28.957031 21.375 -29.796875 C 17.375 -34.429688 13.582031 -34.324219 11.054688 -33.484375 C 2.949219 -30.640625 -2.527344 -15.058594 -2.738281 -7.898438 C -2.84375 -4.949219 -2 -3.054688 -0.316406 -2.421875 C 2.316406 -1.367188 4.949219 -4.210938 5.792969 -5.160156 C 9.371094 -9.054688 12.636719 -13.265625 14.953125 -16.53125 C 16.109375 -4.527344 18.953125 1.472656 23.691406 2.527344 C 24.113281 2.527344 24.53125 2.632812 24.953125 2.632812 C 32.113281 2.632812 39.800781 -9.898438 44.960938 -20.636719 C 45.488281 -21.691406 45.066406 -22.847656 44.011719 -23.375 Z M 44.011719 -23.375 "/></g></g></g><g fill="#de1516" fill-opacity="1"><g transform="translate(405.30873, 531.779115)"><g><path d="M 42.328125 -23.480469 C 41.378906 -24.007812 40.117188 -23.691406 39.589844 -22.636719 C 37.0625 -18.320312 30.429688 -6.632812 26.640625 -7.054688 C 25.902344 -7.160156 23.796875 -8.210938 21.691406 -15.582031 C 20.214844 -20.742188 18.214844 -25.585938 14.320312 -25.796875 C 11.476562 -26.007812 8.316406 -23.796875 3.476562 -14.742188 C 4.738281 -19.269531 6.105469 -23.796875 7.160156 -27.480469 C 7.582031 -28.851562 7.898438 -30.007812 8.210938 -31.167969 C 8.527344 -32.21875 7.898438 -33.378906 6.84375 -33.695312 C 5.792969 -34.007812 4.632812 -33.378906 4.316406 -32.21875 C 4 -31.167969 3.683594 -29.902344 3.265625 -28.640625 C 0.527344 -19.269531 -3.578125 -5.054688 -4.632812 3.578125 C -4.738281 4.527344 -4.105469 5.476562 -3.160156 5.6875 C -2.949219 5.792969 -2.84375 5.792969 -2.632812 5.792969 C -1.789062 5.792969 -1.054688 5.265625 -0.738281 4.527344 C 9.160156 -20.109375 13.160156 -21.796875 14.109375 -21.796875 C 14.320312 -21.796875 15.792969 -21.375 17.792969 -14.425781 C 19.898438 -7.160156 22.636719 -3.476562 26.21875 -3.054688 C 31.585938 -2.421875 36.429688 -9.054688 43.066406 -20.636719 C 43.695312 -21.691406 43.273438 -22.847656 42.328125 -23.480469 Z M 42.328125 -23.480469 "/></g></g></g><g fill="#de1516" fill-opacity="1"><g transform="translate(442.894113, 531.779115)"><g><path d="M 48.222656 -23.269531 C 47.59375 -24.21875 46.328125 -24.429688 45.488281 -23.902344 C 38.117188 -19.164062 28.640625 -12.949219 18.847656 -4.949219 C 19.898438 -12.214844 20.953125 -19.898438 22.007812 -28.113281 C 22.113281 -29.167969 21.480469 -30.007812 20.636719 -30.324219 C 19.691406 -30.640625 18.636719 -30.21875 18.214844 -29.375 C 16.425781 -26.429688 11.476562 -18.847656 7.371094 -13.371094 C 5.6875 -11.265625 4.738281 -10.425781 4.210938 -10.109375 C 3.160156 -13.476562 6.421875 -28.535156 13.054688 -34.429688 C 15.6875 -36.851562 18.109375 -36.851562 20.742188 -34.535156 C 21.585938 -33.800781 22.847656 -33.800781 23.585938 -34.640625 C 24.324219 -35.484375 24.21875 -36.746094 23.480469 -37.484375 C 19.269531 -41.273438 15.476562 -40.644531 13.054688 -39.378906 C 4.527344 -35.167969 -0.632812 -17.6875 0.105469 -10.632812 C 0.316406 -7.476562 1.789062 -6.316406 2.949219 -6 C 5.792969 -5.265625 8.527344 -8.210938 10.527344 -10.949219 C 12.636719 -13.6875 14.847656 -16.847656 16.847656 -19.691406 C 16.003906 -13.054688 15.058594 -6.84375 14.109375 -0.949219 C 2.84375 8.84375 -8.421875 21.164062 -16.953125 36.746094 C -23.375 48.328125 -25.480469 58.121094 -26.113281 64.226562 C -26.953125 72.230469 -25.796875 78.863281 -22.847656 82.445312 C -21.269531 84.445312 -19.269531 85.496094 -17.058594 85.496094 C -16.425781 85.496094 -15.6875 85.390625 -14.953125 85.179688 C -4.84375 82.339844 8.421875 58.332031 17.792969 1.160156 C 28.746094 -8.210938 39.484375 -15.164062 47.59375 -20.425781 C 48.539062 -21.058594 48.855469 -22.320312 48.222656 -23.269531 Z M -16.003906 81.285156 C -17.480469 81.707031 -18.636719 81.285156 -19.691406 79.917969 C -23.691406 74.96875 -24.324219 58.4375 -13.476562 38.746094 C -6.105469 25.375 3.371094 14.425781 12.949219 5.476562 C 3.371094 60.648438 -9.265625 79.390625 -16.003906 81.285156 Z M -16.003906 81.285156 "/></g></g></g></svg>