<svg xmlns="http://www.w3.org/2000/svg" xmlns:xlink="http://www.w3.org/1999/xlink" width="1080" zoomAndPan="magnify" viewBox="0 0 810 809.999993" height="1080" preserveAspectRatio="xMidYMid meet" version="1.0"><defs><clipPath id="9f1d5a3349"><path d="M 242 286 L 389 286 L 389 650.953125 L 242 650.953125 Z M 242 286 " clip-rule="nonzero"/></clipPath><clipPath id="19ac37ecbd"><path d="M 352 197 L 389 197 L 389 650.953125 L 352 650.953125 Z M 352 197 " clip-rule="nonzero"/></clipPath><clipPath id="d910a0ef8e"><path d="M 242 305 L 308 305 L 308 650.953125 L 242 650.953125 Z M 242 305 " clip-rule="nonzero"/></clipPath><clipPath id="4917a117e9"><path d="M 421 286 L 567 286 L 567 650.953125 L 421 650.953125 Z M 421 286 " clip-rule="nonzero"/></clipPath><clipPath id="e4359d75c3"><path d="M 421 197 L 458 197 L 458 650.953125 L 421 650.953125 Z M 421 197 " clip-rule="nonzero"/></clipPath><clipPath id="50265a9ba4"><path d="M 502 305 L 567 305 L 567 650.953125 L 502 650.953125 Z M 502 305 " clip-rule="nonzero"/></clipPath><clipPath id="fc20ce5aa4"><path d="M 296 183 L 514 183 L 514 375.632812 L 296 375.632812 Z M 296 183 " clip-rule="nonzero"/></clipPath></defs><path fill="#f6a575" d="M 300.746094 181.253906 C 300.746094 174.03125 296.761719 168.457031 289.542969 168.457031 C 282.324219 168.457031 278.574219 174.5 278.574219 181.722656 L 276.472656 297.949219 C 276.472656 305.167969 282.324219 311.019531 289.542969 311.019531 C 296.761719 311.019531 302.613281 296.265625 302.613281 289.042969 L 300.746094 181.253906 " fill-opacity="1" fill-rule="nonzero"/><path fill="#f6a575" d="M 361.441406 188.839844 C 361.441406 181.621094 356.992188 175.925781 349.765625 175.925781 C 342.546875 175.925781 338.097656 181.855469 338.097656 189.074219 L 336.695312 289.042969 C 336.695312 296.265625 342.546875 307.285156 349.765625 307.285156 C 356.992188 307.285156 362.84375 296.265625 362.84375 289.042969 L 361.441406 188.839844 " fill-opacity="1" fill-rule="nonzero"/><path fill="#f6a575" d="M 386.882812 208.222656 C 386.882812 202.480469 383.246094 197.914062 377.511719 197.914062 C 371.773438 197.914062 367.976562 202.597656 367.976562 208.335938 L 367.117188 289.042969 C 367.117188 294.78125 371.773438 307.285156 377.511719 307.285156 C 383.246094 307.285156 387.894531 302.632812 387.894531 296.898438 L 386.882812 208.222656 " fill-opacity="1" fill-rule="nonzero"/><path fill="#f6a575" d="M 332.027344 172.035156 C 332.027344 164.8125 327.574219 159.117188 320.355469 159.117188 C 313.136719 159.117188 308.800781 165.390625 308.800781 172.617188 L 307.285156 289.042969 C 307.285156 296.265625 313.136719 307.285156 320.355469 307.285156 C 327.574219 307.285156 333.425781 296.265625 333.425781 289.042969 L 332.027344 172.035156 " fill-opacity="1" fill-rule="nonzero"/><path fill="#f6a575" d="M 257.171875 314.445312 C 252.5 314.445312 242.898438 325.550781 243.289062 323.28125 C 245.421875 310.824219 245.28125 307.332031 245.1875 305.574219 C 244.753906 297.132812 243.472656 288.636719 240.882812 280.574219 C 240.03125 277.90625 239.085938 275.261719 237.816406 272.757812 C 236.886719 270.933594 235.632812 269.3125 234.484375 267.628906 C 233.125 265.640625 231.78125 263.65625 230.40625 261.679688 C 226.582031 256.175781 225.707031 247.136719 231.953125 244.707031 C 236.414062 242.972656 243.609375 242.691406 250.4375 247.105469 C 261.238281 254.09375 270.707031 270.175781 272.035156 296 C 272.378906 302.695312 266.671875 313.792969 259.976562 314.136719 C 259.765625 314.144531 257.382812 314.445312 257.171875 314.445312 " fill-opacity="1" fill-rule="nonzero"/><g clip-path="url(#9f1d5a3349)"><path fill="#f6a575" d="M 387.894531 289.042969 L 367.117188 289.042969 C 367.117188 289.042969 367.6875 292.4375 365.179688 292.4375 C 364.199219 292.4375 363.015625 292.558594 362.84375 289.042969 L 336.695312 289.042969 C 336.695312 289.042969 336.988281 291.796875 335.246094 291.730469 C 333.722656 291.667969 333.546875 290.921875 333.425781 289.042969 L 307.285156 289.042969 C 307.285156 289.042969 307.398438 291.621094 304.777344 291.683594 C 303.5625 291.707031 302.613281 291.183594 302.613281 289.042969 L 276.675781 286.394531 C 276.675781 286.394531 276.976562 299.429688 274.875 299.734375 C 272.5625 300.078125 272.433594 299.695312 271.878906 293.492188 L 245.347656 313.492188 C 245.347656 313.492188 232.914062 343.699219 265.136719 388.480469 C 268.308594 392.597656 271.523438 396.6875 274.667969 400.824219 C 277.136719 404.074219 279.632812 407.296875 282.09375 410.542969 C 291.855469 423.410156 288.683594 437.078125 287.808594 452.0625 C 286.40625 476.078125 286 500.175781 285.238281 524.214844 C 284.613281 543.578125 283.984375 562.9375 283.363281 582.304688 C 282.867188 597.867188 282.363281 613.429688 281.859375 628.992188 C 281.628906 636.152344 281.402344 643.316406 281.167969 650.472656 L 281.15625 650.941406 L 372.878906 650.941406 C 372.703125 645.09375 372.519531 639.25 372.339844 633.398438 C 371.894531 618.925781 371.449219 604.457031 371 589.984375 C 370.429688 571.207031 369.851562 552.425781 369.273438 533.644531 C 368.363281 503.96875 367.773438 474.273438 365.769531 444.640625 C 365.242188 436.835938 364.558594 428.941406 366.207031 421.214844 C 367.628906 414.566406 371.6875 409.226562 374.257812 403.046875 C 382.386719 383.527344 385.59375 362.792969 386.882812 341.78125 C 388.140625 321.242188 388.691406 309.613281 387.894531 289.042969 " fill-opacity="1" fill-rule="nonzero"/></g><g clip-path="url(#19ac37ecbd)"><path fill="#f59f74" d="M 387.894531 289.042969 L 387.804688 289.042969 L 386.882812 208.222656 C 386.882812 202.621094 383.414062 198.15625 377.921875 197.9375 C 379.234375 197.984375 380.195312 248.269531 380.253906 253.453125 C 380.339844 262.023438 380.242188 270.589844 379.972656 279.15625 C 379.011719 309.890625 384.5625 340.34375 375.03125 370.363281 C 369.632812 387.375 360.449219 404.535156 358.554688 422.4375 C 356.464844 442.167969 357.53125 462.34375 357.722656 482.15625 C 357.9375 503.835938 358.289062 525.519531 358.140625 547.203125 C 358 568.148438 357.558594 589.113281 356.8125 610.046875 C 356.328125 623.640625 356.0625 637.644531 352.828125 650.941406 C 364.507812 650.941406 372.878906 650.941406 372.878906 650.941406 C 372.703125 645.09375 372.519531 639.25 372.339844 633.398438 C 371.894531 618.925781 371.449219 604.457031 371 589.984375 C 370.429688 571.207031 369.851562 552.425781 369.273438 533.644531 C 368.363281 503.96875 367.773438 474.273438 365.769531 444.648438 C 365.242188 436.835938 364.558594 428.941406 366.207031 421.214844 C 367.628906 414.566406 371.6875 409.226562 374.257812 403.046875 C 382.386719 383.527344 385.59375 362.792969 386.882812 341.78125 C 388.140625 321.242188 388.691406 309.613281 387.894531 289.042969 " fill-opacity="1" fill-rule="nonzero"/></g><path fill="#ffffff" d="M 265.078125 388.402344 C 265.074219 388.394531 265.066406 388.390625 265.0625 388.378906 C 265.066406 388.382812 265.074219 388.394531 265.078125 388.402344 M 265.019531 388.320312 C 265.015625 388.316406 265.007812 388.304688 265.003906 388.296875 C 265.007812 388.304688 265.015625 388.316406 265.019531 388.320312 M 264.953125 388.222656 C 264.953125 388.222656 264.953125 388.222656 264.945312 388.222656 C 264.953125 388.222656 264.953125 388.222656 264.953125 388.222656 M 264.890625 388.136719 C 264.882812 388.136719 264.878906 388.125 264.878906 388.121094 C 264.878906 388.125 264.882812 388.136719 264.890625 388.136719 M 264.832031 388.0625 C 264.828125 388.050781 264.820312 388.046875 264.816406 388.039062 C 264.820312 388.046875 264.828125 388.050781 264.832031 388.0625 M 264.769531 387.964844 C 264.769531 387.964844 264.761719 387.960938 264.761719 387.960938 C 264.761719 387.964844 264.761719 387.964844 264.769531 387.964844 M 264.707031 387.878906 C 264.699219 387.875 264.695312 387.867188 264.6875 387.863281 C 264.695312 387.867188 264.699219 387.875 264.707031 387.878906 M 264.648438 387.800781 C 264.644531 387.792969 264.636719 387.789062 264.632812 387.777344 C 264.636719 387.789062 264.644531 387.792969 264.648438 387.800781 M 264.585938 387.714844 C 264.585938 387.707031 264.582031 387.703125 264.574219 387.695312 C 264.582031 387.703125 264.582031 387.707031 264.585938 387.714844 M 264.515625 387.621094 C 264.515625 387.617188 264.511719 387.609375 264.507812 387.597656 C 264.511719 387.609375 264.511719 387.609375 264.515625 387.621094 M 264.464844 387.542969 C 264.460938 387.53125 264.453125 387.523438 264.449219 387.519531 C 264.453125 387.523438 264.460938 387.535156 264.464844 387.542969 M 264.402344 387.457031 C 264.398438 387.449219 264.398438 387.445312 264.390625 387.4375 C 264.398438 387.445312 264.398438 387.449219 264.402344 387.457031 M 264.335938 387.363281 C 264.328125 387.351562 264.328125 387.347656 264.324219 387.339844 C 264.328125 387.347656 264.328125 387.351562 264.335938 387.363281 M 264.28125 387.285156 C 264.277344 387.273438 264.265625 387.265625 264.257812 387.253906 C 264.269531 387.265625 264.269531 387.273438 264.28125 387.285156 M 264.226562 387.203125 C 264.21875 387.191406 264.214844 387.1875 264.207031 387.175781 C 264.214844 387.1875 264.21875 387.191406 264.226562 387.203125 M 264.15625 387.101562 C 264.144531 387.09375 264.140625 387.082031 264.132812 387.078125 C 264.140625 387.082031 264.152344 387.09375 264.15625 387.101562 M 264.097656 387.027344 C 264.09375 387.015625 264.082031 387.003906 264.078125 386.992188 C 264.082031 387.003906 264.09375 387.015625 264.097656 387.027344 M 264.046875 386.945312 C 264.035156 386.941406 264.03125 386.929688 264.023438 386.917969 C 264.03125 386.929688 264.035156 386.941406 264.046875 386.945312 M 263.972656 386.847656 C 263.960938 386.832031 263.957031 386.824219 263.945312 386.808594 C 263.957031 386.820312 263.960938 386.832031 263.972656 386.847656 M 263.921875 386.773438 C 263.910156 386.757812 263.90625 386.746094 263.894531 386.730469 C 263.898438 386.746094 263.910156 386.757812 263.921875 386.773438 M 263.871094 386.699219 C 263.859375 386.683594 263.847656 386.664062 263.835938 386.652344 C 263.851562 386.671875 263.859375 386.683594 263.871094 386.699219 M 263.824219 386.632812 C 263.800781 386.601562 263.777344 386.574219 263.761719 386.539062 C 263.785156 386.574219 263.800781 386.601562 263.824219 386.632812 M 263.746094 386.515625 C 263.734375 386.5 263.722656 386.484375 263.710938 386.472656 C 263.722656 386.484375 263.734375 386.5 263.746094 386.515625 M 263.691406 386.441406 C 263.679688 386.425781 263.671875 386.40625 263.660156 386.390625 C 263.671875 386.40625 263.679688 386.425781 263.691406 386.441406 M 263.652344 386.386719 C 263.625 386.34375 263.601562 386.3125 263.574219 386.277344 C 263.601562 386.3125 263.625 386.34375 263.652344 386.386719 M 263.566406 386.257812 C 263.554688 386.242188 263.539062 386.226562 263.527344 386.207031 C 263.539062 386.226562 263.550781 386.242188 263.566406 386.257812 M 263.515625 386.191406 C 263.476562 386.128906 263.433594 386.070312 263.390625 386.011719 C 263.433594 386.070312 263.476562 386.128906 263.515625 386.191406 M 263.382812 386 C 263.371094 385.984375 263.359375 385.960938 263.34375 385.945312 C 263.359375 385.960938 263.371094 385.984375 263.382812 386 M 263.339844 385.933594 C 252.042969 369.566406 246.707031 355.246094 244.445312 343.753906 C 246.707031 355.246094 252.042969 369.574219 263.339844 385.933594 M 244.4375 343.734375 C 244.4375 343.726562 244.4375 343.714844 244.4375 343.710938 C 244.4375 343.722656 244.4375 343.722656 244.4375 343.734375 " fill-opacity="1" fill-rule="nonzero"/><path fill="#f6ae81" d="M 244.25 317.261719 C 245.371094 309.601562 245.261719 307.011719 245.1875 305.574219 C 244.753906 297.132812 243.472656 288.636719 240.882812 280.574219 C 240.03125 277.90625 239.085938 275.261719 237.816406 272.757812 C 236.886719 270.933594 235.632812 269.3125 234.484375 267.628906 C 233.125 265.640625 231.78125 263.65625 230.40625 261.679688 C 227.144531 256.976562 226.039062 249.710938 229.671875 246.171875 C 231.773438 247.621094 233.90625 249.023438 236.074219 250.417969 C 241.914062 254.167969 244.875 258.875 248.109375 264.902344 C 250.363281 269.105469 252.097656 273.699219 253.425781 278.480469 C 253.824219 285.996094 254.285156 293.515625 255.425781 301 C 255.648438 302.453125 255.859375 303.9375 256.078125 305.402344 L 256.085938 305.402344 L 245.347656 313.492188 C 245.347656 313.492188 244.8125 314.800781 244.25 317.261719 " fill-opacity="1" fill-rule="nonzero"/><g clip-path="url(#d910a0ef8e)"><path fill="#f6ae81" d="M 297.515625 650.941406 L 281.15625 650.941406 L 281.167969 650.472656 C 281.402344 643.316406 281.628906 636.152344 281.859375 628.992188 C 282.363281 613.429688 282.867188 597.867188 283.363281 582.304688 C 283.984375 562.9375 284.613281 543.578125 285.238281 524.214844 C 286 500.175781 286.40625 476.078125 287.808594 452.0625 C 288.183594 445.550781 289.003906 439.289062 289 433.230469 C 289 425.351562 287.617188 417.816406 282.09375 410.542969 C 279.632812 407.296875 277.136719 404.074219 274.667969 400.824219 C 271.523438 396.6875 268.308594 392.597656 265.136719 388.480469 C 265.117188 388.457031 265.09375 388.429688 265.078125 388.402344 C 265.074219 388.394531 265.066406 388.382812 265.0625 388.378906 C 265.050781 388.359375 265.03125 388.34375 265.019531 388.320312 C 265.015625 388.316406 265.007812 388.304688 265.003906 388.296875 C 264.988281 388.273438 264.96875 388.246094 264.953125 388.222656 C 264.953125 388.222656 264.953125 388.222656 264.945312 388.222656 C 264.929688 388.195312 264.914062 388.164062 264.890625 388.136719 C 264.882812 388.136719 264.878906 388.125 264.878906 388.121094 C 264.859375 388.101562 264.847656 388.078125 264.832031 388.0625 C 264.828125 388.050781 264.820312 388.046875 264.816406 388.039062 C 264.796875 388.011719 264.785156 387.988281 264.769531 387.964844 C 264.761719 387.964844 264.761719 387.964844 264.761719 387.960938 C 264.742188 387.929688 264.722656 387.910156 264.707031 387.878906 C 264.699219 387.875 264.695312 387.867188 264.6875 387.863281 C 264.675781 387.839844 264.667969 387.824219 264.648438 387.800781 C 264.644531 387.792969 264.636719 387.789062 264.632812 387.777344 C 264.613281 387.753906 264.601562 387.738281 264.585938 387.714844 C 264.582031 387.707031 264.582031 387.703125 264.574219 387.695312 C 264.558594 387.671875 264.539062 387.644531 264.515625 387.621094 C 264.511719 387.609375 264.511719 387.609375 264.507812 387.597656 C 264.496094 387.582031 264.476562 387.558594 264.464844 387.542969 C 264.460938 387.535156 264.453125 387.523438 264.449219 387.519531 C 264.429688 387.496094 264.421875 387.480469 264.402344 387.457031 C 264.398438 387.449219 264.398438 387.445312 264.390625 387.4375 C 264.375 387.414062 264.355469 387.386719 264.335938 387.363281 C 264.328125 387.351562 264.328125 387.347656 264.324219 387.339844 C 264.3125 387.324219 264.292969 387.300781 264.28125 387.285156 C 264.269531 387.273438 264.269531 387.265625 264.257812 387.253906 C 264.25 387.238281 264.238281 387.222656 264.226562 387.203125 C 264.21875 387.191406 264.214844 387.1875 264.207031 387.175781 C 264.191406 387.152344 264.175781 387.128906 264.15625 387.101562 C 264.152344 387.09375 264.140625 387.082031 264.132812 387.078125 C 264.121094 387.0625 264.109375 387.042969 264.097656 387.027344 C 264.09375 387.015625 264.082031 387.003906 264.078125 386.992188 C 264.066406 386.976562 264.058594 386.964844 264.046875 386.945312 C 264.035156 386.941406 264.03125 386.929688 264.023438 386.917969 C 264.007812 386.894531 263.992188 386.871094 263.972656 386.847656 C 263.960938 386.832031 263.957031 386.820312 263.945312 386.808594 C 263.9375 386.796875 263.925781 386.78125 263.921875 386.773438 C 263.910156 386.757812 263.898438 386.746094 263.894531 386.730469 C 263.886719 386.71875 263.875 386.710938 263.871094 386.699219 C 263.859375 386.683594 263.851562 386.671875 263.835938 386.652344 C 263.832031 386.644531 263.832031 386.636719 263.824219 386.632812 C 263.800781 386.601562 263.785156 386.574219 263.761719 386.539062 C 263.757812 386.535156 263.75 386.523438 263.746094 386.515625 C 263.734375 386.5 263.722656 386.484375 263.710938 386.472656 C 263.703125 386.460938 263.699219 386.453125 263.691406 386.441406 C 263.679688 386.425781 263.671875 386.40625 263.660156 386.390625 C 263.652344 386.390625 263.652344 386.386719 263.652344 386.386719 C 263.625 386.34375 263.601562 386.3125 263.574219 386.277344 C 263.574219 386.269531 263.566406 386.265625 263.566406 386.257812 C 263.550781 386.242188 263.539062 386.226562 263.527344 386.207031 C 263.519531 386.203125 263.519531 386.195312 263.515625 386.191406 C 263.476562 386.128906 263.433594 386.070312 263.390625 386.011719 C 263.390625 386.007812 263.390625 386.007812 263.382812 386 C 263.371094 385.984375 263.359375 385.960938 263.34375 385.945312 C 263.34375 385.9375 263.34375 385.9375 263.339844 385.933594 C 252.042969 369.574219 246.707031 355.246094 244.445312 343.753906 C 244.445312 343.75 244.4375 343.738281 244.4375 343.734375 C 244.4375 343.722656 244.4375 343.722656 244.4375 343.710938 C 242.777344 335.269531 242.777344 328.359375 243.292969 323.285156 L 243.289062 323.28125 L 243.292969 323.234375 C 243.539062 320.824219 243.894531 318.839844 244.246094 317.300781 C 244.25 317.289062 244.25 317.273438 244.25 317.261719 C 244.8125 314.800781 245.347656 313.492188 245.347656 313.492188 L 256.085938 305.402344 C 256.1875 306.136719 256.300781 306.867188 256.410156 307.601562 C 256.742188 309.878906 257.085938 312.136719 257.417969 314.421875 C 259.792969 330.402344 262.382812 346.636719 266.992188 361.890625 C 272.515625 380.199219 283.011719 396.667969 292.214844 413.269531 C 311.390625 447.824219 308.648438 487.09375 305.851562 525.175781 C 302.789062 567.054688 297.855469 608.914062 297.515625 650.941406 " fill-opacity="1" fill-rule="nonzero"/></g><path fill="#f6a575" d="M 509.132812 181.253906 C 509.132812 174.03125 513.117188 168.457031 520.335938 168.457031 C 527.558594 168.457031 531.308594 174.5 531.308594 181.722656 L 533.410156 297.949219 C 533.410156 305.167969 527.558594 311.019531 520.335938 311.019531 C 513.117188 311.019531 507.265625 296.265625 507.265625 289.042969 L 509.132812 181.253906 " fill-opacity="1" fill-rule="nonzero"/><path fill="#f6a575" d="M 448.441406 188.839844 C 448.441406 181.621094 452.894531 175.925781 460.113281 175.925781 C 467.332031 175.925781 471.78125 181.855469 471.78125 189.074219 L 473.183594 289.042969 C 473.183594 296.265625 467.332031 307.285156 460.113281 307.285156 C 452.894531 307.285156 447.039062 296.265625 447.039062 289.042969 L 448.441406 188.839844 " fill-opacity="1" fill-rule="nonzero"/><path fill="#f6a575" d="M 422.996094 208.222656 C 422.996094 202.480469 426.632812 197.914062 432.375 197.914062 C 438.113281 197.914062 441.902344 202.597656 441.902344 208.335938 L 442.761719 289.042969 C 442.761719 294.78125 438.113281 307.285156 432.375 307.285156 C 426.632812 307.285156 421.984375 302.632812 421.984375 296.898438 L 422.996094 208.222656 " fill-opacity="1" fill-rule="nonzero"/><path fill="#f6a575" d="M 477.855469 172.035156 C 477.855469 164.8125 482.304688 159.117188 489.523438 159.117188 C 496.742188 159.117188 501.078125 165.390625 501.078125 172.617188 L 502.601562 289.042969 C 502.601562 296.265625 496.742188 307.285156 489.523438 307.285156 C 482.304688 307.285156 476.453125 296.265625 476.453125 289.042969 L 477.855469 172.035156 " fill-opacity="1" fill-rule="nonzero"/><path fill="#f6a575" d="M 552.707031 314.445312 C 557.386719 314.445312 566.980469 325.550781 566.589844 323.28125 C 564.457031 310.824219 564.597656 307.332031 564.691406 305.574219 C 565.125 297.132812 566.410156 288.636719 568.996094 280.574219 C 569.847656 277.90625 570.800781 275.261719 572.070312 272.757812 C 572.992188 270.933594 574.246094 269.3125 575.398438 267.628906 C 576.753906 265.640625 578.105469 263.65625 579.472656 261.679688 C 583.296875 256.175781 584.179688 247.136719 577.925781 244.707031 C 573.46875 242.972656 566.269531 242.691406 559.441406 247.105469 C 548.648438 254.09375 539.171875 270.175781 537.84375 296 C 537.5 302.695312 543.210938 313.792969 549.910156 314.136719 C 550.121094 314.144531 552.496094 314.445312 552.707031 314.445312 " fill-opacity="1" fill-rule="nonzero"/><g clip-path="url(#4917a117e9)"><path fill="#f6a575" d="M 421.984375 289.042969 L 442.761719 289.042969 C 442.761719 289.042969 442.199219 292.4375 444.707031 292.4375 C 445.679688 292.4375 446.867188 292.558594 447.039062 289.042969 L 473.183594 289.042969 C 473.183594 289.042969 472.894531 291.796875 474.632812 291.730469 C 476.160156 291.667969 476.339844 290.921875 476.453125 289.042969 L 502.601562 289.042969 C 502.601562 289.042969 502.480469 291.621094 505.109375 291.683594 C 506.324219 291.707031 507.265625 291.183594 507.265625 289.042969 L 533.203125 286.394531 C 533.203125 286.394531 532.910156 299.429688 535.003906 299.734375 C 537.324219 300.078125 537.445312 299.695312 538.003906 293.492188 L 564.535156 313.492188 C 564.535156 313.492188 576.964844 343.699219 544.746094 388.480469 C 541.574219 392.597656 538.355469 396.6875 535.210938 400.824219 C 532.746094 404.074219 530.246094 407.296875 527.785156 410.542969 C 518.023438 423.410156 521.195312 437.078125 522.074219 452.0625 C 523.476562 476.078125 523.882812 500.175781 524.648438 524.214844 C 525.265625 543.578125 525.898438 562.9375 526.519531 582.304688 C 527.011719 597.867188 527.523438 613.429688 528.019531 628.992188 C 528.25 636.152344 528.480469 643.316406 528.714844 650.472656 L 528.726562 650.941406 L 437 650.941406 C 437.183594 645.09375 437.363281 639.25 437.546875 633.398438 C 437.984375 618.925781 438.433594 604.457031 438.878906 589.984375 C 439.453125 571.207031 440.03125 552.425781 440.609375 533.644531 C 441.523438 503.96875 442.109375 474.273438 444.113281 444.640625 C 444.644531 436.835938 445.324219 428.941406 443.671875 421.214844 C 442.257812 414.566406 438.191406 409.226562 435.621094 403.046875 C 427.492188 383.527344 424.285156 362.792969 422.996094 341.78125 C 421.742188 321.242188 421.1875 309.613281 421.984375 289.042969 " fill-opacity="1" fill-rule="nonzero"/></g><g clip-path="url(#e4359d75c3)"><path fill="#f59f74" d="M 421.984375 289.042969 L 422.074219 289.042969 L 422.996094 208.222656 C 422.996094 202.621094 426.46875 198.15625 431.964844 197.9375 C 430.644531 197.984375 429.683594 248.269531 429.628906 253.453125 C 429.542969 262.023438 429.636719 270.589844 429.90625 279.15625 C 430.871094 309.890625 425.316406 340.34375 434.847656 370.363281 C 440.253906 387.375 449.429688 404.535156 451.324219 422.4375 C 453.414062 442.167969 452.351562 462.34375 452.15625 482.15625 C 451.945312 503.835938 451.59375 525.519531 451.738281 547.203125 C 451.882812 568.148438 452.320312 589.113281 453.066406 610.046875 C 453.554688 623.640625 453.816406 637.644531 457.050781 650.941406 C 445.371094 650.941406 437 650.941406 437 650.941406 C 437.183594 645.09375 437.363281 639.25 437.546875 633.398438 C 437.984375 618.925781 438.433594 604.457031 438.878906 589.984375 C 439.453125 571.207031 440.03125 552.425781 440.609375 533.644531 C 441.523438 503.96875 442.109375 474.273438 444.113281 444.648438 C 444.644531 436.835938 445.324219 428.941406 443.671875 421.214844 C 442.257812 414.566406 438.191406 409.226562 435.621094 403.046875 C 427.492188 383.527344 424.285156 362.792969 422.996094 341.78125 C 421.742188 321.242188 421.1875 309.613281 421.984375 289.042969 " fill-opacity="1" fill-rule="nonzero"/></g><path fill="#ffffff" d="M 544.800781 388.40625 C 544.808594 388.394531 544.8125 388.382812 544.824219 388.371094 C 544.8125 388.382812 544.808594 388.394531 544.800781 388.40625 M 544.851562 388.332031 C 544.859375 388.320312 544.871094 388.304688 544.882812 388.292969 C 544.871094 388.304688 544.863281 388.316406 544.851562 388.332031 M 544.898438 388.261719 C 544.945312 388.207031 544.984375 388.148438 545.023438 388.085938 C 544.984375 388.148438 544.9375 388.207031 544.898438 388.261719 M 545.023438 388.085938 C 556.109375 372.589844 561.839844 358.855469 564.605469 347.527344 C 561.839844 358.855469 556.109375 372.589844 545.023438 388.085938 M 564.609375 347.515625 C 564.609375 347.507812 564.617188 347.488281 564.617188 347.476562 C 564.617188 347.488281 564.609375 347.507812 564.609375 347.515625 M 565.628906 317.25 C 565.628906 317.25 565.628906 317.246094 565.625 317.246094 C 564.507812 309.59375 564.617188 307.007812 564.691406 305.574219 C 565.125 297.132812 566.410156 288.636719 568.996094 280.574219 C 569.847656 277.90625 570.800781 275.261719 572.070312 272.757812 C 572.992188 270.933594 574.246094 269.3125 575.398438 267.628906 C 576.753906 265.640625 578.105469 263.65625 579.472656 261.679688 C 578.105469 263.65625 576.753906 265.640625 575.398438 267.628906 C 574.246094 269.3125 572.992188 270.933594 572.070312 272.757812 C 570.800781 275.261719 569.847656 277.90625 568.996094 280.574219 C 566.410156 288.636719 565.125 297.132812 564.691406 305.574219 C 564.617188 307.007812 564.507812 309.601562 565.628906 317.25 " fill-opacity="1" fill-rule="nonzero"/><path fill="#f6ae81" d="M 565.625 317.246094 C 565.070312 314.789062 564.535156 313.492188 564.535156 313.492188 L 553.800781 305.402344 C 554.019531 303.9375 554.238281 302.453125 554.453125 301 C 555.59375 293.515625 556.0625 285.996094 556.453125 278.480469 C 557.78125 273.699219 559.515625 269.105469 561.769531 264.902344 C 565.011719 258.875 567.964844 254.167969 573.8125 250.417969 C 575.976562 249.023438 578.105469 247.621094 580.207031 246.171875 C 583.84375 249.710938 582.738281 256.976562 579.472656 261.679688 C 578.105469 263.65625 576.753906 265.640625 575.398438 267.628906 C 574.246094 269.3125 572.992188 270.933594 572.070312 272.757812 C 570.800781 275.261719 569.847656 277.90625 568.996094 280.574219 C 566.410156 288.636719 565.125 297.132812 564.691406 305.574219 C 564.617188 307.007812 564.507812 309.59375 565.625 317.246094 " fill-opacity="1" fill-rule="nonzero"/><g clip-path="url(#50265a9ba4)"><path fill="#f6ae81" d="M 528.726562 650.941406 L 512.367188 650.941406 C 512.023438 608.914062 507.09375 567.054688 504.027344 525.175781 C 501.234375 487.09375 498.496094 447.824219 517.664062 413.269531 C 526.871094 396.667969 537.363281 380.199219 542.894531 361.890625 C 547.503906 346.636719 550.089844 330.402344 552.460938 314.421875 C 552.800781 312.136719 553.136719 309.878906 553.476562 307.601562 C 553.585938 306.867188 553.691406 306.136719 553.800781 305.402344 L 564.535156 313.492188 C 564.535156 313.492188 565.070312 314.789062 565.625 317.246094 C 565.628906 317.246094 565.628906 317.25 565.628906 317.25 C 565.628906 317.265625 565.636719 317.285156 565.636719 317.300781 C 565.984375 318.839844 566.339844 320.824219 566.585938 323.234375 L 566.589844 323.28125 L 566.589844 323.285156 C 567.175781 329.097656 567.089844 337.3125 564.617188 347.476562 C 564.617188 347.488281 564.609375 347.507812 564.609375 347.515625 C 564.605469 347.515625 564.605469 347.523438 564.605469 347.527344 C 561.839844 358.855469 556.109375 372.589844 545.023438 388.085938 C 544.984375 388.148438 544.945312 388.207031 544.898438 388.261719 C 544.894531 388.273438 544.886719 388.28125 544.882812 388.292969 C 544.871094 388.304688 544.859375 388.320312 544.851562 388.332031 C 544.839844 388.34375 544.835938 388.359375 544.824219 388.371094 C 544.8125 388.382812 544.808594 388.394531 544.800781 388.40625 C 544.777344 388.429688 544.761719 388.457031 544.746094 388.480469 C 541.574219 392.597656 538.355469 396.6875 535.210938 400.824219 C 532.746094 404.074219 530.246094 407.296875 527.785156 410.542969 C 522.265625 417.816406 520.882812 425.351562 520.882812 433.230469 C 520.875 439.289062 521.695312 445.550781 522.074219 452.0625 C 523.476562 476.078125 523.882812 500.175781 524.648438 524.214844 C 525.265625 543.578125 525.898438 562.9375 526.519531 582.304688 C 527.011719 597.867188 527.523438 613.429688 528.019531 628.992188 C 528.25 636.152344 528.480469 643.316406 528.714844 650.472656 L 528.726562 650.941406 " fill-opacity="1" fill-rule="nonzero"/></g><path fill="#cc2525" d="M 537.09375 235.957031 C 537.09375 235.957031 519.765625 187.332031 465.039062 187.332031 C 465.039062 187.332031 402.730469 187.332031 405.742188 255.414062 C 403.152344 196.820312 351.304688 189.957031 335.910156 190.570312 C 292.171875 192.292969 280.152344 218.953125 274.382812 235.957031 C 236.457031 347.757812 405.742188 427.238281 405.742188 427.238281 C 405.742188 427.238281 568.113281 349.429688 537.09375 235.957031 " fill-opacity="1" fill-rule="nonzero"/><path fill="#b72020" d="M 537.09375 235.957031 C 537.09375 235.957031 519.765625 187.332031 465.039062 187.332031 C 465.039062 187.332031 407.601562 187.34375 405.695312 247.617188 L 405.695312 253.871094 C 405.714844 254.382812 405.71875 254.886719 405.742188 255.414062 C 405.730469 255.144531 405.707031 254.886719 405.695312 254.621094 L 405.695312 427.210938 L 405.742188 427.238281 C 405.742188 427.238281 568.113281 349.429688 537.09375 235.957031 " fill-opacity="1" fill-rule="nonzero"/><path fill="#cc2525" d="M 329.777344 605.878906 C 331.417969 589.679688 331.816406 573.324219 331.824219 557.023438 C 331.824219 545.476562 331.617188 533.953125 331.507812 522.527344 C 331.492188 520.710938 331.480469 518.902344 331.480469 517.097656 C 331.480469 505.199219 331.867188 493.449219 332.769531 481.511719 C 333.273438 474.792969 334.164062 466.332031 336.746094 459.117188 C 338.027344 455.507812 339.730469 452.234375 341.933594 449.617188 C 344.148438 447 346.839844 445.035156 350.296875 443.914062 C 352.371094 443.242188 354.242188 442.953125 355.933594 442.953125 C 358.570312 442.957031 360.785156 443.644531 362.78125 444.851562 C 365.761719 446.667969 368.222656 449.753906 370.109375 453.511719 C 371.992188 457.253906 373.28125 461.617188 374.023438 465.785156 C 374.652344 469.308594 374.761719 473.855469 374.761719 478.8125 C 374.761719 480.792969 374.746094 482.851562 374.746094 484.941406 C 374.75 492.035156 374.910156 499.523438 376.558594 506.253906 C 377.390625 509.621094 378.605469 512.804688 380.402344 515.625 C 382.199219 518.449219 384.605469 520.894531 387.710938 522.695312 C 390.703125 524.4375 393.757812 525.25 396.679688 525.246094 C 401.480469 525.246094 405.789062 523.082031 409.074219 519.890625 C 412.371094 516.683594 414.734375 512.429688 415.8125 507.90625 C 416.972656 503.011719 417.398438 498.074219 417.398438 493.164062 C 417.390625 484.425781 416.070312 475.75 415.074219 467.429688 C 413.4375 453.726562 410.8125 437.460938 407.84375 423.964844 L 403.546875 424.910156 C 406.480469 438.214844 409.089844 454.390625 410.710938 467.953125 C 411.71875 476.363281 413 484.871094 413 493.164062 C 413 497.824219 412.59375 502.414062 411.535156 506.894531 C 410.664062 510.597656 408.660156 514.171875 406.011719 516.730469 C 403.355469 519.300781 400.128906 520.847656 396.679688 520.847656 C 394.558594 520.847656 392.316406 520.28125 389.917969 518.894531 C 387.449219 517.457031 385.582031 515.5625 384.105469 513.261719 C 381.902344 509.808594 380.621094 505.382812 379.9375 500.476562 C 379.246094 495.5625 379.140625 490.203125 379.140625 484.941406 C 379.140625 482.875 379.160156 480.816406 379.160156 478.8125 C 379.152344 473.792969 379.066406 469.066406 378.351562 465.015625 C 377.269531 459.011719 375.191406 452.59375 371.640625 447.480469 C 369.863281 444.933594 367.699219 442.707031 365.070312 441.101562 C 362.453125 439.492188 359.363281 438.546875 355.933594 438.554688 C 353.734375 438.554688 351.398438 438.933594 348.941406 439.726562 C 344.660156 441.109375 341.222656 443.640625 338.574219 446.78125 C 334.601562 451.511719 332.292969 457.570312 330.832031 463.695312 C 329.371094 469.824219 328.773438 476.058594 328.386719 481.179688 C 327.476562 493.238281 327.082031 505.101562 327.082031 517.097656 C 327.082031 518.917969 327.09375 520.738281 327.109375 522.570312 C 327.21875 534.015625 327.425781 545.527344 327.425781 557.023438 C 327.425781 573.25 327.019531 589.457031 325.40625 605.4375 L 329.777344 605.878906 " fill-opacity="1" fill-rule="nonzero"/><path fill="#f4f4f4" d="M 354.09375 563.347656 C 354.09375 565.847656 352.066406 567.875 349.566406 567.875 L 305.617188 567.875 C 303.117188 567.875 301.089844 565.847656 301.089844 563.347656 L 301.089844 554.859375 C 301.089844 552.359375 303.117188 550.332031 305.617188 550.332031 L 349.566406 550.332031 C 352.066406 550.332031 354.09375 552.359375 354.09375 554.859375 L 354.09375 563.347656 " fill-opacity="1" fill-rule="nonzero"/><path fill="#e9e9e9" d="M 310.964844 556.015625 C 310.558594 556.015625 310.234375 556.347656 310.234375 556.75 C 310.234375 557.15625 310.558594 557.484375 310.964844 557.484375 C 311.371094 557.484375 311.699219 557.15625 311.699219 556.75 C 311.699219 556.347656 311.371094 556.015625 310.964844 556.015625 " fill-opacity="1" fill-rule="nonzero"/><path fill="#e9e9e9" d="M 310.964844 553.171875 C 310.558594 553.171875 310.234375 553.503906 310.234375 553.902344 C 310.234375 554.308594 310.558594 554.636719 310.964844 554.636719 C 311.371094 554.636719 311.699219 554.308594 311.699219 553.902344 C 311.699219 553.503906 311.371094 553.171875 310.964844 553.171875 " fill-opacity="1" fill-rule="nonzero"/><path fill="#e9e9e9" d="M 313.105469 555.03125 C 312.699219 555.03125 312.375 555.359375 312.375 555.765625 C 312.375 556.164062 312.699219 556.492188 313.105469 556.492188 C 313.515625 556.492188 313.839844 556.164062 313.839844 555.765625 C 313.839844 555.359375 313.515625 555.03125 313.105469 555.03125 " fill-opacity="1" fill-rule="nonzero"/><path fill="#e9e9e9" d="M 310.964844 561.707031 C 310.558594 561.707031 310.234375 562.039062 310.234375 562.441406 C 310.234375 562.847656 310.558594 563.175781 310.964844 563.175781 C 311.371094 563.175781 311.699219 562.847656 311.699219 562.441406 C 311.699219 562.039062 311.371094 561.707031 310.964844 561.707031 " fill-opacity="1" fill-rule="nonzero"/><path fill="#e9e9e9" d="M 313.105469 557.878906 C 312.699219 557.878906 312.375 558.203125 312.375 558.609375 C 312.375 559.011719 312.699219 559.335938 313.105469 559.335938 C 313.515625 559.335938 313.839844 559.011719 313.839844 558.609375 C 313.839844 558.203125 313.515625 557.878906 313.105469 557.878906 " fill-opacity="1" fill-rule="nonzero"/><path fill="#e9e9e9" d="M 310.964844 564.554688 C 310.558594 564.554688 310.234375 564.886719 310.234375 565.292969 C 310.234375 565.695312 310.558594 566.019531 310.964844 566.019531 C 311.371094 566.019531 311.699219 565.695312 311.699219 565.292969 C 311.699219 564.886719 311.371094 564.554688 310.964844 564.554688 " fill-opacity="1" fill-rule="nonzero"/><path fill="#e9e9e9" d="M 313.105469 563.570312 C 312.699219 563.570312 312.375 563.894531 312.375 564.300781 C 312.375 564.703125 312.699219 565.027344 313.105469 565.027344 C 313.515625 565.027344 313.839844 564.703125 313.839844 564.300781 C 313.839844 563.894531 313.515625 563.570312 313.105469 563.570312 " fill-opacity="1" fill-rule="nonzero"/><path fill="#e9e9e9" d="M 313.105469 560.722656 C 312.699219 560.722656 312.375 561.050781 312.375 561.457031 C 312.375 561.855469 312.699219 562.183594 313.105469 562.183594 C 313.515625 562.183594 313.839844 561.855469 313.839844 561.457031 C 313.839844 561.050781 313.515625 560.722656 313.105469 560.722656 " fill-opacity="1" fill-rule="nonzero"/><path fill="#e9e9e9" d="M 310.964844 558.867188 C 310.558594 558.867188 310.234375 559.195312 310.234375 559.59375 C 310.234375 560 310.558594 560.328125 310.964844 560.328125 C 311.371094 560.328125 311.699219 560 311.699219 559.59375 C 311.699219 559.195312 311.371094 558.867188 310.964844 558.867188 " fill-opacity="1" fill-rule="nonzero"/><path fill="#e9e9e9" d="M 306.523438 553.171875 C 306.117188 553.171875 305.789062 553.503906 305.789062 553.902344 C 305.789062 554.308594 306.117188 554.636719 306.523438 554.636719 C 306.929688 554.636719 307.257812 554.308594 307.257812 553.902344 C 307.257812 553.503906 306.929688 553.171875 306.523438 553.171875 " fill-opacity="1" fill-rule="nonzero"/><path fill="#e9e9e9" d="M 306.523438 556.015625 C 306.117188 556.015625 305.789062 556.347656 305.789062 556.75 C 305.789062 557.15625 306.117188 557.484375 306.523438 557.484375 C 306.929688 557.484375 307.257812 557.15625 307.257812 556.75 C 307.257812 556.347656 306.929688 556.015625 306.523438 556.015625 " fill-opacity="1" fill-rule="nonzero"/><path fill="#e9e9e9" d="M 308.664062 552.1875 C 308.257812 552.1875 307.933594 552.511719 307.933594 552.917969 C 307.933594 553.320312 308.257812 553.644531 308.664062 553.644531 C 309.066406 553.644531 309.398438 553.320312 309.398438 552.917969 C 309.398438 552.511719 309.066406 552.1875 308.664062 552.1875 " fill-opacity="1" fill-rule="nonzero"/><path fill="#e9e9e9" d="M 306.523438 558.867188 C 306.117188 558.867188 305.789062 559.195312 305.789062 559.59375 C 305.789062 560 306.117188 560.328125 306.523438 560.328125 C 306.929688 560.328125 307.257812 560 307.257812 559.59375 C 307.257812 559.195312 306.929688 558.867188 306.523438 558.867188 " fill-opacity="1" fill-rule="nonzero"/><path fill="#e9e9e9" d="M 308.664062 563.570312 C 308.257812 563.570312 307.933594 563.894531 307.933594 564.300781 C 307.933594 564.703125 308.257812 565.027344 308.664062 565.027344 C 309.066406 565.027344 309.398438 564.703125 309.398438 564.300781 C 309.398438 563.894531 309.066406 563.570312 308.664062 563.570312 " fill-opacity="1" fill-rule="nonzero"/><path fill="#e9e9e9" d="M 308.664062 555.03125 C 308.257812 555.03125 307.933594 555.359375 307.933594 555.765625 C 307.933594 556.164062 308.257812 556.492188 308.664062 556.492188 C 309.066406 556.492188 309.398438 556.164062 309.398438 555.765625 C 309.398438 555.359375 309.066406 555.03125 308.664062 555.03125 " fill-opacity="1" fill-rule="nonzero"/><path fill="#e9e9e9" d="M 308.664062 557.878906 C 308.257812 557.878906 307.933594 558.203125 307.933594 558.609375 C 307.933594 559.011719 308.257812 559.335938 308.664062 559.335938 C 309.066406 559.335938 309.398438 559.011719 309.398438 558.609375 C 309.398438 558.203125 309.066406 557.878906 308.664062 557.878906 " fill-opacity="1" fill-rule="nonzero"/><path fill="#e9e9e9" d="M 308.664062 560.722656 C 308.257812 560.722656 307.933594 561.050781 307.933594 561.457031 C 307.933594 561.855469 308.257812 562.183594 308.664062 562.183594 C 309.066406 562.183594 309.398438 561.855469 309.398438 561.457031 C 309.398438 561.050781 309.066406 560.722656 308.664062 560.722656 " fill-opacity="1" fill-rule="nonzero"/><path fill="#e9e9e9" d="M 319.855469 556.015625 C 319.449219 556.015625 319.125 556.347656 319.125 556.75 C 319.125 557.15625 319.449219 557.484375 319.855469 557.484375 C 320.257812 557.484375 320.585938 557.15625 320.585938 556.75 C 320.585938 556.347656 320.257812 556.015625 319.855469 556.015625 " fill-opacity="1" fill-rule="nonzero"/><path fill="#e9e9e9" d="M 319.855469 558.867188 C 319.449219 558.867188 319.125 559.195312 319.125 559.59375 C 319.125 560 319.449219 560.328125 319.855469 560.328125 C 320.257812 560.328125 320.585938 560 320.585938 559.59375 C 320.585938 559.195312 320.257812 558.867188 319.855469 558.867188 " fill-opacity="1" fill-rule="nonzero"/><path fill="#e9e9e9" d="M 319.855469 561.707031 C 319.449219 561.707031 319.125 562.039062 319.125 562.441406 C 319.125 562.847656 319.449219 563.175781 319.855469 563.175781 C 320.257812 563.175781 320.585938 562.847656 320.585938 562.441406 C 320.585938 562.039062 320.257812 561.707031 319.855469 561.707031 " fill-opacity="1" fill-rule="nonzero"/><path fill="#e9e9e9" d="M 319.855469 564.554688 C 319.449219 564.554688 319.125 564.886719 319.125 565.292969 C 319.125 565.695312 319.449219 566.019531 319.855469 566.019531 C 320.257812 566.019531 320.585938 565.695312 320.585938 565.292969 C 320.585938 564.886719 320.257812 564.554688 319.855469 564.554688 " fill-opacity="1" fill-rule="nonzero"/><path fill="#e9e9e9" d="M 317.550781 555.03125 C 317.148438 555.03125 316.824219 555.359375 316.824219 555.765625 C 316.824219 556.164062 317.148438 556.492188 317.550781 556.492188 C 317.957031 556.492188 318.28125 556.164062 318.28125 555.765625 C 318.28125 555.359375 317.957031 555.03125 317.550781 555.03125 " fill-opacity="1" fill-rule="nonzero"/><path fill="#e9e9e9" d="M 317.550781 552.1875 C 317.148438 552.1875 316.824219 552.511719 316.824219 552.917969 C 316.824219 553.320312 317.148438 553.644531 317.550781 553.644531 C 317.957031 553.644531 318.28125 553.320312 318.28125 552.917969 C 318.28125 552.511719 317.957031 552.1875 317.550781 552.1875 " fill-opacity="1" fill-rule="nonzero"/><path fill="#e9e9e9" d="M 322 563.570312 C 321.59375 563.570312 321.265625 563.894531 321.265625 564.300781 C 321.265625 564.703125 321.59375 565.027344 322 565.027344 C 322.398438 565.027344 322.726562 564.703125 322.726562 564.300781 C 322.726562 563.894531 322.398438 563.570312 322 563.570312 " fill-opacity="1" fill-rule="nonzero"/><path fill="#e9e9e9" d="M 313.105469 552.1875 C 312.699219 552.1875 312.375 552.511719 312.375 552.917969 C 312.375 553.320312 312.699219 553.644531 313.105469 553.644531 C 313.515625 553.644531 313.839844 553.320312 313.839844 552.917969 C 313.839844 552.511719 313.515625 552.1875 313.105469 552.1875 " fill-opacity="1" fill-rule="nonzero"/><path fill="#e9e9e9" d="M 306.523438 561.707031 C 306.117188 561.707031 305.789062 562.039062 305.789062 562.441406 C 305.789062 562.847656 306.117188 563.175781 306.523438 563.175781 C 306.929688 563.175781 307.257812 562.847656 307.257812 562.441406 C 307.257812 562.039062 306.929688 561.707031 306.523438 561.707031 " fill-opacity="1" fill-rule="nonzero"/><path fill="#e9e9e9" d="M 319.855469 553.171875 C 319.449219 553.171875 319.125 553.503906 319.125 553.902344 C 319.125 554.308594 319.449219 554.636719 319.855469 554.636719 C 320.257812 554.636719 320.585938 554.308594 320.585938 553.902344 C 320.585938 553.503906 320.257812 553.171875 319.855469 553.171875 " fill-opacity="1" fill-rule="nonzero"/><path fill="#e9e9e9" d="M 315.410156 556.015625 C 315.007812 556.015625 314.683594 556.347656 314.683594 556.75 C 314.683594 557.15625 315.007812 557.484375 315.410156 557.484375 C 315.816406 557.484375 316.140625 557.15625 316.140625 556.75 C 316.140625 556.347656 315.816406 556.015625 315.410156 556.015625 " fill-opacity="1" fill-rule="nonzero"/><path fill="#e9e9e9" d="M 315.410156 558.867188 C 315.007812 558.867188 314.683594 559.195312 314.683594 559.59375 C 314.683594 560 315.007812 560.328125 315.410156 560.328125 C 315.816406 560.328125 316.140625 560 316.140625 559.59375 C 316.140625 559.195312 315.816406 558.867188 315.410156 558.867188 " fill-opacity="1" fill-rule="nonzero"/><path fill="#e9e9e9" d="M 317.550781 557.878906 C 317.148438 557.878906 316.824219 558.203125 316.824219 558.609375 C 316.824219 559.011719 317.148438 559.335938 317.550781 559.335938 C 317.957031 559.335938 318.28125 559.011719 318.28125 558.609375 C 318.28125 558.203125 317.957031 557.878906 317.550781 557.878906 " fill-opacity="1" fill-rule="nonzero"/><path fill="#e9e9e9" d="M 315.410156 564.554688 C 315.007812 564.554688 314.683594 564.886719 314.683594 565.292969 C 314.683594 565.695312 315.007812 566.019531 315.410156 566.019531 C 315.816406 566.019531 316.140625 565.695312 316.140625 565.292969 C 316.140625 564.886719 315.816406 564.554688 315.410156 564.554688 " fill-opacity="1" fill-rule="nonzero"/><path fill="#e9e9e9" d="M 315.410156 561.707031 C 315.007812 561.707031 314.683594 562.039062 314.683594 562.441406 C 314.683594 562.847656 315.007812 563.175781 315.410156 563.175781 C 315.816406 563.175781 316.140625 562.847656 316.140625 562.441406 C 316.140625 562.039062 315.816406 561.707031 315.410156 561.707031 " fill-opacity="1" fill-rule="nonzero"/><path fill="#e9e9e9" d="M 317.550781 560.722656 C 317.148438 560.722656 316.824219 561.050781 316.824219 561.457031 C 316.824219 561.855469 317.148438 562.183594 317.550781 562.183594 C 317.957031 562.183594 318.28125 561.855469 318.28125 561.457031 C 318.28125 561.050781 317.957031 560.722656 317.550781 560.722656 " fill-opacity="1" fill-rule="nonzero"/><path fill="#e9e9e9" d="M 315.410156 553.171875 C 315.007812 553.171875 314.683594 553.503906 314.683594 553.902344 C 314.683594 554.308594 315.007812 554.636719 315.410156 554.636719 C 315.816406 554.636719 316.140625 554.308594 316.140625 553.902344 C 316.140625 553.503906 315.816406 553.171875 315.410156 553.171875 " fill-opacity="1" fill-rule="nonzero"/><path fill="#e9e9e9" d="M 317.550781 563.570312 C 317.148438 563.570312 316.824219 563.894531 316.824219 564.300781 C 316.824219 564.703125 317.148438 565.027344 317.550781 565.027344 C 317.957031 565.027344 318.28125 564.703125 318.28125 564.300781 C 318.28125 563.894531 317.957031 563.570312 317.550781 563.570312 " fill-opacity="1" fill-rule="nonzero"/><path fill="#e9e9e9" d="M 306.546875 550.332031 L 306.5 550.332031 C 306.105469 550.34375 305.789062 550.664062 305.789062 551.0625 C 305.789062 551.464844 306.117188 551.789062 306.523438 551.789062 C 306.929688 551.789062 307.257812 551.464844 307.257812 551.0625 C 307.257812 550.664062 306.9375 550.34375 306.546875 550.332031 " fill-opacity="1" fill-rule="nonzero"/><path fill="#e9e9e9" d="M 302.746094 551.363281 C 302.601562 551.476562 302.46875 551.609375 302.339844 551.746094 C 302.519531 551.675781 302.664062 551.53125 302.746094 551.363281 " fill-opacity="1" fill-rule="nonzero"/><path fill="#e9e9e9" d="M 322 560.722656 C 321.59375 560.722656 321.265625 561.050781 321.265625 561.457031 C 321.265625 561.855469 321.59375 562.183594 322 562.183594 C 322.398438 562.183594 322.726562 561.855469 322.726562 561.457031 C 322.726562 561.050781 322.398438 560.722656 322 560.722656 " fill-opacity="1" fill-rule="nonzero"/><path fill="#e9e9e9" d="M 310.988281 550.332031 L 310.941406 550.332031 C 310.554688 550.34375 310.234375 550.664062 310.234375 551.0625 C 310.234375 551.464844 310.558594 551.789062 310.964844 551.789062 C 311.371094 551.789062 311.699219 551.464844 311.699219 551.0625 C 311.699219 550.664062 311.382812 550.34375 310.988281 550.332031 " fill-opacity="1" fill-rule="nonzero"/><path fill="#e9e9e9" d="M 319.875 550.332031 L 319.835938 550.332031 C 319.4375 550.34375 319.125 550.664062 319.125 551.0625 C 319.125 551.464844 319.449219 551.789062 319.855469 551.789062 C 320.257812 551.789062 320.585938 551.464844 320.585938 551.0625 C 320.585938 550.664062 320.269531 550.34375 319.875 550.332031 " fill-opacity="1" fill-rule="nonzero"/><path fill="#e9e9e9" d="M 315.433594 550.332031 L 315.390625 550.332031 C 314.996094 550.34375 314.683594 550.664062 314.683594 551.0625 C 314.683594 551.464844 315.007812 551.789062 315.410156 551.789062 C 315.816406 551.789062 316.140625 551.464844 316.140625 551.0625 C 316.140625 550.664062 315.828125 550.34375 315.433594 550.332031 " fill-opacity="1" fill-rule="nonzero"/><path fill="#e9e9e9" d="M 302.074219 564.554688 C 301.777344 564.554688 301.515625 564.742188 301.40625 565 C 301.546875 565.363281 301.738281 565.699219 301.960938 566.007812 L 302.074219 566.019531 C 302.480469 566.019531 302.808594 565.695312 302.808594 565.292969 C 302.808594 564.886719 302.480469 564.554688 302.074219 564.554688 " fill-opacity="1" fill-rule="nonzero"/><path fill="#e9e9e9" d="M 308.664062 566.414062 C 308.257812 566.414062 307.933594 566.742188 307.933594 567.140625 C 307.933594 567.542969 308.253906 567.871094 308.648438 567.875 L 308.683594 567.875 C 309.078125 567.871094 309.398438 567.542969 309.398438 567.140625 C 309.398438 566.742188 309.066406 566.414062 308.664062 566.414062 " fill-opacity="1" fill-rule="nonzero"/><path fill="#e9e9e9" d="M 313.105469 566.414062 C 312.699219 566.414062 312.375 566.742188 312.375 567.140625 C 312.375 567.542969 312.695312 567.871094 313.089844 567.875 L 313.125 567.875 C 313.519531 567.871094 313.839844 567.542969 313.839844 567.140625 C 313.839844 566.742188 313.515625 566.414062 313.105469 566.414062 " fill-opacity="1" fill-rule="nonzero"/><path fill="#e9e9e9" d="M 304.214844 566.414062 C 303.816406 566.414062 303.488281 566.742188 303.488281 567.140625 L 303.523438 567.359375 C 303.859375 567.539062 304.226562 567.675781 304.609375 567.761719 C 304.816406 567.628906 304.949219 567.40625 304.949219 567.140625 C 304.949219 566.742188 304.621094 566.414062 304.214844 566.414062 " fill-opacity="1" fill-rule="nonzero"/><path fill="#e9e9e9" d="M 342.09375 550.332031 L 342.054688 550.332031 C 341.660156 550.34375 341.34375 550.664062 341.34375 551.0625 C 341.34375 551.464844 341.671875 551.789062 342.078125 551.789062 C 342.476562 551.789062 342.808594 551.464844 342.808594 551.0625 C 342.808594 550.664062 342.488281 550.34375 342.09375 550.332031 " fill-opacity="1" fill-rule="nonzero"/><path fill="#e9e9e9" d="M 346.542969 550.332031 L 346.503906 550.332031 C 346.109375 550.34375 345.785156 550.664062 345.785156 551.0625 C 345.785156 551.464844 346.113281 551.789062 346.519531 551.789062 C 346.925781 551.789062 347.253906 551.464844 347.253906 551.0625 C 347.253906 550.664062 346.933594 550.34375 346.542969 550.332031 " fill-opacity="1" fill-rule="nonzero"/><path fill="#e9e9e9" d="M 317.550781 566.414062 C 317.148438 566.414062 316.824219 566.742188 316.824219 567.140625 C 316.824219 567.542969 317.136719 567.871094 317.53125 567.875 L 317.566406 567.875 C 317.96875 567.871094 318.28125 567.542969 318.28125 567.140625 C 318.28125 566.742188 317.957031 566.414062 317.550781 566.414062 " fill-opacity="1" fill-rule="nonzero"/><path fill="#e9e9e9" d="M 324.316406 550.332031 L 324.277344 550.332031 C 323.882812 550.34375 323.566406 550.664062 323.566406 551.0625 C 323.566406 551.464844 323.898438 551.789062 324.300781 551.789062 C 324.699219 551.789062 325.03125 551.464844 325.03125 551.0625 C 325.03125 550.664062 324.710938 550.34375 324.316406 550.332031 " fill-opacity="1" fill-rule="nonzero"/><path fill="#e9e9e9" d="M 353.105469 553.644531 C 353.40625 553.644531 353.664062 553.460938 353.78125 553.207031 C 353.636719 552.84375 353.449219 552.507812 353.222656 552.199219 L 353.105469 552.1875 C 352.703125 552.1875 352.371094 552.511719 352.371094 552.917969 C 352.371094 553.320312 352.703125 553.644531 353.105469 553.644531 " fill-opacity="1" fill-rule="nonzero"/><path fill="#e9e9e9" d="M 350.566406 550.445312 C 350.367188 550.578125 350.234375 550.800781 350.234375 551.0625 C 350.234375 551.464844 350.5625 551.789062 350.960938 551.789062 C 351.367188 551.789062 351.695312 551.464844 351.695312 551.0625 L 351.660156 550.847656 C 351.324219 550.667969 350.957031 550.53125 350.566406 550.445312 " fill-opacity="1" fill-rule="nonzero"/><path fill="#e9e9e9" d="M 328.765625 550.332031 L 328.726562 550.332031 C 328.324219 550.34375 328.011719 550.664062 328.011719 551.0625 C 328.011719 551.464844 328.335938 551.789062 328.742188 551.789062 C 329.148438 551.789062 329.476562 551.464844 329.476562 551.0625 C 329.476562 550.664062 329.160156 550.34375 328.765625 550.332031 " fill-opacity="1" fill-rule="nonzero"/><path fill="#e9e9e9" d="M 333.207031 550.332031 L 333.167969 550.332031 C 332.773438 550.34375 332.457031 550.664062 332.457031 551.0625 C 332.457031 551.464844 332.785156 551.789062 333.1875 551.789062 C 333.59375 551.789062 333.917969 551.464844 333.917969 551.0625 C 333.917969 550.664062 333.605469 550.34375 333.207031 550.332031 " fill-opacity="1" fill-rule="nonzero"/><path fill="#e9e9e9" d="M 337.652344 550.332031 L 337.609375 550.332031 C 337.214844 550.34375 336.902344 550.664062 336.902344 551.0625 C 336.902344 551.464844 337.226562 551.789062 337.632812 551.789062 C 338.035156 551.789062 338.359375 551.464844 338.359375 551.0625 C 338.359375 550.664062 338.046875 550.34375 337.652344 550.332031 " fill-opacity="1" fill-rule="nonzero"/><path fill="#e9e9e9" d="M 304.214844 552.1875 C 303.816406 552.1875 303.488281 552.511719 303.488281 552.917969 C 303.488281 553.320312 303.816406 553.644531 304.214844 553.644531 C 304.621094 553.644531 304.949219 553.320312 304.949219 552.917969 C 304.949219 552.511719 304.621094 552.1875 304.214844 552.1875 " fill-opacity="1" fill-rule="nonzero"/><path fill="#e9e9e9" d="M 304.214844 563.570312 C 303.816406 563.570312 303.488281 563.894531 303.488281 564.300781 C 303.488281 564.703125 303.816406 565.027344 304.214844 565.027344 C 304.621094 565.027344 304.949219 564.703125 304.949219 564.300781 C 304.949219 563.894531 304.621094 563.570312 304.214844 563.570312 " fill-opacity="1" fill-rule="nonzero"/><path fill="#e9e9e9" d="M 304.214844 560.722656 C 303.816406 560.722656 303.488281 561.050781 303.488281 561.457031 C 303.488281 561.855469 303.816406 562.183594 304.214844 562.183594 C 304.621094 562.183594 304.949219 561.855469 304.949219 561.457031 C 304.949219 561.050781 304.621094 560.722656 304.214844 560.722656 " fill-opacity="1" fill-rule="nonzero"/><path fill="#e9e9e9" d="M 302.074219 553.171875 C 301.675781 553.171875 301.347656 553.503906 301.347656 553.902344 C 301.347656 554.308594 301.675781 554.636719 302.074219 554.636719 C 302.480469 554.636719 302.808594 554.308594 302.808594 553.902344 C 302.808594 553.503906 302.480469 553.171875 302.074219 553.171875 " fill-opacity="1" fill-rule="nonzero"/><path fill="#e9e9e9" d="M 302.074219 556.015625 C 301.675781 556.015625 301.347656 556.347656 301.347656 556.75 C 301.347656 557.15625 301.675781 557.484375 302.074219 557.484375 C 302.480469 557.484375 302.808594 557.15625 302.808594 556.75 C 302.808594 556.347656 302.480469 556.015625 302.074219 556.015625 " fill-opacity="1" fill-rule="nonzero"/><path fill="#e9e9e9" d="M 322 566.414062 C 321.59375 566.414062 321.265625 566.742188 321.265625 567.140625 C 321.265625 567.542969 321.582031 567.871094 321.980469 567.875 L 322.011719 567.875 C 322.410156 567.871094 322.726562 567.542969 322.726562 567.140625 C 322.726562 566.742188 322.398438 566.414062 322 566.414062 " fill-opacity="1" fill-rule="nonzero"/><path fill="#e9e9e9" d="M 306.523438 564.554688 C 306.117188 564.554688 305.789062 564.886719 305.789062 565.292969 C 305.789062 565.695312 306.117188 566.019531 306.523438 566.019531 C 306.929688 566.019531 307.257812 565.695312 307.257812 565.292969 C 307.257812 564.886719 306.929688 564.554688 306.523438 564.554688 " fill-opacity="1" fill-rule="nonzero"/><path fill="#e9e9e9" d="M 302.074219 558.867188 C 301.675781 558.867188 301.347656 559.195312 301.347656 559.59375 C 301.347656 560 301.675781 560.328125 302.074219 560.328125 C 302.480469 560.328125 302.808594 560 302.808594 559.59375 C 302.808594 559.195312 302.480469 558.867188 302.074219 558.867188 " fill-opacity="1" fill-rule="nonzero"/><path fill="#e9e9e9" d="M 304.214844 557.878906 C 303.816406 557.878906 303.488281 558.203125 303.488281 558.609375 C 303.488281 559.011719 303.816406 559.335938 304.214844 559.335938 C 304.621094 559.335938 304.949219 559.011719 304.949219 558.609375 C 304.949219 558.203125 304.621094 557.878906 304.214844 557.878906 " fill-opacity="1" fill-rule="nonzero"/><path fill="#e9e9e9" d="M 304.214844 555.03125 C 303.816406 555.03125 303.488281 555.359375 303.488281 555.765625 C 303.488281 556.164062 303.816406 556.492188 304.214844 556.492188 C 304.621094 556.492188 304.949219 556.164062 304.949219 555.765625 C 304.949219 555.359375 304.621094 555.03125 304.214844 555.03125 " fill-opacity="1" fill-rule="nonzero"/><path fill="#e9e9e9" d="M 339.777344 566.414062 C 339.367188 566.414062 339.042969 566.742188 339.042969 567.140625 C 339.042969 567.542969 339.359375 567.871094 339.753906 567.875 L 339.785156 567.875 C 340.183594 567.871094 340.503906 567.542969 340.503906 567.140625 C 340.503906 566.742188 340.175781 566.414062 339.777344 566.414062 " fill-opacity="1" fill-rule="nonzero"/><path fill="#e9e9e9" d="M 302.074219 561.707031 C 301.675781 561.707031 301.347656 562.039062 301.347656 562.441406 C 301.347656 562.847656 301.675781 563.175781 302.074219 563.175781 C 302.480469 563.175781 302.808594 562.847656 302.808594 562.441406 C 302.808594 562.039062 302.480469 561.707031 302.074219 561.707031 " fill-opacity="1" fill-rule="nonzero"/><path fill="#e9e9e9" d="M 335.328125 566.414062 C 334.925781 566.414062 334.59375 566.742188 334.59375 567.140625 C 334.59375 567.542969 334.914062 567.871094 335.308594 567.875 L 335.34375 567.875 C 335.746094 567.871094 336.058594 567.542969 336.058594 567.140625 C 336.058594 566.742188 335.734375 566.414062 335.328125 566.414062 " fill-opacity="1" fill-rule="nonzero"/><path fill="#e9e9e9" d="M 326.441406 566.414062 C 326.035156 566.414062 325.707031 566.742188 325.707031 567.140625 C 325.707031 567.542969 326.027344 567.871094 326.425781 567.875 L 326.457031 567.875 C 326.855469 567.871094 327.175781 567.542969 327.175781 567.140625 C 327.175781 566.742188 326.84375 566.414062 326.441406 566.414062 " fill-opacity="1" fill-rule="nonzero"/><path fill="#e9e9e9" d="M 330.882812 566.414062 C 330.476562 566.414062 330.152344 566.742188 330.152344 567.140625 C 330.152344 567.542969 330.472656 567.871094 330.867188 567.875 L 330.902344 567.875 C 331.296875 567.871094 331.617188 567.542969 331.617188 567.140625 C 331.617188 566.742188 331.285156 566.414062 330.882812 566.414062 " fill-opacity="1" fill-rule="nonzero"/><path fill="#e9e9e9" d="M 352.433594 566.851562 C 352.582031 566.730469 352.714844 566.597656 352.847656 566.460938 C 352.664062 566.53125 352.515625 566.671875 352.433594 566.851562 " fill-opacity="1" fill-rule="nonzero"/><path fill="#e9e9e9" d="M 348.660156 566.414062 C 348.253906 566.414062 347.929688 566.742188 347.929688 567.140625 C 347.929688 567.542969 348.25 567.871094 348.644531 567.875 L 348.679688 567.875 C 349.074219 567.871094 349.394531 567.542969 349.394531 567.140625 C 349.394531 566.742188 349.066406 566.414062 348.660156 566.414062 " fill-opacity="1" fill-rule="nonzero"/><path fill="#e9e9e9" d="M 344.21875 566.414062 C 343.8125 566.414062 343.484375 566.742188 343.484375 567.140625 C 343.484375 567.542969 343.804688 567.871094 344.199219 567.875 L 344.234375 567.875 C 344.628906 567.871094 344.949219 567.542969 344.949219 567.140625 C 344.949219 566.742188 344.617188 566.414062 344.21875 566.414062 " fill-opacity="1" fill-rule="nonzero"/><path fill="#e9e9e9" d="M 322 557.878906 C 321.59375 557.878906 321.265625 558.203125 321.265625 558.609375 C 321.265625 559.011719 321.59375 559.335938 322 559.335938 C 322.398438 559.335938 322.726562 559.011719 322.726562 558.609375 C 322.726562 558.203125 322.398438 557.878906 322 557.878906 " fill-opacity="1" fill-rule="nonzero"/><path fill="#e9e9e9" d="M 322 555.03125 C 321.59375 555.03125 321.265625 555.359375 321.265625 555.765625 C 321.265625 556.164062 321.59375 556.492188 322 556.492188 C 322.398438 556.492188 322.726562 556.164062 322.726562 555.765625 C 322.726562 555.359375 322.398438 555.03125 322 555.03125 " fill-opacity="1" fill-rule="nonzero"/><path fill="#e9e9e9" d="M 344.21875 557.878906 C 343.8125 557.878906 343.484375 558.203125 343.484375 558.609375 C 343.484375 559.011719 343.8125 559.335938 344.21875 559.335938 C 344.617188 559.335938 344.949219 559.011719 344.949219 558.609375 C 344.949219 558.203125 344.617188 557.878906 344.21875 557.878906 " fill-opacity="1" fill-rule="nonzero"/><path fill="#e9e9e9" d="M 344.21875 563.570312 C 343.8125 563.570312 343.484375 563.894531 343.484375 564.300781 C 343.484375 564.703125 343.8125 565.027344 344.21875 565.027344 C 344.617188 565.027344 344.949219 564.703125 344.949219 564.300781 C 344.949219 563.894531 344.617188 563.570312 344.21875 563.570312 " fill-opacity="1" fill-rule="nonzero"/><path fill="#e9e9e9" d="M 342.078125 553.171875 C 341.671875 553.171875 341.34375 553.503906 341.34375 553.902344 C 341.34375 554.308594 341.671875 554.636719 342.078125 554.636719 C 342.476562 554.636719 342.808594 554.308594 342.808594 553.902344 C 342.808594 553.503906 342.476562 553.171875 342.078125 553.171875 " fill-opacity="1" fill-rule="nonzero"/><path fill="#e9e9e9" d="M 346.519531 564.554688 C 346.113281 564.554688 345.785156 564.886719 345.785156 565.292969 C 345.785156 565.695312 346.113281 566.019531 346.519531 566.019531 C 346.925781 566.019531 347.253906 565.695312 347.253906 565.292969 C 347.253906 564.886719 346.925781 564.554688 346.519531 564.554688 " fill-opacity="1" fill-rule="nonzero"/><path fill="#e9e9e9" d="M 344.21875 555.03125 C 343.8125 555.03125 343.484375 555.359375 343.484375 555.765625 C 343.484375 556.164062 343.8125 556.492188 344.21875 556.492188 C 344.617188 556.492188 344.949219 556.164062 344.949219 555.765625 C 344.949219 555.359375 344.617188 555.03125 344.21875 555.03125 " fill-opacity="1" fill-rule="nonzero"/><path fill="#e9e9e9" d="M 346.519531 561.707031 C 346.113281 561.707031 345.785156 562.039062 345.785156 562.441406 C 345.785156 562.847656 346.113281 563.175781 346.519531 563.175781 C 346.925781 563.175781 347.253906 562.847656 347.253906 562.441406 C 347.253906 562.039062 346.925781 561.707031 346.519531 561.707031 " fill-opacity="1" fill-rule="nonzero"/><path fill="#e9e9e9" d="M 344.21875 552.1875 C 343.8125 552.1875 343.484375 552.511719 343.484375 552.917969 C 343.484375 553.320312 343.8125 553.644531 344.21875 553.644531 C 344.617188 553.644531 344.949219 553.320312 344.949219 552.917969 C 344.949219 552.511719 344.617188 552.1875 344.21875 552.1875 " fill-opacity="1" fill-rule="nonzero"/><path fill="#e9e9e9" d="M 342.078125 556.015625 C 341.671875 556.015625 341.34375 556.347656 341.34375 556.75 C 341.34375 557.15625 341.671875 557.484375 342.078125 557.484375 C 342.476562 557.484375 342.808594 557.15625 342.808594 556.75 C 342.808594 556.347656 342.476562 556.015625 342.078125 556.015625 " fill-opacity="1" fill-rule="nonzero"/><path fill="#e9e9e9" d="M 342.078125 558.867188 C 341.671875 558.867188 341.34375 559.195312 341.34375 559.59375 C 341.34375 560 341.671875 560.328125 342.078125 560.328125 C 342.476562 560.328125 342.808594 560 342.808594 559.59375 C 342.808594 559.195312 342.476562 558.867188 342.078125 558.867188 " fill-opacity="1" fill-rule="nonzero"/><path fill="#e9e9e9" d="M 339.777344 557.878906 C 339.367188 557.878906 339.042969 558.203125 339.042969 558.609375 C 339.042969 559.011719 339.367188 559.335938 339.777344 559.335938 C 340.175781 559.335938 340.503906 559.011719 340.503906 558.609375 C 340.503906 558.203125 340.175781 557.878906 339.777344 557.878906 " fill-opacity="1" fill-rule="nonzero"/><path fill="#e9e9e9" d="M 339.777344 560.722656 C 339.367188 560.722656 339.042969 561.050781 339.042969 561.457031 C 339.042969 561.855469 339.367188 562.183594 339.777344 562.183594 C 340.175781 562.183594 340.503906 561.855469 340.503906 561.457031 C 340.503906 561.050781 340.175781 560.722656 339.777344 560.722656 " fill-opacity="1" fill-rule="nonzero"/><path fill="#e9e9e9" d="M 339.777344 563.570312 C 339.367188 563.570312 339.042969 563.894531 339.042969 564.300781 C 339.042969 564.703125 339.367188 565.027344 339.777344 565.027344 C 340.175781 565.027344 340.503906 564.703125 340.503906 564.300781 C 340.503906 563.894531 340.175781 563.570312 339.777344 563.570312 " fill-opacity="1" fill-rule="nonzero"/><path fill="#e9e9e9" d="M 339.777344 555.03125 C 339.367188 555.03125 339.042969 555.359375 339.042969 555.765625 C 339.042969 556.164062 339.367188 556.492188 339.777344 556.492188 C 340.175781 556.492188 340.503906 556.164062 340.503906 555.765625 C 340.503906 555.359375 340.175781 555.03125 339.777344 555.03125 " fill-opacity="1" fill-rule="nonzero"/><path fill="#e9e9e9" d="M 342.078125 561.707031 C 341.671875 561.707031 341.34375 562.039062 341.34375 562.441406 C 341.34375 562.847656 341.671875 563.175781 342.078125 563.175781 C 342.476562 563.175781 342.808594 562.847656 342.808594 562.441406 C 342.808594 562.039062 342.476562 561.707031 342.078125 561.707031 " fill-opacity="1" fill-rule="nonzero"/><path fill="#e9e9e9" d="M 339.777344 552.1875 C 339.367188 552.1875 339.042969 552.511719 339.042969 552.917969 C 339.042969 553.320312 339.367188 553.644531 339.777344 553.644531 C 340.175781 553.644531 340.503906 553.320312 340.503906 552.917969 C 340.503906 552.511719 340.175781 552.1875 339.777344 552.1875 " fill-opacity="1" fill-rule="nonzero"/><path fill="#e9e9e9" d="M 342.078125 564.554688 C 341.671875 564.554688 341.34375 564.886719 341.34375 565.292969 C 341.34375 565.695312 341.671875 566.019531 342.078125 566.019531 C 342.476562 566.019531 342.808594 565.695312 342.808594 565.292969 C 342.808594 564.886719 342.476562 564.554688 342.078125 564.554688 " fill-opacity="1" fill-rule="nonzero"/><path fill="#e9e9e9" d="M 353.105469 563.570312 C 352.703125 563.570312 352.371094 563.894531 352.371094 564.300781 C 352.371094 564.703125 352.703125 565.027344 353.105469 565.027344 C 353.511719 565.027344 353.835938 564.703125 353.835938 564.300781 C 353.835938 563.894531 353.511719 563.570312 353.105469 563.570312 " fill-opacity="1" fill-rule="nonzero"/><path fill="#e9e9e9" d="M 350.960938 556.015625 C 350.5625 556.015625 350.234375 556.347656 350.234375 556.75 C 350.234375 557.15625 350.5625 557.484375 350.960938 557.484375 C 351.367188 557.484375 351.695312 557.15625 351.695312 556.75 C 351.695312 556.347656 351.367188 556.015625 350.960938 556.015625 " fill-opacity="1" fill-rule="nonzero"/><path fill="#e9e9e9" d="M 350.960938 553.171875 C 350.5625 553.171875 350.234375 553.503906 350.234375 553.902344 C 350.234375 554.308594 350.5625 554.636719 350.960938 554.636719 C 351.367188 554.636719 351.695312 554.308594 351.695312 553.902344 C 351.695312 553.503906 351.367188 553.171875 350.960938 553.171875 " fill-opacity="1" fill-rule="nonzero"/><path fill="#e9e9e9" d="M 350.960938 558.867188 C 350.5625 558.867188 350.234375 559.195312 350.234375 559.59375 C 350.234375 560 350.5625 560.328125 350.960938 560.328125 C 351.367188 560.328125 351.695312 560 351.695312 559.59375 C 351.695312 559.195312 351.367188 558.867188 350.960938 558.867188 " fill-opacity="1" fill-rule="nonzero"/><path fill="#e9e9e9" d="M 337.632812 553.171875 C 337.226562 553.171875 336.902344 553.503906 336.902344 553.902344 C 336.902344 554.308594 337.226562 554.636719 337.632812 554.636719 C 338.035156 554.636719 338.359375 554.308594 338.359375 553.902344 C 338.359375 553.503906 338.035156 553.171875 337.632812 553.171875 " fill-opacity="1" fill-rule="nonzero"/><path fill="#e9e9e9" d="M 353.105469 557.878906 C 352.703125 557.878906 352.371094 558.203125 352.371094 558.609375 C 352.371094 559.011719 352.703125 559.335938 353.105469 559.335938 C 353.511719 559.335938 353.835938 559.011719 353.835938 558.609375 C 353.835938 558.203125 353.511719 557.878906 353.105469 557.878906 " fill-opacity="1" fill-rule="nonzero"/><path fill="#e9e9e9" d="M 346.519531 558.867188 C 346.113281 558.867188 345.785156 559.195312 345.785156 559.59375 C 345.785156 560 346.113281 560.328125 346.519531 560.328125 C 346.925781 560.328125 347.253906 560 347.253906 559.59375 C 347.253906 559.195312 346.925781 558.867188 346.519531 558.867188 " fill-opacity="1" fill-rule="nonzero"/><path fill="#e9e9e9" d="M 353.105469 556.492188 C 353.511719 556.492188 353.835938 556.164062 353.835938 555.765625 C 353.835938 555.359375 353.511719 555.03125 353.105469 555.03125 C 352.703125 555.03125 352.371094 555.359375 352.371094 555.765625 C 352.371094 556.164062 352.703125 556.492188 353.105469 556.492188 " fill-opacity="1" fill-rule="nonzero"/><path fill="#e9e9e9" d="M 350.960938 561.707031 C 350.5625 561.707031 350.234375 562.039062 350.234375 562.441406 C 350.234375 562.847656 350.5625 563.175781 350.960938 563.175781 C 351.367188 563.175781 351.695312 562.847656 351.695312 562.441406 C 351.695312 562.039062 351.367188 561.707031 350.960938 561.707031 " fill-opacity="1" fill-rule="nonzero"/><path fill="#e9e9e9" d="M 353.105469 560.722656 C 352.703125 560.722656 352.371094 561.050781 352.371094 561.457031 C 352.371094 561.855469 352.703125 562.183594 353.105469 562.183594 C 353.511719 562.183594 353.835938 561.855469 353.835938 561.457031 C 353.835938 561.050781 353.511719 560.722656 353.105469 560.722656 " fill-opacity="1" fill-rule="nonzero"/><path fill="#e9e9e9" d="M 350.960938 564.554688 C 350.5625 564.554688 350.234375 564.886719 350.234375 565.292969 C 350.234375 565.695312 350.5625 566.019531 350.960938 566.019531 C 351.367188 566.019531 351.695312 565.695312 351.695312 565.292969 C 351.695312 564.886719 351.367188 564.554688 350.960938 564.554688 " fill-opacity="1" fill-rule="nonzero"/><path fill="#e9e9e9" d="M 348.660156 560.722656 C 348.253906 560.722656 347.929688 561.050781 347.929688 561.457031 C 347.929688 561.855469 348.253906 562.183594 348.660156 562.183594 C 349.066406 562.183594 349.394531 561.855469 349.394531 561.457031 C 349.394531 561.050781 349.066406 560.722656 348.660156 560.722656 " fill-opacity="1" fill-rule="nonzero"/><path fill="#e9e9e9" d="M 348.660156 563.570312 C 348.253906 563.570312 347.929688 563.894531 347.929688 564.300781 C 347.929688 564.703125 348.253906 565.027344 348.660156 565.027344 C 349.066406 565.027344 349.394531 564.703125 349.394531 564.300781 C 349.394531 563.894531 349.066406 563.570312 348.660156 563.570312 " fill-opacity="1" fill-rule="nonzero"/><path fill="#e9e9e9" d="M 346.519531 556.015625 C 346.113281 556.015625 345.785156 556.347656 345.785156 556.75 C 345.785156 557.15625 346.113281 557.484375 346.519531 557.484375 C 346.925781 557.484375 347.253906 557.15625 347.253906 556.75 C 347.253906 556.347656 346.925781 556.015625 346.519531 556.015625 " fill-opacity="1" fill-rule="nonzero"/><path fill="#e9e9e9" d="M 346.519531 553.171875 C 346.113281 553.171875 345.785156 553.503906 345.785156 553.902344 C 345.785156 554.308594 346.113281 554.636719 346.519531 554.636719 C 346.925781 554.636719 347.253906 554.308594 347.253906 553.902344 C 347.253906 553.503906 346.925781 553.171875 346.519531 553.171875 " fill-opacity="1" fill-rule="nonzero"/><path fill="#e9e9e9" d="M 348.660156 552.1875 C 348.253906 552.1875 347.929688 552.511719 347.929688 552.917969 C 347.929688 553.320312 348.253906 553.644531 348.660156 553.644531 C 349.066406 553.644531 349.394531 553.320312 349.394531 552.917969 C 349.394531 552.511719 349.066406 552.1875 348.660156 552.1875 " fill-opacity="1" fill-rule="nonzero"/><path fill="#e9e9e9" d="M 348.660156 555.03125 C 348.253906 555.03125 347.929688 555.359375 347.929688 555.765625 C 347.929688 556.164062 348.253906 556.492188 348.660156 556.492188 C 349.066406 556.492188 349.394531 556.164062 349.394531 555.765625 C 349.394531 555.359375 349.066406 555.03125 348.660156 555.03125 " fill-opacity="1" fill-rule="nonzero"/><path fill="#e9e9e9" d="M 348.660156 557.878906 C 348.253906 557.878906 347.929688 558.203125 347.929688 558.609375 C 347.929688 559.011719 348.253906 559.335938 348.660156 559.335938 C 349.066406 559.335938 349.394531 559.011719 349.394531 558.609375 C 349.394531 558.203125 349.066406 557.878906 348.660156 557.878906 " fill-opacity="1" fill-rule="nonzero"/><path fill="#e9e9e9" d="M 344.21875 560.722656 C 343.8125 560.722656 343.484375 561.050781 343.484375 561.457031 C 343.484375 561.855469 343.8125 562.183594 344.21875 562.183594 C 344.617188 562.183594 344.949219 561.855469 344.949219 561.457031 C 344.949219 561.050781 344.617188 560.722656 344.21875 560.722656 " fill-opacity="1" fill-rule="nonzero"/><path fill="#e9e9e9" d="M 326.441406 552.1875 C 326.035156 552.1875 325.707031 552.511719 325.707031 552.917969 C 325.707031 553.320312 326.035156 553.644531 326.441406 553.644531 C 326.84375 553.644531 327.175781 553.320312 327.175781 552.917969 C 327.175781 552.511719 326.84375 552.1875 326.441406 552.1875 " fill-opacity="1" fill-rule="nonzero"/><path fill="#e9e9e9" d="M 330.882812 563.570312 C 330.476562 563.570312 330.152344 563.894531 330.152344 564.300781 C 330.152344 564.703125 330.476562 565.027344 330.882812 565.027344 C 331.285156 565.027344 331.617188 564.703125 331.617188 564.300781 C 331.617188 563.894531 331.285156 563.570312 330.882812 563.570312 " fill-opacity="1" fill-rule="nonzero"/><path fill="#e9e9e9" d="M 326.441406 555.03125 C 326.035156 555.03125 325.707031 555.359375 325.707031 555.765625 C 325.707031 556.164062 326.035156 556.492188 326.441406 556.492188 C 326.84375 556.492188 327.175781 556.164062 327.175781 555.765625 C 327.175781 555.359375 326.84375 555.03125 326.441406 555.03125 " fill-opacity="1" fill-rule="nonzero"/><path fill="#e9e9e9" d="M 328.742188 561.707031 C 328.335938 561.707031 328.011719 562.039062 328.011719 562.441406 C 328.011719 562.847656 328.335938 563.175781 328.742188 563.175781 C 329.148438 563.175781 329.476562 562.847656 329.476562 562.441406 C 329.476562 562.039062 329.148438 561.707031 328.742188 561.707031 " fill-opacity="1" fill-rule="nonzero"/><path fill="#e9e9e9" d="M 328.742188 556.015625 C 328.335938 556.015625 328.011719 556.347656 328.011719 556.75 C 328.011719 557.15625 328.335938 557.484375 328.742188 557.484375 C 329.148438 557.484375 329.476562 557.15625 329.476562 556.75 C 329.476562 556.347656 329.148438 556.015625 328.742188 556.015625 " fill-opacity="1" fill-rule="nonzero"/><path fill="#e9e9e9" d="M 328.742188 553.171875 C 328.335938 553.171875 328.011719 553.503906 328.011719 553.902344 C 328.011719 554.308594 328.335938 554.636719 328.742188 554.636719 C 329.148438 554.636719 329.476562 554.308594 329.476562 553.902344 C 329.476562 553.503906 329.148438 553.171875 328.742188 553.171875 " fill-opacity="1" fill-rule="nonzero"/><path fill="#e9e9e9" d="M 328.742188 558.867188 C 328.335938 558.867188 328.011719 559.195312 328.011719 559.59375 C 328.011719 560 328.335938 560.328125 328.742188 560.328125 C 329.148438 560.328125 329.476562 560 329.476562 559.59375 C 329.476562 559.195312 329.148438 558.867188 328.742188 558.867188 " fill-opacity="1" fill-rule="nonzero"/><path fill="#e9e9e9" d="M 337.632812 556.015625 C 337.226562 556.015625 336.902344 556.347656 336.902344 556.75 C 336.902344 557.15625 337.226562 557.484375 337.632812 557.484375 C 338.035156 557.484375 338.359375 557.15625 338.359375 556.75 C 338.359375 556.347656 338.035156 556.015625 337.632812 556.015625 " fill-opacity="1" fill-rule="nonzero"/><path fill="#e9e9e9" d="M 328.742188 564.554688 C 328.335938 564.554688 328.011719 564.886719 328.011719 565.292969 C 328.011719 565.695312 328.335938 566.019531 328.742188 566.019531 C 329.148438 566.019531 329.476562 565.695312 329.476562 565.292969 C 329.476562 564.886719 329.148438 564.554688 328.742188 564.554688 " fill-opacity="1" fill-rule="nonzero"/><path fill="#e9e9e9" d="M 324.300781 558.867188 C 323.898438 558.867188 323.566406 559.195312 323.566406 559.59375 C 323.566406 560 323.898438 560.328125 324.300781 560.328125 C 324.699219 560.328125 325.03125 560 325.03125 559.59375 C 325.03125 559.195312 324.699219 558.867188 324.300781 558.867188 " fill-opacity="1" fill-rule="nonzero"/><path fill="#e9e9e9" d="M 324.300781 564.554688 C 323.898438 564.554688 323.566406 564.886719 323.566406 565.292969 C 323.566406 565.695312 323.898438 566.019531 324.300781 566.019531 C 324.699219 566.019531 325.03125 565.695312 325.03125 565.292969 C 325.03125 564.886719 324.699219 564.554688 324.300781 564.554688 " fill-opacity="1" fill-rule="nonzero"/><path fill="#e9e9e9" d="M 324.300781 561.707031 C 323.898438 561.707031 323.566406 562.039062 323.566406 562.441406 C 323.566406 562.847656 323.898438 563.175781 324.300781 563.175781 C 324.699219 563.175781 325.03125 562.847656 325.03125 562.441406 C 325.03125 562.039062 324.699219 561.707031 324.300781 561.707031 " fill-opacity="1" fill-rule="nonzero"/><path fill="#e9e9e9" d="M 322 552.1875 C 321.59375 552.1875 321.265625 552.511719 321.265625 552.917969 C 321.265625 553.320312 321.59375 553.644531 322 553.644531 C 322.398438 553.644531 322.726562 553.320312 322.726562 552.917969 C 322.726562 552.511719 322.398438 552.1875 322 552.1875 " fill-opacity="1" fill-rule="nonzero"/><path fill="#e9e9e9" d="M 326.441406 563.570312 C 326.035156 563.570312 325.707031 563.894531 325.707031 564.300781 C 325.707031 564.703125 326.035156 565.027344 326.441406 565.027344 C 326.84375 565.027344 327.175781 564.703125 327.175781 564.300781 C 327.175781 563.894531 326.84375 563.570312 326.441406 563.570312 " fill-opacity="1" fill-rule="nonzero"/><path fill="#e9e9e9" d="M 326.441406 560.722656 C 326.035156 560.722656 325.707031 561.050781 325.707031 561.457031 C 325.707031 561.855469 326.035156 562.183594 326.441406 562.183594 C 326.84375 562.183594 327.175781 561.855469 327.175781 561.457031 C 327.175781 561.050781 326.84375 560.722656 326.441406 560.722656 " fill-opacity="1" fill-rule="nonzero"/><path fill="#e9e9e9" d="M 324.300781 553.171875 C 323.898438 553.171875 323.566406 553.503906 323.566406 553.902344 C 323.566406 554.308594 323.898438 554.636719 324.300781 554.636719 C 324.699219 554.636719 325.03125 554.308594 325.03125 553.902344 C 325.03125 553.503906 324.699219 553.171875 324.300781 553.171875 " fill-opacity="1" fill-rule="nonzero"/><path fill="#e9e9e9" d="M 324.300781 556.015625 C 323.898438 556.015625 323.566406 556.347656 323.566406 556.75 C 323.566406 557.15625 323.898438 557.484375 324.300781 557.484375 C 324.699219 557.484375 325.03125 557.15625 325.03125 556.75 C 325.03125 556.347656 324.699219 556.015625 324.300781 556.015625 " fill-opacity="1" fill-rule="nonzero"/><path fill="#e9e9e9" d="M 326.441406 557.878906 C 326.035156 557.878906 325.707031 558.203125 325.707031 558.609375 C 325.707031 559.011719 326.035156 559.335938 326.441406 559.335938 C 326.84375 559.335938 327.175781 559.011719 327.175781 558.609375 C 327.175781 558.203125 326.84375 557.878906 326.441406 557.878906 " fill-opacity="1" fill-rule="nonzero"/><path fill="#e9e9e9" d="M 335.328125 555.03125 C 334.925781 555.03125 334.59375 555.359375 334.59375 555.765625 C 334.59375 556.164062 334.925781 556.492188 335.328125 556.492188 C 335.734375 556.492188 336.058594 556.164062 336.058594 555.765625 C 336.058594 555.359375 335.734375 555.03125 335.328125 555.03125 " fill-opacity="1" fill-rule="nonzero"/><path fill="#e9e9e9" d="M 335.328125 552.1875 C 334.925781 552.1875 334.59375 552.511719 334.59375 552.917969 C 334.59375 553.320312 334.925781 553.644531 335.328125 553.644531 C 335.734375 553.644531 336.058594 553.320312 336.058594 552.917969 C 336.058594 552.511719 335.734375 552.1875 335.328125 552.1875 " fill-opacity="1" fill-rule="nonzero"/><path fill="#e9e9e9" d="M 335.328125 557.878906 C 334.925781 557.878906 334.59375 558.203125 334.59375 558.609375 C 334.59375 559.011719 334.925781 559.335938 335.328125 559.335938 C 335.734375 559.335938 336.058594 559.011719 336.058594 558.609375 C 336.058594 558.203125 335.734375 557.878906 335.328125 557.878906 " fill-opacity="1" fill-rule="nonzero"/><path fill="#e9e9e9" d="M 335.328125 563.570312 C 334.925781 563.570312 334.59375 563.894531 334.59375 564.300781 C 334.59375 564.703125 334.925781 565.027344 335.328125 565.027344 C 335.734375 565.027344 336.058594 564.703125 336.058594 564.300781 C 336.058594 563.894531 335.734375 563.570312 335.328125 563.570312 " fill-opacity="1" fill-rule="nonzero"/><path fill="#e9e9e9" d="M 335.328125 560.722656 C 334.925781 560.722656 334.59375 561.050781 334.59375 561.457031 C 334.59375 561.855469 334.925781 562.183594 335.328125 562.183594 C 335.734375 562.183594 336.058594 561.855469 336.058594 561.457031 C 336.058594 561.050781 335.734375 560.722656 335.328125 560.722656 " fill-opacity="1" fill-rule="nonzero"/><path fill="#e9e9e9" d="M 337.632812 564.554688 C 337.226562 564.554688 336.902344 564.886719 336.902344 565.292969 C 336.902344 565.695312 337.226562 566.019531 337.632812 566.019531 C 338.035156 566.019531 338.359375 565.695312 338.359375 565.292969 C 338.359375 564.886719 338.035156 564.554688 337.632812 564.554688 " fill-opacity="1" fill-rule="nonzero"/><path fill="#e9e9e9" d="M 337.632812 558.867188 C 337.226562 558.867188 336.902344 559.195312 336.902344 559.59375 C 336.902344 560 337.226562 560.328125 337.632812 560.328125 C 338.035156 560.328125 338.359375 560 338.359375 559.59375 C 338.359375 559.195312 338.035156 558.867188 337.632812 558.867188 " fill-opacity="1" fill-rule="nonzero"/><path fill="#e9e9e9" d="M 337.632812 561.707031 C 337.226562 561.707031 336.902344 562.039062 336.902344 562.441406 C 336.902344 562.847656 337.226562 563.175781 337.632812 563.175781 C 338.035156 563.175781 338.359375 562.847656 338.359375 562.441406 C 338.359375 562.039062 338.035156 561.707031 337.632812 561.707031 " fill-opacity="1" fill-rule="nonzero"/><path fill="#e9e9e9" d="M 330.882812 557.878906 C 330.476562 557.878906 330.152344 558.203125 330.152344 558.609375 C 330.152344 559.011719 330.476562 559.335938 330.882812 559.335938 C 331.285156 559.335938 331.617188 559.011719 331.617188 558.609375 C 331.617188 558.203125 331.285156 557.878906 330.882812 557.878906 " fill-opacity="1" fill-rule="nonzero"/><path fill="#e9e9e9" d="M 330.882812 552.1875 C 330.476562 552.1875 330.152344 552.511719 330.152344 552.917969 C 330.152344 553.320312 330.476562 553.644531 330.882812 553.644531 C 331.285156 553.644531 331.617188 553.320312 331.617188 552.917969 C 331.617188 552.511719 331.285156 552.1875 330.882812 552.1875 " fill-opacity="1" fill-rule="nonzero"/><path fill="#e9e9e9" d="M 330.882812 555.03125 C 330.476562 555.03125 330.152344 555.359375 330.152344 555.765625 C 330.152344 556.164062 330.476562 556.492188 330.882812 556.492188 C 331.285156 556.492188 331.617188 556.164062 331.617188 555.765625 C 331.617188 555.359375 331.285156 555.03125 330.882812 555.03125 " fill-opacity="1" fill-rule="nonzero"/><path fill="#e9e9e9" d="M 330.882812 560.722656 C 330.476562 560.722656 330.152344 561.050781 330.152344 561.457031 C 330.152344 561.855469 330.476562 562.183594 330.882812 562.183594 C 331.285156 562.183594 331.617188 561.855469 331.617188 561.457031 C 331.617188 561.050781 331.285156 560.722656 330.882812 560.722656 " fill-opacity="1" fill-rule="nonzero"/><path fill="#e9e9e9" d="M 333.1875 564.554688 C 332.785156 564.554688 332.457031 564.886719 332.457031 565.292969 C 332.457031 565.695312 332.785156 566.019531 333.1875 566.019531 C 333.59375 566.019531 333.917969 565.695312 333.917969 565.292969 C 333.917969 564.886719 333.59375 564.554688 333.1875 564.554688 " fill-opacity="1" fill-rule="nonzero"/><path fill="#e9e9e9" d="M 333.1875 561.707031 C 332.785156 561.707031 332.457031 562.039062 332.457031 562.441406 C 332.457031 562.847656 332.785156 563.175781 333.1875 563.175781 C 333.59375 563.175781 333.917969 562.847656 333.917969 562.441406 C 333.917969 562.039062 333.59375 561.707031 333.1875 561.707031 " fill-opacity="1" fill-rule="nonzero"/><path fill="#e9e9e9" d="M 333.1875 556.015625 C 332.785156 556.015625 332.457031 556.347656 332.457031 556.75 C 332.457031 557.15625 332.785156 557.484375 333.1875 557.484375 C 333.59375 557.484375 333.917969 557.15625 333.917969 556.75 C 333.917969 556.347656 333.59375 556.015625 333.1875 556.015625 " fill-opacity="1" fill-rule="nonzero"/><path fill="#e9e9e9" d="M 333.1875 553.171875 C 332.785156 553.171875 332.457031 553.503906 332.457031 553.902344 C 332.457031 554.308594 332.785156 554.636719 333.1875 554.636719 C 333.59375 554.636719 333.917969 554.308594 333.917969 553.902344 C 333.917969 553.503906 333.59375 553.171875 333.1875 553.171875 " fill-opacity="1" fill-rule="nonzero"/><path fill="#e9e9e9" d="M 333.1875 558.867188 C 332.785156 558.867188 332.457031 559.195312 332.457031 559.59375 C 332.457031 560 332.785156 560.328125 333.1875 560.328125 C 333.59375 560.328125 333.917969 560 333.917969 559.59375 C 333.917969 559.195312 333.59375 558.867188 333.1875 558.867188 " fill-opacity="1" fill-rule="nonzero"/><path fill="#e9e9e9" d="M 339.550781 567.875 L 315.632812 567.875 L 315.632812 550.332031 L 339.550781 550.332031 L 339.550781 567.875 " fill-opacity="1" fill-rule="nonzero"/><path fill="#efccb4" d="M 334.042969 605.65625 L 329.800781 605.65625 C 330.328125 600.375 330.730469 595.085938 331.027344 589.78125 L 334.042969 589.78125 L 334.042969 605.65625 M 327.59375 605.65625 L 321.140625 605.65625 L 321.140625 589.78125 L 326.625 589.78125 C 326.328125 595.015625 325.933594 600.238281 325.40625 605.4375 L 327.59375 605.65625 " fill-opacity="1" fill-rule="nonzero"/><path fill="#db8b75" d="M 329.800781 605.65625 L 327.59375 605.65625 L 325.40625 605.4375 C 325.933594 600.238281 326.328125 595.015625 326.625 589.78125 L 331.027344 589.78125 C 330.730469 595.085938 330.328125 600.375 329.800781 605.65625 " fill-opacity="1" fill-rule="nonzero"/><path fill="#efccb4" d="M 335.332031 589.78125 L 331.027344 589.78125 C 331.074219 588.964844 331.117188 588.144531 331.160156 587.324219 L 335.332031 587.324219 L 335.332031 589.78125 M 326.625 589.78125 L 319.847656 589.78125 L 319.847656 587.324219 L 326.757812 587.324219 C 326.714844 588.144531 326.671875 588.964844 326.625 589.78125 " fill-opacity="1" fill-rule="nonzero"/><path fill="#db8b75" d="M 331.027344 589.78125 L 326.625 589.78125 C 326.671875 588.964844 326.714844 588.144531 326.757812 587.324219 L 331.160156 587.324219 C 331.117188 588.144531 331.074219 588.964844 331.027344 589.78125 " fill-opacity="1" fill-rule="nonzero"/><path fill="#e9e9e9" d="M 324.292969 611.027344 L 330.882812 611.027344 L 330.882812 605.65625 L 324.292969 605.65625 L 324.292969 611.027344 " fill-opacity="1" fill-rule="nonzero"/><path fill="#e9e9e9" d="M 323.636719 611.027344 L 331.546875 611.027344 L 331.546875 611.851562 L 323.636719 611.851562 L 323.636719 611.027344 " fill-opacity="1" fill-rule="nonzero"/><path fill="#e9e9e9" d="M 328.175781 634.410156 L 327.015625 634.410156 L 327.015625 611.851562 L 328.175781 611.851562 L 328.175781 634.410156 " fill-opacity="1" fill-rule="nonzero"/><g clip-path="url(#fc20ce5aa4)"><path fill="#ffcc00" d="M 387.914062 193.128906 L 299.519531 345.875 C 291.871094 359.089844 301.429688 375.605469 316.722656 375.605469 L 493.507812 375.605469 C 508.800781 375.605469 518.359375 359.089844 510.710938 345.875 L 422.320312 193.128906 C 414.671875 179.917969 395.558594 179.917969 387.914062 193.128906 " fill-opacity="1" fill-rule="nonzero"/></g><path fill="#000000" d="M 405.117188 201.71875 C 404.351562 201.71875 404.09375 202.164062 403.96875 202.378906 L 315.574219 355.125 C 315.449219 355.339844 315.195312 355.785156 315.574219 356.445312 C 315.957031 357.109375 316.472656 357.109375 316.722656 357.109375 L 493.507812 357.109375 C 493.757812 357.109375 494.273438 357.109375 494.65625 356.445312 C 495.039062 355.785156 494.78125 355.339844 494.65625 355.125 L 406.261719 202.378906 C 406.140625 202.164062 405.878906 201.71875 405.117188 201.71875 Z M 493.507812 367.679688 L 316.722656 367.679688 C 312.414062 367.679688 308.554688 365.457031 306.398438 361.730469 C 304.246094 358.011719 304.246094 353.566406 306.398438 349.839844 L 394.792969 197.09375 C 396.949219 193.371094 400.804688 191.148438 405.117188 191.148438 C 409.425781 191.148438 413.285156 193.371094 415.4375 197.09375 L 503.832031 349.839844 C 505.984375 353.5625 505.984375 358.007812 503.832031 361.730469 C 501.675781 365.457031 497.816406 367.679688 493.507812 367.679688 " fill-opacity="1" fill-rule="nonzero"/><path fill="#000000" d="M 405.1875 343.292969 C 402.273438 343.292969 399.730469 342.351562 397.558594 340.46875 C 395.386719 338.589844 394.300781 335.957031 394.300781 332.574219 C 394.300781 329.621094 395.339844 327.105469 397.417969 325.035156 C 399.492188 322.964844 402.035156 321.925781 405.042969 321.925781 C 408.050781 321.925781 410.617188 322.964844 412.742188 325.035156 C 414.867188 327.105469 415.929688 329.621094 415.929688 332.574219 C 415.929688 335.910156 414.855469 338.53125 412.707031 340.433594 C 410.558594 342.339844 408.050781 343.292969 405.1875 343.292969 Z M 397.238281 296.273438 L 394.945312 262.046875 C 394.515625 255.378906 394.300781 250.589844 394.300781 247.683594 C 394.300781 243.730469 395.339844 240.648438 397.417969 238.433594 C 399.492188 236.214844 402.226562 235.109375 405.617188 235.109375 C 409.722656 235.109375 412.46875 236.527344 413.855469 239.359375 C 415.238281 242.195312 415.929688 246.28125 415.929688 251.613281 C 415.929688 254.757812 415.761719 257.953125 415.429688 261.191406 L 412.347656 296.417969 C 412.015625 300.609375 411.300781 303.824219 410.199219 306.066406 C 409.101562 308.304688 407.289062 309.421875 404.757812 309.421875 C 402.179688 309.421875 400.390625 308.339844 399.386719 306.171875 C 398.382812 304.003906 397.667969 300.707031 397.238281 296.273438 " fill-opacity="1" fill-rule="nonzero"/></svg>