<svg xmlns="http://www.w3.org/2000/svg" xmlns:xlink="http://www.w3.org/1999/xlink" viewBox="0 0 500 500" width="500" height="500" preserveAspectRatio="xMidYMid meet" style="width: 100%; height: 100%; transform: translate3d(0px, 0px, 0px); content-visibility: visible;"><defs><clipPath id="__lottie_element_59"><rect width="500" height="500" x="0" y="0"/></clipPath><clipPath id="__lottie_element_61"><path d="M0,0 L500,0 L500,500 L0,500z"/></clipPath></defs><g clip-path="url(#__lottie_element_59)"><g clip-path="url(#__lottie_element_61)" transform="matrix(1,0,0,1,0,0)" opacity="1" style="display: block;"><g class="primary design" transform="matrix(1,0,0,1,0,0.0010986328125)" opacity="1" style="display: none;"><g opacity="1" transform="matrix(1,0,0,1,384.7659912109375,362.5669860839844)"><path stroke-linecap="round" stroke-linejoin="round" fill-opacity="0" class="primary" stroke="rgb(236,69,86)" stroke-opacity="1" stroke-width="31.3" d=" M-119.1358413696289,-97.7445068359375 C-119.1358413696289,-97.7445068359375 -86.01599884033203,-97.6760025024414 -29.766000747680664,-97.74500274658203 C28.983999252319336,-97.81700134277344 57.62483596801758,-97.7445068359375 57.62483596801758,-97.7445068359375 M-30.7549991607666,-138.6060028076172 C-30.7549991607666,-138.6060028076172 -30.7549991607666,-99.07499694824219 -30.7549991607666,-99.07499694824219 M-119.13668060302734,38.472469329833984 C-49.67080307006836,38.47213363647461 6.642000198364258,-17.94099998474121 6.642000198364258,-87.52899932861328 C6.642000198364258,-87.52899932861328 6.642003536224365,-97.7448501586914 6.642003536224365,-97.7448501586914 M-57.946998596191406,-38.47765350341797 C-38.852996826171875,6.746347904205322 5.847675800323486,38.478065490722656 57.94664001464844,38.47848129272461"/></g></g><g class="primary design" transform="matrix(1,0,0,1,0,0.0012054443359375)" opacity="1" style="display: none;"><g opacity="1" transform="matrix(1,0,0,1,0,0)"><g opacity="1" transform="matrix(1,0,0,1,125.00599670410156,218.7530059814453)"><path stroke-linecap="round" stroke-linejoin="round" fill-opacity="0" class="primary" stroke="rgb(236,69,86)" stroke-opacity="1" stroke-width="31.3" d=" M-67.7122573852539,78.125 C-67.7122573852539,78.125 -67.7122573852539,-57.291229248046875 -67.7122573852539,-57.291229248046875 C-67.7122573852539,-91.8092269897461 -39.731258392333984,-119.79122924804688 -5.214256763458252,-119.79122924804688 C-5.214256763458252,-119.79122924804688 5.20225715637207,-119.79122924804688 5.20225715637207,-119.79122924804688 C39.71925735473633,-119.79122924804688 67.70025634765625,-91.8092269897461 67.70025634765625,-57.291229248046875 C67.70025634765625,-57.291229248046875 67.70025634765625,78.125 67.70025634765625,78.125 M67.70626068115234,0.0004282961890567094 C67.70626068115234,0.0004282961890567094 -67.70626068115234,0.0004282961890567094 -67.70626068115234,0.0004282961890567094"/></g></g></g><g class="primary design" transform="matrix(1,0,0,1,0,0)" opacity="1" style="display: none;"><g opacity="1" transform="matrix(1,0,0,1,354.1709899902344,312.50299072265625)"><path class="primary" fill="rgb(236,69,86)" fill-opacity="1" d=" M88.54199981689453,72.89199829101562 C64.0009994506836,72.89199829101562 40.854000091552734,64.78299713134766 22.135000228881836,50.61600112915039 C40.31999969482422,27.742000579833984 51.59299850463867,-0.8709999918937683 52.77299880981445,-32.03099822998047 C52.77299880981445,-32.03099822998047 88.22000122070312,-32.03099822998047 88.22000122070312,-32.03099822998047 C96.86399841308594,-32.03099822998047 103.87000274658203,-39.03799819946289 103.87000274658203,-47.680999755859375 C103.87000274658203,-56.32400131225586 96.86399841308594,-63.33100128173828 88.22000122070312,-63.33100128173828 C88.22000122070312,-63.33100128173828 15.48900032043457,-63.33100128173828 15.48900032043457,-63.33100128173828 C15.48900032043457,-63.33100128173828 15.48900032043457,-88.54199981689453 15.48900032043457,-88.54199981689453 C15.48900032043457,-97.18499755859375 8.482999801635742,-104.19200134277344 -0.16099999845027924,-104.19200134277344 C-8.805000305175781,-104.19200134277344 -15.812000274658203,-97.18499755859375 -15.812000274658203,-88.54199981689453 C-15.812000274658203,-88.54199981689453 -15.812000274658203,-63.33100128173828 -15.812000274658203,-63.33100128173828 C-15.812000274658203,-63.33100128173828 -88.54100036621094,-63.33100128173828 -88.54100036621094,-63.33100128173828 C-97.18499755859375,-63.33100128173828 -104.19100189208984,-56.32400131225586 -104.19100189208984,-47.680999755859375 C-104.19100189208984,-39.03799819946289 -97.18499755859375,-32.03099822998047 -88.54100036621094,-32.03099822998047 C-88.54100036621094,-32.03099822998047 21.451000213623047,-32.03099822998047 21.451000213623047,-32.03099822998047 C20.358999252319336,-9.567999839782715 12.531000137329102,11.151000022888184 -0.04600000008940697,28.139999389648438 C-5.138000011444092,21.226999282836914 -9.491000175476074,13.656999588012695 -12.9350004196167,5.499000072479248 C-16.297000885009766,-2.4630000591278076 -25.474000930786133,-6.190999984741211 -33.439998626708984,-2.8310000896453857 C-41.402000427246094,0.531000018119812 -45.13199996948242,9.711999893188477 -41.770999908447266,17.673999786376953 C-36.696998596191406,29.69099998474121 -30.0939998626709,40.720001220703125 -22.268999099731445,50.60900115966797 C-40.72100067138672,64.58499908447266 -63.680999755859375,72.88600158691406 -88.54199981689453,72.88600158691406 C-97.18599700927734,72.88600158691406 -104.19200134277344,79.89299774169922 -104.19200134277344,88.53600311279297 C-104.19200134277344,97.17900085449219 -97.18599700927734,104.18599700927734 -88.54199981689453,104.18599700927734 C-55.095001220703125,104.18599700927734 -24.32900047302246,92.48899841308594 -0.08900000154972076,72.9749984741211 C24.509000778198242,92.77899932861328 55.54199981689453,104.19200134277344 88.54199981689453,104.19200134277344 C97.18599700927734,104.19200134277344 104.19200134277344,97.18499755859375 104.19200134277344,88.54199981689453 C104.19200134277344,79.89900207519531 97.18599700927734,72.89199829101562 88.54199981689453,72.89199829101562z"/></g><g opacity="1" transform="matrix(1,0,0,1,125.00299835205078,197.91900634765625)"><path class="primary" fill="rgb(236,69,86)" fill-opacity="1" d=" M83.35399627685547,20.716999053955078 C83.35399627685547,20.716999053955078 83.35399627685547,-36.45800018310547 83.35399627685547,-36.45800018310547 C83.35399627685547,-79.55000305175781 48.29600143432617,-114.60900115966797 5.204999923706055,-114.60900115966797 C5.204999923706055,-114.60900115966797 -5.210999965667725,-114.60900115966797 -5.210999965667725,-114.60900115966797 C-48.301998138427734,-114.60900115966797 -83.35900115966797,-79.55000305175781 -83.35900115966797,-36.45800018310547 C-83.35900115966797,-36.45800018310547 -83.35900115966797,98.95899963378906 -83.35900115966797,98.95899963378906 C-83.35900115966797,107.60199737548828 -76.35299682617188,114.60900115966797 -67.70899963378906,114.60900115966797 C-59.064998626708984,114.60900115966797 -52.058998107910156,107.60199737548828 -52.058998107910156,98.95899963378906 C-52.058998107910156,98.95899963378906 -52.058998107910156,36.483001708984375 -52.058998107910156,36.483001708984375 C-52.058998107910156,36.483001708984375 52.053001403808594,36.483001708984375 52.053001403808594,36.483001708984375 C52.053001403808594,36.483001708984375 52.053001403808594,98.95899963378906 52.053001403808594,98.95899963378906 C52.053001403808594,107.60199737548828 59.058998107910156,114.60900115966797 67.7030029296875,114.60900115966797 C76.34700012207031,114.60900115966797 83.35399627685547,107.60199737548828 83.35399627685547,98.95899963378906 C83.35399627685547,98.95899963378906 83.35399627685547,20.950000762939453 83.35399627685547,20.950000762939453 C83.35399627685547,20.910999298095703 83.35900115966797,20.871999740600586 83.35900115966797,20.83300018310547 C83.35900115966797,20.79400062561035 83.35399627685547,20.756000518798828 83.35399627685547,20.716999053955078z M-52.058998107910156,5.184000015258789 C-52.058998107910156,5.184000015258789 -52.058998107910156,-36.45800018310547 -52.058998107910156,-36.45800018310547 C-52.058998107910156,-62.29100036621094 -31.042999267578125,-83.30899810791016 -5.210999965667725,-83.30899810791016 C-5.210999965667725,-83.30899810791016 5.204999923706055,-83.30899810791016 5.204999923706055,-83.30899810791016 C31.03700065612793,-83.30899810791016 52.053001403808594,-62.29100036621094 52.053001403808594,-36.45800018310547 C52.053001403808594,-36.45800018310547 52.053001403808594,5.184000015258789 52.053001403808594,5.184000015258789 C52.053001403808594,5.184000015258789 -52.058998107910156,5.184000015258789 -52.058998107910156,5.184000015258789z"/></g></g><g class="primary design" transform="matrix(1,0,0,1,0,0)" opacity="1" style="display: block;"><g opacity="1" transform="matrix(1,0,0,1,354.1709899902344,312.50299072265625)"><path class="primary" fill="rgb(236,69,86)" fill-opacity="1" d=" M88.54199981689453,72.89199829101562 C64.0009994506836,72.89199829101562 40.854000091552734,64.78299713134766 22.135000228881836,50.61600112915039 C40.31999969482422,27.742000579833984 51.59299850463867,-0.8709999918937683 52.77299880981445,-32.03099822998047 C52.77299880981445,-32.03099822998047 88.22000122070312,-32.03099822998047 88.22000122070312,-32.03099822998047 C96.86399841308594,-32.03099822998047 103.87000274658203,-39.03799819946289 103.87000274658203,-47.680999755859375 C103.87000274658203,-56.32400131225586 96.86399841308594,-63.33100128173828 88.22000122070312,-63.33100128173828 C88.22000122070312,-63.33100128173828 15.48900032043457,-63.33100128173828 15.48900032043457,-63.33100128173828 C15.48900032043457,-63.33100128173828 15.48900032043457,-88.54199981689453 15.48900032043457,-88.54199981689453 C15.48900032043457,-97.18499755859375 8.482999801635742,-104.19200134277344 -0.16099999845027924,-104.19200134277344 C-8.805000305175781,-104.19200134277344 -15.812000274658203,-97.18499755859375 -15.812000274658203,-88.54199981689453 C-15.812000274658203,-88.54199981689453 -15.812000274658203,-63.33100128173828 -15.812000274658203,-63.33100128173828 C-15.812000274658203,-63.33100128173828 -88.54100036621094,-63.33100128173828 -88.54100036621094,-63.33100128173828 C-97.18499755859375,-63.33100128173828 -104.19100189208984,-56.32400131225586 -104.19100189208984,-47.680999755859375 C-104.19100189208984,-39.03799819946289 -97.18499755859375,-32.03099822998047 -88.54100036621094,-32.03099822998047 C-88.54100036621094,-32.03099822998047 21.451000213623047,-32.03099822998047 21.451000213623047,-32.03099822998047 C20.358999252319336,-9.567999839782715 12.531000137329102,11.151000022888184 -0.04600000008940697,28.139999389648438 C-5.138000011444092,21.226999282836914 -9.491000175476074,13.656999588012695 -12.9350004196167,5.499000072479248 C-16.297000885009766,-2.4630000591278076 -25.474000930786133,-6.190999984741211 -33.439998626708984,-2.8310000896453857 C-41.402000427246094,0.531000018119812 -45.13199996948242,9.711999893188477 -41.770999908447266,17.673999786376953 C-36.696998596191406,29.69099998474121 -30.0939998626709,40.720001220703125 -22.268999099731445,50.60900115966797 C-40.72100067138672,64.58499908447266 -63.680999755859375,72.88600158691406 -88.54199981689453,72.88600158691406 C-97.18599700927734,72.88600158691406 -104.19200134277344,79.89299774169922 -104.19200134277344,88.53600311279297 C-104.19200134277344,97.17900085449219 -97.18599700927734,104.18599700927734 -88.54199981689453,104.18599700927734 C-55.095001220703125,104.18599700927734 -24.32900047302246,92.48899841308594 -0.08900000154972076,72.9749984741211 C24.509000778198242,92.77899932861328 55.54199981689453,104.19200134277344 88.54199981689453,104.19200134277344 C97.18599700927734,104.19200134277344 104.19200134277344,97.18499755859375 104.19200134277344,88.54199981689453 C104.19200134277344,79.89900207519531 97.18599700927734,72.89199829101562 88.54199981689453,72.89199829101562z"/></g><g opacity="1" transform="matrix(1,0,0,1,125.00299835205078,197.91900634765625)"><path class="primary" fill="rgb(236,69,86)" fill-opacity="1" d=" M83.35399627685547,20.716999053955078 C83.35399627685547,20.716999053955078 83.35399627685547,-36.45800018310547 83.35399627685547,-36.45800018310547 C83.35399627685547,-79.55000305175781 48.29600143432617,-114.60900115966797 5.204999923706055,-114.60900115966797 C5.204999923706055,-114.60900115966797 -5.210999965667725,-114.60900115966797 -5.210999965667725,-114.60900115966797 C-48.301998138427734,-114.60900115966797 -83.35900115966797,-79.55000305175781 -83.35900115966797,-36.45800018310547 C-83.35900115966797,-36.45800018310547 -83.35900115966797,98.95899963378906 -83.35900115966797,98.95899963378906 C-83.35900115966797,107.60199737548828 -76.35299682617188,114.60900115966797 -67.70899963378906,114.60900115966797 C-59.064998626708984,114.60900115966797 -52.058998107910156,107.60199737548828 -52.058998107910156,98.95899963378906 C-52.058998107910156,98.95899963378906 -52.058998107910156,36.483001708984375 -52.058998107910156,36.483001708984375 C-52.058998107910156,36.483001708984375 52.053001403808594,36.483001708984375 52.053001403808594,36.483001708984375 C52.053001403808594,36.483001708984375 52.053001403808594,98.95899963378906 52.053001403808594,98.95899963378906 C52.053001403808594,107.60199737548828 59.058998107910156,114.60900115966797 67.7030029296875,114.60900115966797 C76.34700012207031,114.60900115966797 83.35399627685547,107.60199737548828 83.35399627685547,98.95899963378906 C83.35399627685547,98.95899963378906 83.35399627685547,20.950000762939453 83.35399627685547,20.950000762939453 C83.35399627685547,20.910999298095703 83.35900115966797,20.871999740600586 83.35900115966797,20.83300018310547 C83.35900115966797,20.79400062561035 83.35399627685547,20.756000518798828 83.35399627685547,20.716999053955078z M-52.058998107910156,5.184000015258789 C-52.058998107910156,5.184000015258789 -52.058998107910156,-36.45800018310547 -52.058998107910156,-36.45800018310547 C-52.058998107910156,-62.29100036621094 -31.042999267578125,-83.30899810791016 -5.210999965667725,-83.30899810791016 C-5.210999965667725,-83.30899810791016 5.204999923706055,-83.30899810791016 5.204999923706055,-83.30899810791016 C31.03700065612793,-83.30899810791016 52.053001403808594,-62.29100036621094 52.053001403808594,-36.45800018310547 C52.053001403808594,-36.45800018310547 52.053001403808594,5.184000015258789 52.053001403808594,5.184000015258789 C52.053001403808594,5.184000015258789 -52.058998107910156,5.184000015258789 -52.058998107910156,5.184000015258789z"/></g></g></g></g></svg>