<svg xmlns="http://www.w3.org/2000/svg" xmlns:xlink="http://www.w3.org/1999/xlink" viewBox="0 0 500 500" width="500" height="500" preserveAspectRatio="xMidYMid meet" style="width: 100%; height: 100%; transform: translate3d(0px, 0px, 0px); content-visibility: visible;"><defs><clipPath id="__lottie_element_59"><rect width="500" height="500" x="0" y="0"/></clipPath><clipPath id="__lottie_element_61"><path d="M0,0 L500,0 L500,500 L0,500z"/></clipPath></defs><g clip-path="url(#__lottie_element_59)"><g clip-path="url(#__lottie_element_61)" transform="matrix(1,0,0,1,0,0)" opacity="1" style="display: block;"><g class="primary design" transform="matrix(1,0,0,1,322.9209899902344,250)" opacity="1" style="display: none;"><g opacity="1" transform="matrix(1,0,0,1,0,0)"><path stroke-linecap="round" stroke-linejoin="round" fill-opacity="0" class="primary" stroke="rgb(236,69,86)" stroke-opacity="1" stroke-width="31.3" d=" M-98.95800018310547,171.8730010986328 C-98.95800018310547,171.8730010986328 57.29100036621094,171.8730010986328 57.29100036621094,171.8730010986328 C80.3030014038086,171.8730010986328 98.95800018310547,153.218994140625 98.95800018310547,130.20700073242188 C98.95800018310547,130.20700073242188 98.95800018310547,-130.20700073242188 98.95800018310547,-130.20700073242188 C98.95800018310547,-153.218994140625 80.3030014038086,-171.8730010986328 57.29100036621094,-171.8730010986328 C57.29100036621094,-171.8730010986328 -98.95800018310547,-171.8730010986328 -98.95800018310547,-171.8730010986328"/></g></g><g class="primary design" transform="matrix(0,-1,1,0,-21.000137329101562,500)" opacity="1" style="display: none;"><g opacity="1" transform="matrix(1,0,0,1,250.00399780273438,294.27301025390625)"><path stroke-linecap="round" stroke-linejoin="round" fill-opacity="0" class="primary" stroke="rgb(236,69,86)" stroke-opacity="1" stroke-width="31.3" d=" M-88.54199981689453,-44.26300048828125 C-88.54199981689453,-44.26300048828125 -0.007000000216066837,44.27199935913086 -0.007000000216066837,44.27199935913086 C-0.007000000216066837,44.27199935913086 88.54199981689453,-44.27199935913086 88.54199981689453,-44.27199935913086"/></g><g opacity="1" transform="matrix(1,0,0,1,250,218.75100708007812)"><path stroke-linecap="round" stroke-linejoin="round" fill-opacity="0" class="primary" stroke="rgb(236,69,86)" stroke-opacity="1" stroke-width="31.3" d=" M-0.004000000189989805,119.79399871826172 C-0.004000000189989805,119.79399871826172 0.004000000189989805,-119.79399871826172 0.004000000189989805,-119.79399871826172"/></g></g><g class="primary design" transform="matrix(0,-1,1,0,322.5394592285156,500)" opacity="1" style="display: none;"><g opacity="1" transform="matrix(1,0,0,1,250.00399780273438,294.27301025390625)"><path stroke-linecap="round" stroke-linejoin="round" fill-opacity="0" class="primary" stroke="rgb(236,69,86)" stroke-opacity="1" stroke-width="31.3" d="M0 0"/></g><g opacity="1" transform="matrix(1,0,0,1,250,218.75100708007812)"><path stroke-linecap="round" stroke-linejoin="round" fill-opacity="0" class="primary" stroke="rgb(236,69,86)" stroke-opacity="1" stroke-width="31.3" d=" M-0.004000000189989805,-120.98249816894531 C-0.004000000189989805,-120.98249816894531 0.004000000189989805,-119.79399871826172 0.004000000189989805,-119.79399871826172"/></g></g><g class="primary design" transform="matrix(1,0,0,1,0,0)" opacity="1" style="display: none;"><g opacity="1" transform="matrix(1,0,0,1,197.91700744628906,250.0030059814453)"><path class="primary" fill="rgb(236,69,86)" fill-opacity="1" d=" M20.191999435424805,77.47599792480469 C14.081000328063965,83.58799743652344 14.081000328063965,93.49700164794922 20.191999435424805,99.60900115966797 C23.24799919128418,102.66500091552734 27.253999710083008,104.19200134277344 31.259000778198242,104.19200134277344 C35.263999938964844,104.19200134277344 39.26900100708008,102.66500091552734 42.32500076293945,99.60900115966797 C42.32500076293945,99.60900115966797 130.86000061035156,11.074000358581543 130.86000061035156,11.074000358581543 C130.91200256347656,11.022000312805176 130.95599365234375,10.96399974822998 131.0070037841797,10.91100025177002 C131.31399536132812,10.595000267028809 131.61300659179688,10.272000312805176 131.89300537109375,9.930999755859375 C132.05599975585938,9.732999801635742 132.197998046875,9.52400016784668 132.35000610351562,9.319999694824219 C132.5030059814453,9.11400032043457 132.66200256347656,8.913999557495117 132.80499267578125,8.701000213623047 C132.96099853515625,8.468000411987305 133.0970001220703,8.22599983215332 133.23899841308594,7.986999988555908 C133.35800170898438,7.7870001792907715 133.48300170898438,7.5920000076293945 133.59300231933594,7.38700008392334 C133.7209930419922,7.1479997634887695 133.82899475097656,6.9029998779296875 133.94400024414062,6.658999919891357 C134.04800415039062,6.439000129699707 134.15699768066406,6.2230000495910645 134.25100708007812,5.998000144958496 C134.3470001220703,5.764999866485596 134.4250030517578,5.526000022888184 134.50999450683594,5.289000034332275 C134.59800720214844,5.043000221252441 134.6929931640625,4.801000118255615 134.7689971923828,4.550000190734863 C134.83999633789062,4.316999912261963 134.89100646972656,4.080999851226807 134.9499969482422,3.8450000286102295 C135.01600646972656,3.5850000381469727 135.08900451660156,3.3289999961853027 135.14100646972656,3.063999891281128 C135.1929931640625,2.7990000247955322 135.2239990234375,2.5320000648498535 135.26300048828125,2.265000104904175 C135.29800415039062,2.0260000228881836 135.3419952392578,1.7899999618530273 135.36599731445312,1.5479999780654907 C135.41099548339844,1.093000054359436 135.43099975585938,0.6370000243186951 135.43600463867188,0.18000000715255737 C135.43699645996094,0.12200000137090683 135.44400024414062,0.06599999964237213 135.44400024414062,0.00800000037997961 C135.44400024414062,-0.05000000074505806 135.43699645996094,-0.10599999874830246 135.43600463867188,-0.164000004529953 C135.43099975585938,-0.6209999918937683 135.41200256347656,-1.0770000219345093 135.36700439453125,-1.531999945640564 C135.3419952392578,-1.7829999923706055 135.2949981689453,-2.0269999504089355 135.25900268554688,-2.2750000953674316 C135.2209930419922,-2.5320000648498535 135.1929931640625,-2.7909998893737793 135.14199829101562,-3.0460000038146973 C135.08799743652344,-3.319999933242798 135.01199340820312,-3.5859999656677246 134.94400024414062,-3.8550000190734863 C134.88699340820312,-4.080999851226807 134.83799743652344,-4.308000087738037 134.77000427246094,-4.5320000648498535 C134.6909942626953,-4.793000221252441 134.59300231933594,-5.046000003814697 134.50100708007812,-5.301000118255615 C134.4199981689453,-5.5269999504089355 134.34500122070312,-5.755000114440918 134.2530059814453,-5.978000164031982 C134.15499877929688,-6.215000152587891 134.0399932861328,-6.442999839782715 133.92999267578125,-6.673999786376953 C133.8209991455078,-6.906000137329102 133.71800231933594,-7.139999866485596 133.5959930419922,-7.367000102996826 C133.47799682617188,-7.5879998207092285 133.34300231933594,-7.797999858856201 133.21499633789062,-8.01200008392334 C133.08099365234375,-8.236000061035156 132.9550018310547,-8.461999893188477 132.8090057373047,-8.680000305175781 C132.6510009765625,-8.916000366210938 132.47500610351562,-9.138999938964844 132.30499267578125,-9.366000175476074 C132.16900634765625,-9.54800033569336 132.04299926757812,-9.734000205993652 131.8979949951172,-9.91100025177002 C131.57000732421875,-10.3100004196167 131.22500610351562,-10.694000244140625 130.86000061035156,-11.059000015258789 C130.86000061035156,-11.059000015258789 42.316001892089844,-99.60800170898438 42.316001892089844,-99.60800170898438 C36.20500183105469,-105.72000122070312 26.29400062561035,-105.72100067138672 20.184999465942383,-99.60900115966797 C14.072999954223633,-93.49800109863281 14.072999954223633,-83.58799743652344 20.18400001525879,-77.47599792480469 C20.18400001525879,-77.47599792480469 82.01300048828125,-15.644000053405762 82.01300048828125,-15.644000053405762 C82.01300048828125,-15.644000053405762 -119.79399871826172,-15.649999618530273 -119.79399871826172,-15.649999618530273 C-128.43699645996094,-15.649999618530273 -135.4429931640625,-8.642999649047852 -135.44400024414062,0 C-135.44400024414062,8.642999649047852 -128.43800354003906,15.649999618530273 -119.79399871826172,15.649999618530273 C-119.79399871826172,15.649999618530273 82.01300048828125,15.656000137329102 82.01300048828125,15.656000137329102 C82.01300048828125,15.656000137329102 20.191999435424805,77.47599792480469 20.191999435424805,77.47599792480469z"/></g><g opacity="1" transform="matrix(1,0,0,1,322.9209899902344,250)"><path class="primary" fill="rgb(236,69,86)" fill-opacity="1" d=" M57.29100036621094,-187.5229949951172 C57.29100036621094,-187.5229949951172 -98.95800018310547,-187.5229949951172 -98.95800018310547,-187.5229949951172 C-107.60199737548828,-187.5229949951172 -114.60800170898438,-180.51600646972656 -114.60800170898438,-171.8730010986328 C-114.60800170898438,-163.22999572753906 -107.60199737548828,-156.22300720214844 -98.95800018310547,-156.22300720214844 C-98.95800018310547,-156.22300720214844 57.29100036621094,-156.22300720214844 57.29100036621094,-156.22300720214844 C71.63700103759766,-156.22300720214844 83.30799865722656,-144.55299377441406 83.30799865722656,-130.20700073242188 C83.30799865722656,-130.20700073242188 83.30799865722656,130.20599365234375 83.30799865722656,130.20599365234375 C83.30799865722656,144.552001953125 71.63700103759766,156.22300720214844 57.29100036621094,156.22300720214844 C57.29100036621094,156.22300720214844 -98.95800018310547,156.22300720214844 -98.95800018310547,156.22300720214844 C-107.60199737548828,156.22300720214844 -114.60800170898438,163.22999572753906 -114.60800170898438,171.8730010986328 C-114.60800170898438,180.51600646972656 -107.60199737548828,187.5229949951172 -98.95800018310547,187.5229949951172 C-98.95800018310547,187.5229949951172 57.29100036621094,187.5229949951172 57.29100036621094,187.5229949951172 C88.8949966430664,187.5229949951172 114.60800170898438,161.80999755859375 114.60800170898438,130.20599365234375 C114.60800170898438,130.20599365234375 114.60800170898438,-130.20700073242188 114.60800170898438,-130.20700073242188 C114.60800170898438,-161.81100463867188 88.8949966430664,-187.5229949951172 57.29100036621094,-187.5229949951172z"/></g></g><g class="primary design" transform="matrix(1,0,0,1,0,0)" opacity="1" style="display: block;"><g opacity="1" transform="matrix(1,0,0,1,197.91700744628906,250.0030059814453)"><path class="primary" fill="rgb(236,69,86)" fill-opacity="1" d=" M20.191999435424805,77.47599792480469 C14.081000328063965,83.58799743652344 14.081000328063965,93.49700164794922 20.191999435424805,99.60900115966797 C23.24799919128418,102.66500091552734 27.253999710083008,104.19200134277344 31.259000778198242,104.19200134277344 C35.263999938964844,104.19200134277344 39.26900100708008,102.66500091552734 42.32500076293945,99.60900115966797 C42.32500076293945,99.60900115966797 130.86000061035156,11.074000358581543 130.86000061035156,11.074000358581543 C130.91200256347656,11.022000312805176 130.95599365234375,10.96399974822998 131.0070037841797,10.91100025177002 C131.31399536132812,10.595000267028809 131.61300659179688,10.272000312805176 131.89300537109375,9.930999755859375 C132.05599975585938,9.732999801635742 132.197998046875,9.52400016784668 132.35000610351562,9.319999694824219 C132.5030059814453,9.11400032043457 132.66200256347656,8.913999557495117 132.80499267578125,8.701000213623047 C132.96099853515625,8.468000411987305 133.0970001220703,8.22599983215332 133.23899841308594,7.986999988555908 C133.35800170898438,7.7870001792907715 133.48300170898438,7.5920000076293945 133.59300231933594,7.38700008392334 C133.7209930419922,7.1479997634887695 133.82899475097656,6.9029998779296875 133.94400024414062,6.658999919891357 C134.04800415039062,6.439000129699707 134.15699768066406,6.2230000495910645 134.25100708007812,5.998000144958496 C134.3470001220703,5.764999866485596 134.4250030517578,5.526000022888184 134.50999450683594,5.289000034332275 C134.59800720214844,5.043000221252441 134.6929931640625,4.801000118255615 134.7689971923828,4.550000190734863 C134.83999633789062,4.316999912261963 134.89100646972656,4.080999851226807 134.9499969482422,3.8450000286102295 C135.01600646972656,3.5850000381469727 135.08900451660156,3.3289999961853027 135.14100646972656,3.063999891281128 C135.1929931640625,2.7990000247955322 135.2239990234375,2.5320000648498535 135.26300048828125,2.265000104904175 C135.29800415039062,2.0260000228881836 135.3419952392578,1.7899999618530273 135.36599731445312,1.5479999780654907 C135.41099548339844,1.093000054359436 135.43099975585938,0.6370000243186951 135.43600463867188,0.18000000715255737 C135.43699645996094,0.12200000137090683 135.44400024414062,0.06599999964237213 135.44400024414062,0.00800000037997961 C135.44400024414062,-0.05000000074505806 135.43699645996094,-0.10599999874830246 135.43600463867188,-0.164000004529953 C135.43099975585938,-0.6209999918937683 135.41200256347656,-1.0770000219345093 135.36700439453125,-1.531999945640564 C135.3419952392578,-1.7829999923706055 135.2949981689453,-2.0269999504089355 135.25900268554688,-2.2750000953674316 C135.2209930419922,-2.5320000648498535 135.1929931640625,-2.7909998893737793 135.14199829101562,-3.0460000038146973 C135.08799743652344,-3.319999933242798 135.01199340820312,-3.5859999656677246 134.94400024414062,-3.8550000190734863 C134.88699340820312,-4.080999851226807 134.83799743652344,-4.308000087738037 134.77000427246094,-4.5320000648498535 C134.6909942626953,-4.793000221252441 134.59300231933594,-5.046000003814697 134.50100708007812,-5.301000118255615 C134.4199981689453,-5.5269999504089355 134.34500122070312,-5.755000114440918 134.2530059814453,-5.978000164031982 C134.15499877929688,-6.215000152587891 134.0399932861328,-6.442999839782715 133.92999267578125,-6.673999786376953 C133.8209991455078,-6.906000137329102 133.71800231933594,-7.139999866485596 133.5959930419922,-7.367000102996826 C133.47799682617188,-7.5879998207092285 133.34300231933594,-7.797999858856201 133.21499633789062,-8.01200008392334 C133.08099365234375,-8.236000061035156 132.9550018310547,-8.461999893188477 132.8090057373047,-8.680000305175781 C132.6510009765625,-8.916000366210938 132.47500610351562,-9.138999938964844 132.30499267578125,-9.366000175476074 C132.16900634765625,-9.54800033569336 132.04299926757812,-9.734000205993652 131.8979949951172,-9.91100025177002 C131.57000732421875,-10.3100004196167 131.22500610351562,-10.694000244140625 130.86000061035156,-11.059000015258789 C130.86000061035156,-11.059000015258789 42.316001892089844,-99.60800170898438 42.316001892089844,-99.60800170898438 C36.20500183105469,-105.72000122070312 26.29400062561035,-105.72100067138672 20.184999465942383,-99.60900115966797 C14.072999954223633,-93.49800109863281 14.072999954223633,-83.58799743652344 20.18400001525879,-77.47599792480469 C20.18400001525879,-77.47599792480469 82.01300048828125,-15.644000053405762 82.01300048828125,-15.644000053405762 C82.01300048828125,-15.644000053405762 -119.79399871826172,-15.649999618530273 -119.79399871826172,-15.649999618530273 C-128.43699645996094,-15.649999618530273 -135.4429931640625,-8.642999649047852 -135.44400024414062,0 C-135.44400024414062,8.642999649047852 -128.43800354003906,15.649999618530273 -119.79399871826172,15.649999618530273 C-119.79399871826172,15.649999618530273 82.01300048828125,15.656000137329102 82.01300048828125,15.656000137329102 C82.01300048828125,15.656000137329102 20.191999435424805,77.47599792480469 20.191999435424805,77.47599792480469z"/></g><g opacity="1" transform="matrix(1,0,0,1,322.9209899902344,250)"><path class="primary" fill="rgb(236,69,86)" fill-opacity="1" d=" M57.29100036621094,-187.5229949951172 C57.29100036621094,-187.5229949951172 -98.95800018310547,-187.5229949951172 -98.95800018310547,-187.5229949951172 C-107.60199737548828,-187.5229949951172 -114.60800170898438,-180.51600646972656 -114.60800170898438,-171.8730010986328 C-114.60800170898438,-163.22999572753906 -107.60199737548828,-156.22300720214844 -98.95800018310547,-156.22300720214844 C-98.95800018310547,-156.22300720214844 57.29100036621094,-156.22300720214844 57.29100036621094,-156.22300720214844 C71.63700103759766,-156.22300720214844 83.30799865722656,-144.55299377441406 83.30799865722656,-130.20700073242188 C83.30799865722656,-130.20700073242188 83.30799865722656,130.20599365234375 83.30799865722656,130.20599365234375 C83.30799865722656,144.552001953125 71.63700103759766,156.22300720214844 57.29100036621094,156.22300720214844 C57.29100036621094,156.22300720214844 -98.95800018310547,156.22300720214844 -98.95800018310547,156.22300720214844 C-107.60199737548828,156.22300720214844 -114.60800170898438,163.22999572753906 -114.60800170898438,171.8730010986328 C-114.60800170898438,180.51600646972656 -107.60199737548828,187.5229949951172 -98.95800018310547,187.5229949951172 C-98.95800018310547,187.5229949951172 57.29100036621094,187.5229949951172 57.29100036621094,187.5229949951172 C88.8949966430664,187.5229949951172 114.60800170898438,161.80999755859375 114.60800170898438,130.20599365234375 C114.60800170898438,130.20599365234375 114.60800170898438,-130.20700073242188 114.60800170898438,-130.20700073242188 C114.60800170898438,-161.81100463867188 88.8949966430664,-187.5229949951172 57.29100036621094,-187.5229949951172z"/></g></g></g></g></svg>